<?xml version="1.0" encoding="UTF-8" standalone="no"?>
<!-- Created with Inkscape (http://www.inkscape.org/) -->

<svg
   width="50mm"
   height="69.571854mm"
   viewBox="0 0 50 69.571852"
   version="1.1"
   id="svg1"
   xml:space="preserve"
   sodipodi:docname="DiCoMH_oscuro.svg"
   inkscape:version="1.4.4 (dcaf3e7d9e, 2026-05-05)"
   xmlns:inkscape="http://www.inkscape.org/namespaces/inkscape"
   xmlns:sodipodi="http://sodipodi.sourceforge.net/DTD/sodipodi-0.dtd"
   xmlns="http://www.w3.org/2000/svg"
   xmlns:svg="http://www.w3.org/2000/svg"><sodipodi:namedview
     id="namedview1"
     pagecolor="#ffffff"
     bordercolor="#000000"
     borderopacity="0.25"
     inkscape:showpageshadow="2"
     inkscape:pageopacity="0.0"
     inkscape:pagecheckerboard="0"
     inkscape:deskcolor="#d1d1d1"
     inkscape:document-units="mm"
     inkscape:zoom="1.6543148"
     inkscape:cx="35.362072"
     inkscape:cy="83.41822"
     inkscape:window-width="1906"
     inkscape:window-height="1028"
     inkscape:window-x="0"
     inkscape:window-y="0"
     inkscape:window-maximized="1"
     inkscape:current-layer="layer1" /><defs
     id="defs1"><clipPath
       clipPathUnits="userSpaceOnUse"
       id="clipPath51126-0-3"><path
         d="M 0,792 H 612 V 0 H 0 Z"
         id="path51124-3-4" /></clipPath><clipPath
       clipPathUnits="userSpaceOnUse"
       id="clipPath51202-5-7"><path
         d="M 0,792 H 612 V 0 H 0 Z"
         id="path51200-5-8" /></clipPath><clipPath
       clipPathUnits="userSpaceOnUse"
       id="clipPath51222-8-0"><path
         d="M 0,792 H 612 V 0 H 0 Z"
         id="path51220-7-3" /></clipPath><clipPath
       clipPathUnits="userSpaceOnUse"
       id="clipPath51346-1-9"><path
         d="M 0,792 H 612 V 0 H 0 Z"
         id="path51344-7-6" /></clipPath></defs><g
     id="layer1"
     transform="translate(339.56752,-304.12159)"><g
       id="g71902-3-9"
       transform="matrix(0.13421017,0,0,-0.13421017,-355.46506,391.54105)"><g
         id="g51116-5-5"
         transform="translate(242.8632,463.9212)"><path
           d="M 0,0 H 0.001 Z"
           style="fill:#aaaaff;fill-opacity:1;fill-rule:nonzero;stroke:none"
           id="path51118-4-0" /></g><g
         id="g51120-1-4"><g
           id="g51122-2-9"
           clip-path="url(#clipPath51126-0-3)"><g
             id="g51128-2-9"
             transform="translate(304.1071,633.2063)"
             style="stroke:#ffffff;stroke-opacity:1"><path
               d="m 0,0 c -15,8.922 -32.274,14.156 -50.475,14.156 -56.017,0 -101.427,-45.411 -101.427,-101.427 0,-56.017 45.41,-101.427 101.427,-101.427 18.52,0 35.88,4.964 50.824,13.633"
               style="fill:none;stroke:#ffffff;stroke-width:8;stroke-linecap:butt;stroke-linejoin:miter;stroke-miterlimit:10;stroke-dasharray:none;stroke-opacity:1"
               id="path51130-7-2" /></g><g
             id="g51132-7-8"
             transform="translate(304.5945,458.3774)"><path
               d="m 0,0 c 15.034,-8.815 32.541,-13.869 51.229,-13.869 56.016,0 101.427,45.41 101.427,101.427 0,56.016 -45.411,101.427 -101.427,101.427 -18.89,0 -36.574,-5.164 -51.717,-14.158"
               style="fill:none;stroke:#ff6c71;stroke-width:8;stroke-linecap:butt;stroke-linejoin:miter;stroke-miterlimit:10;stroke-dasharray:none;stroke-opacity:1"
               id="path51134-9-6" /></g><g
             id="g51136-1-9"
             transform="translate(304.4561,458.1414)"><path
               d="M 0,0 C 18.252,10.589 32.898,26.707 41.647,46.061"
               style="fill:none;stroke:#a451ff;stroke-width:8;stroke-linecap:butt;stroke-linejoin:miter;stroke-miterlimit:10;stroke-dasharray:none;stroke-opacity:1"
               id="path51138-4-2" /></g><g
             id="g51140-0-0"
             transform="translate(351.7092,573.3467)"><path
               d="M 0,0 C -7.706,24.777 -25.093,46.471 -47.602,59.86"
               style="fill:none;stroke:#a451ff;stroke-width:8;stroke-linecap:butt;stroke-linejoin:miter;stroke-miterlimit:10;stroke-dasharray:none;stroke-opacity:1"
               id="path51142-4-7" /></g><g
             id="g51144-7-5"
             transform="translate(259.6188,578.1484)"><path
               d="m 0,0 c 7.781,23.247 23.752,42.742 44.487,55.056 l 0.655,-0.39"
               style="fill:none;stroke:#a451ff;stroke-width:8;stroke-linecap:butt;stroke-linejoin:miter;stroke-miterlimit:10;stroke-dasharray:none;stroke-opacity:1"
               id="path51146-8-9" /></g><g
             id="g51148-7-0"
             transform="translate(270.8731,490.4982)"><path
               d="M 0,0 C 8.592,-13.139 20.149,-24.163 33.721,-32.121"
               style="fill:none;stroke:#a451ff;stroke-width:8;stroke-linecap:butt;stroke-linejoin:miter;stroke-miterlimit:10;stroke-dasharray:none;stroke-opacity:1"
               id="path51150-6-0" /></g><g
             id="g51152-8-0"
             transform="translate(297.2043,495.1856)"><path
               d="m 0,0 c 2.022,6.617 0.523,14.264 -4.095,19.459 -4.778,5.374 -12.355,6.455 -18.58,2.984 -6.013,-3.352 -10.086,-11.495 -5.43,-17.648 2.462,-3.254 7.092,-4.591 10.274,-1.472 2.544,2.494 2.676,6.716 1.321,9.817 -3.215,7.362 -12.544,9.793 -19.592,6.923 -3.857,-1.571 -7.082,-4.254 -9.504,-7.628 -2.351,-3.274 -3.836,-7.775 -2.414,-11.728 2.907,-8.085 13.219,-9.185 20.513,-8.125 7.808,1.135 14.949,4.822 22.46,7.038 3.901,1.152 7.825,1.839 11.905,1.62 4.571,-0.246 9.027,-1.414 13.482,-2.382 8.143,-1.771 17.853,-3.164 25.251,1.729 6.07,4.015 10.296,12.444 6.42,19.372 -1.986,3.549 -6.548,5.713 -10.118,3.017 -2.898,-2.187 -3.766,-6.347 -2.314,-9.607 1.636,-3.672 5.431,-5.7 9.07,-6.913 3.431,-1.145 7.142,-1.663 10.755,-1.539 7.338,0.251 14.739,3.151 19.365,9.029 2.725,3.462 4.485,7.596 5.64,11.827 1.153,4.228 1.607,8.663 0.829,12.997 -1.322,7.366 -7.785,14.137 -15.683,13.729 -3.502,-0.18 -6.66,-1.788 -8.573,-4.764 -1.658,-2.578 -2.14,-5.849 -1.546,-8.828 0.599,-3.007 2.66,-5.543 5.548,-6.596 3.672,-1.338 7.663,0.115 10.42,2.666 6.85,6.339 3.956,16.48 0.952,23.967 -2.734,6.815 -6.501,13.532 -12.652,17.815 -3.026,2.107 -6.855,3.617 -10.585,3.523 -3.822,-0.097 -7.804,-2.119 -8.713,-6.108 -0.784,-3.44 0.728,-7.405 4.416,-8.293 4.092,-0.985 7.41,2.512 8.591,6.082 1.263,3.816 0.017,8.295 -1.969,11.635 -2.164,3.639 -5.449,6.467 -9.124,8.507 -3.809,2.114 -8.009,3.511 -12.162,4.777 -4.36,1.33 -8.974,2.431 -13.566,2.171 C 16.317,98.81 12.373,97.428 9.132,94.593 6.278,92.096 4.281,88.531 4.076,84.71 3.862,80.731 5.969,76.439 9.87,75.059 c 3.758,-1.33 7.745,1.037 9.64,4.263 4.455,7.588 -2.98,15.304 -9.486,18.331 -6.102,2.84 -12.975,3.403 -19.53,1.983 -6.433,-1.394 -12.65,-4.853 -16.875,-9.95 -2.427,-2.929 -4.438,-6.386 -5.15,-10.162 -0.74,-3.922 -0.179,-8.409 2.902,-11.241 2.452,-2.255 6.069,-3.451 9.35,-2.559 3.673,0.998 5.929,4.646 5.566,8.374 -0.911,9.345 -11.322,11.202 -18.964,11.454 -8.098,0.267 -16.52,-1.365 -23.476,-5.661 -6.511,-4.02 -11.478,-10.456 -13.354,-17.917 -1.845,-7.339 -0.475,-15.702 5.02,-21.198 2.641,-2.64 6.273,-4.476 10.065,-4.402 3.528,0.069 7.137,1.59 9.385,4.358 5.395,6.646 0.264,15.674 -7.241,17.665 -7.813,2.072 -15.324,-3.839 -18.672,-10.48 -3.655,-7.248 -4.002,-16.818 1.051,-23.528 4.487,-5.959 12.74,-9.251 19.9,-6.328 3.203,1.307 5.831,3.445 8.561,5.519 2.366,1.797 5.015,3.787 8.07,3.997 1.347,0.092 2.5,1.082 2.5,2.5 0,1.281 -1.146,2.593 -2.5,2.5 -6.299,-0.433 -10.404,-4.972 -15.386,-8.227 -2.198,-1.435 -4.496,-2.441 -7.165,-2.376 -2.624,0.063 -5.229,1.095 -7.314,2.671 -4.952,3.744 -6.327,10.432 -4.983,16.252 1.257,5.439 4.943,11.16 10.651,12.627 2.553,0.656 5.158,0.077 7.195,-1.613 1.756,-1.457 3.106,-3.758 2.495,-6.07 -0.583,-2.203 -2.614,-3.659 -4.79,-4.223 -2.5,-0.648 -5.05,0.07 -7.139,1.664 -4.492,3.429 -6.065,9.614 -5.351,15.012 0.746,5.642 3.777,10.905 7.989,14.673 4.652,4.164 10.872,6.423 16.991,7.25 3.345,0.453 6.769,0.465 10.128,0.18 2.982,-0.252 6.216,-0.689 8.747,-2.409 1.85,-1.257 3.368,-3.954 2.334,-6.131 -0.817,-1.722 -2.856,-1.707 -4.561,-1.022 -1.933,0.777 -3.208,2.669 -3.318,5.032 -0.146,3.15 1.145,6.146 2.857,8.725 5.536,8.346 16.79,12.273 26.313,10.369 4.883,-0.976 10.847,-3.619 12.961,-8.498 0.967,-2.23 0.552,-4.751 -1.525,-6.188 -2.171,-1.501 -4.095,0.35 -4.578,2.7 -1.136,5.525 4.597,9.887 9.373,10.834 3.453,0.684 7.088,0.13 10.465,-0.691 3.614,-0.879 7.214,-2.034 10.674,-3.399 5.717,-2.255 11.728,-6.223 13.019,-12.678 0.404,-2.025 0.106,-5.233 -1.942,-6.193 -1.523,-0.715 -1.925,1.141 -1.388,2.549 0.713,1.87 3.922,2.136 6.009,1.672 2.669,-0.594 5.149,-1.943 7.199,-3.741 4.326,-3.794 7.151,-9.096 9.211,-14.394 2.088,-5.368 5.165,-13.387 0.322,-18.175 -0.85,-0.841 -1.868,-1.501 -3.03,-1.808 -1.116,-0.295 -2.275,-0.104 -3.012,0.322 -1.233,0.714 -1.87,2.271 -1.906,3.86 -0.042,1.884 0.559,3.719 1.901,4.998 1.298,1.237 3.753,1.65 5.759,1.181 6.112,-1.429 8.875,-7.374 8.809,-13.216 -0.038,-3.371 -0.836,-6.682 -1.953,-9.849 -1.09,-3.092 -2.636,-6.112 -4.945,-8.475 -3.871,-3.962 -9.429,-5.785 -14.883,-5.869 -2.91,-0.045 -5.774,0.377 -8.547,1.263 -2.294,0.734 -5.326,1.955 -6.274,4.395 -0.307,0.789 -0.276,1.591 0.113,2.493 0.312,0.723 0.858,1.177 1.339,1.163 2.27,-0.066 3.021,-3.541 2.988,-5.292 C 48.373,8.097 43.068,3.958 37.819,2.758 30.839,1.163 23.622,3.293 16.818,4.75 13.087,5.549 9.279,6.24 5.454,6.286 1.981,6.328 -1.495,5.762 -4.844,4.872 -11.158,3.195 -17.101,0.393 -23.381,-1.394 c -5.444,-1.55 -12.185,-2.561 -17.267,0.629 -5.899,3.702 -1.464,10.815 2.6,14.013 4.377,3.446 10.972,4.455 15.266,0.282 0.788,-0.767 1.556,-1.86 1.854,-2.738 0.345,-1.021 0.379,-2.047 0.092,-2.985 -0.203,-0.668 0.138,0.142 -0.182,-0.46 0.009,0.018 -0.477,-0.647 -0.252,-0.392 -0.205,-0.232 -0.48,-0.453 -0.875,-0.467 -0.93,-0.031 -1.768,0.918 -2.242,1.692 -2.564,4.192 1.484,8.876 5.356,10.507 2.078,0.876 4.44,1.122 6.584,0.484 2.126,-0.632 3.999,-2.11 5.326,-3.859 3,-3.953 3.721,-9.332 2.3,-13.983 C -5.764,-1.755 -0.939,-3.074 0,0"
               style="fill:#a451ff;fill-opacity:1;fill-rule:nonzero;stroke:none"
               id="path51154-0-3" /></g><g
             id="g51156-8-9"
             transform="translate(278.1975,531.9656)"><path
               d="m 0,0 c -2.803,-0.255 -5.489,-1.246 -7.734,-2.958 -1.144,-0.872 -2.136,-1.868 -2.993,-3.024 -0.919,-1.239 -1.614,-2.949 -0.615,-4.356 0.839,-1.184 2.304,-1.329 3.633,-1.127 1.531,0.232 3.037,0.847 4.514,1.301 2.75,0.846 6.31,1.559 6.725,4.982 0.194,1.602 -0.474,3.18 -1.802,4.109 -1.359,0.951 -3.1,1 -4.574,0.314 -0.612,-0.284 -0.766,-1.166 -0.448,-1.71 0.367,-0.628 1.095,-0.734 1.71,-0.448 1.392,0.647 2.891,-0.646 2.627,-2.103 -0.158,-0.869 -0.852,-1.36 -1.624,-1.687 -1.049,-0.443 -2.191,-0.712 -3.278,-1.046 -1.236,-0.38 -2.467,-0.805 -3.717,-1.137 -0.382,-0.101 -0.719,-0.169 -1.11,-0.169 -0.194,10e-4 -0.281,0.004 -0.42,0.046 -0.011,0.003 -0.209,0.091 -0.097,0.031 -0.068,0.036 -0.123,0.128 -0.074,0.038 -0.312,0.567 0.598,1.581 0.975,2.031 0.627,0.747 1.339,1.446 2.128,2.02 1.808,1.316 3.939,2.19 6.174,2.393 0.672,0.061 1.25,0.531 1.25,1.25 C 1.25,-0.621 0.676,0.061 0,0"
               style="fill:#a451ff;fill-opacity:1;fill-rule:nonzero;stroke:none"
               id="path51158-6-7" /></g><g
             id="g51160-1-8"
             transform="translate(284.8885,526.256)"><path
               d="m 0,0 c 2.577,-1.539 5.455,-2.978 8.389,-3.689 2.26,-0.548 4.886,-0.107 5.653,2.413 0.708,2.328 -0.291,5.237 -0.836,7.503 -0.689,2.862 -1.569,5.675 -2.714,8.389 -4.027,9.554 -12.784,18.814 -23.954,18.454 -5.142,-0.166 -10.501,-3.257 -10.974,-8.835 -0.457,-5.386 4.681,-9.096 9.444,-9.915 5.864,-1.008 12.539,0.039 18.096,2.029 4.716,1.689 9.172,4.505 11.926,8.789 1.316,2.047 2.143,4.448 2.144,6.895 0.002,2.166 -0.615,4.763 -2.701,5.843 -2.151,1.113 -4.713,-0.272 -5.604,-2.356 -1.073,-2.51 -0.066,-5.443 1.512,-7.504 2.852,-3.723 8.179,-5.548 12.724,-4.37 2.306,0.598 4.471,2.196 4.92,4.65 0.36,1.975 -0.384,4.241 -2.289,5.143 -2.303,1.089 -4.776,-0.257 -6.343,-1.977 -1.791,-1.965 -2.999,-4.563 -3.714,-7.103 -1.451,-5.148 -0.77,-10.717 1.904,-15.35 2.769,-4.796 7.231,-7.763 12.365,-9.57 2.616,-0.921 5.308,-1.606 7.929,-2.511 2.372,-0.819 5.618,-1.887 7.102,-4.07 1.632,-2.402 -1.866,-5.142 -3.619,-6.38 -2.161,-1.525 -4.721,-2.551 -7.379,-2.679 -5.605,-0.271 -10.34,3.239 -11.749,8.643 -1.232,4.725 -0.844,10.554 1.366,14.949 1.057,2.101 2.894,4.579 5.265,5.286 2.275,0.678 2.993,-2.048 2.197,-3.714 C 30.013,6.77 26.982,6.057 24.868,5.472 23.32,5.044 23.977,2.631 25.533,3.062 c 3.807,1.054 8.694,3.016 8.319,7.804 -0.137,1.746 -1.035,3.503 -2.738,4.166 -2.181,0.85 -4.409,-0.422 -6.07,-1.779 -3.407,-2.784 -5.059,-7.18 -5.647,-11.426 -0.639,-4.608 -0.396,-9.82 1.994,-13.929 2.329,-4.004 6.726,-6.356 11.293,-6.594 4.703,-0.245 9.337,1.936 12.594,5.25 1.575,1.603 3.094,3.626 2.542,6.004 -0.511,2.204 -2.55,3.693 -4.427,4.711 -4.501,2.439 -9.615,3.257 -14.327,5.16 -4.645,1.877 -8.459,5.278 -10.379,9.966 -1.885,4.604 -1.646,9.965 0.599,14.401 0.824,1.629 2.805,5.173 5.145,4.48 2.161,-0.64 1.029,-3.609 -0.25,-4.477 -3.69,-2.504 -9.709,-0.384 -12.053,3.041 -0.659,0.963 -1.178,2.134 -1.203,3.315 -0.024,1.143 0.662,2.852 2.102,2.588 2.107,-0.386 1.749,-4.347 1.401,-5.797 C 13.359,25.491 9.506,22.131 5.586,20.105 0.674,17.566 -5.152,16.556 -10.639,16.5 c -4.373,-0.045 -11.146,1.436 -11.319,7.003 -0.177,5.689 6.541,7.536 11.052,6.942 4.764,-0.627 9.1,-3.192 12.453,-6.556 C 5.231,20.192 7.71,15.48 9.365,10.567 10.22,8.031 10.874,5.431 11.401,2.808 11.596,1.834 11.925,0.7 11.713,-0.298 11.397,-1.78 9.804,-1.493 8.69,-1.181 6.077,-0.45 3.584,0.772 1.262,2.159 -0.123,2.986 -1.381,0.825 0,0"
               style="fill:#a451ff;fill-opacity:1;fill-rule:nonzero;stroke:none"
               id="path51162-4-5" /></g><g
             id="g51164-5-4"
             transform="translate(314.6753,559.6781)"><path
               d="m 0,0 c 3.325,0.263 6.485,1.677 8.791,4.116 1.858,1.965 4.058,5.518 0.74,7.257 C 7.259,12.564 2.957,12.645 1.458,10.214 -0.382,7.23 2.697,4.107 5.232,2.933 8.634,1.358 12.411,1.373 16.02,0.613 c 3.577,-0.752 6.94,-2.439 9.64,-4.911 2.716,-2.487 4.923,-5.776 5.477,-9.475 0.507,-3.38 -0.658,-7.268 -3.622,-9.213 -1.537,-1.008 -3.634,-1.433 -5.357,-0.645 -1.443,0.66 -2.198,2.207 -1.882,3.761 0.385,1.886 2.303,2.259 3.896,1.56 1.93,-0.847 3.014,-2.884 4.012,-4.624 0.799,-1.396 2.96,-0.138 2.158,1.262 -1.684,2.937 -3.896,6.145 -7.657,6.214 -3.152,0.057 -5.245,-2.68 -4.938,-5.698 0.335,-3.29 3.17,-5.382 6.384,-5.375 3.422,0.007 6.429,2.154 8.062,5.076 3.752,6.715 0.147,14.687 -5.213,19.322 C 24.249,0.228 20.985,1.97 17.477,2.844 13.814,3.755 9.772,3.536 6.311,5.18 5.255,5.681 2.003,8.022 3.989,9.284 4.817,9.81 8.062,9.921 8.702,8.949 9.095,8.352 8.023,7.084 7.651,6.608 7.062,5.858 6.362,5.173 5.594,4.606 3.962,3.402 2.022,2.66 0,2.5 -1.593,2.374 -1.607,-0.127 0,0"
               style="fill:#a451ff;fill-opacity:1;fill-rule:nonzero;stroke:none"
               id="path51166-2-6" /></g><g
             id="g51168-5-6"
             transform="translate(255.4616,521.6401)"><path
               d="M 0,0 4.157,-9.884"
               style="fill:none;stroke:#a451ff;stroke-width:5.688;stroke-linecap:butt;stroke-linejoin:miter;stroke-miterlimit:10;stroke-dasharray:none;stroke-opacity:1"
               id="path51170-9-9" /></g><g
             id="g51172-3-8"
             transform="translate(292.7783,496.0977)"><path
               d="m 0,0 c -0.964,-4.96 -0.986,-10.272 1.479,-14.827 2.108,-3.897 6.083,-6.773 10.532,-7.158 4.763,-0.412 10.003,3.062 9.177,8.313 -0.752,4.785 -6.593,6.308 -10.409,4.127 -4.24,-2.422 -5.887,-7.919 -6.279,-12.47 -0.451,-5.236 1.378,-10.114 3.613,-14.746 4.32,-8.955 10.028,-17.857 10.789,-28.025 0.369,-4.939 -0.458,-9.906 -3.289,-14.047 -2.273,-3.326 -5.945,-6.045 -10.037,-6.453 -1.344,-0.134 -2.5,-1.053 -2.5,-2.5 0,-1.248 1.148,-2.635 2.5,-2.5 7.791,0.778 13.89,6.369 16.713,13.489 3.317,8.368 1.417,17.986 -1.882,26.035 -1.741,4.249 -3.842,8.323 -5.924,12.411 -2.004,3.935 -4.337,8.039 -4.929,12.484 -0.472,3.547 0.098,8.239 2.571,11.023 0.91,1.025 2.093,1.637 3.343,1.178 0.851,-0.312 1.11,-1.227 0.43,-2.137 -1,-1.337 -3.155,-1.405 -4.622,-1.027 -1.76,0.452 -3.271,1.545 -4.425,2.931 -2.855,3.427 -2.836,8.421 -2.03,12.57 C 5.079,-0.005 4.447,1.369 3.075,1.746 1.85,2.083 0.259,1.332 0,0"
               style="fill:#a451ff;fill-opacity:1;fill-rule:nonzero;stroke:none"
               id="path51174-8-2" /></g><g
             id="g51176-8-4"
             transform="translate(432.5705,560.1683)"><path
               d="m 0,0 c -4.405,10.85 -16.772,16.074 -27.622,11.669 -10.85,-4.405 -16.074,-16.772 -11.669,-27.622 4.405,-10.85 16.772,-16.074 27.622,-11.669 C -0.819,-23.217 4.405,-10.85 0,0 m -32.057,14.511 c 16.578,8.667 36.272,-1.587 37.975,-20.393 1.663,-18.37 -16.841,-32.629 -34.173,-26.226 l -4.076,-9.329 c 0.209,-0.967 8.259,-1.955 6.012,-5.54 -1.686,-2.69 -5.656,1.003 -7.863,1.157 -0.487,-0.306 -2.074,-5.632 -2.829,-6.513 -1.51,-1.759 -4.073,-0.776 -4.069,1.552 0.002,1.098 2.983,6.36 2.661,6.872 -1.868,1.286 -7.08,1.713 -6.507,4.792 0.78,4.182 7.598,-1.071 8.418,-0.555 l 4.109,9.329 c -12.661,7.444 -16.855,23.808 -8.873,36.197 2.192,3.403 5.601,6.767 9.215,8.657"
               style="fill:#ff6c71;fill-opacity:1;fill-rule:nonzero;stroke:none"
               id="path51178-4-3" /></g><g
             id="g51180-3-1"
             transform="translate(187.8345,566.1238)"
             style="fill:#ffffff;fill-opacity:1;stroke:none;stroke-opacity:1"><path
               d="m 0,0 c 11.58,1.741 22.379,-6.235 24.12,-17.815 1.741,-11.58 -6.235,-22.379 -17.815,-24.12 -11.58,-1.741 -22.379,6.235 -24.12,17.815 C -19.556,-12.54 -11.58,-1.741 0,0 m -22.19,-17.015 c -2.75,-18.682 13.994,-33.264 32.141,-28.721 3.957,0.99 8.058,3.462 10.986,6.256 10.663,10.175 10.419,27.066 -0.146,37.269 l 5.657,7.423 3.642,4.998 c 0.164,0.258 0.392,0.573 0.656,0.92 0.17,-1.896 0.397,-4.418 0.701,-7.783 0.099,-1.1 1.069,-1.909 2.172,-1.812 1.1,0.1 1.912,1.072 1.812,2.172 -0.448,4.961 -1.119,12.41 -1.172,13.058 -0.037,0.712 -0.466,1.338 -1.106,1.662 -0.171,0.104 -0.356,0.19 -0.559,0.239 -0.043,0.01 -0.086,0.019 -0.129,0.026 -0.345,0.061 -0.345,0.061 -13.681,-2.005 -1.091,-0.169 -1.839,-1.192 -1.67,-2.283 0.168,-1.09 1.188,-1.839 2.283,-1.67 2.343,0.363 5.241,0.811 7.709,1.193 C 23.164,8.713 17.175,0.476 17.175,0.476 1.826,10.761 -19.504,1.233 -22.19,-17.015"
               style="fill:#ffffff;fill-opacity:1;fill-rule:nonzero;stroke:none;stroke-opacity:1"
               id="path51182-5-9" /></g><g
             id="g51184-0-6"
             transform="translate(447.0656,132.9826)"><path
               d="m 0,0 h -284.676 c -24.266,0 -43.937,19.671 -43.937,43.937 V 243.99 c 0,24.266 19.671,43.937 43.937,43.937 H 0 c 24.266,0 43.937,-19.671 43.937,-43.937 V 43.937 C 43.937,19.671 24.266,0 0,0"
               style="fill:#a451ff;fill-opacity:1;fill-rule:nonzero;stroke:none"
               id="path51186-5-7" /></g><g
             id="g51188-9-9"
             transform="translate(439.7686,369.3997)"
             style="fill:#000000;fill-opacity:1"><path
               d="m 0,0 h -270.082 c -10.055,0 -18.206,8.151 -18.206,18.206 v 0.578 c 0,10.055 8.151,18.207 18.206,18.207 H 0 c 10.055,0 18.206,-8.152 18.206,-18.207 V 18.206 C 18.206,8.151 10.055,0 0,0"
               style="fill:#000000;fill-opacity:1;fill-rule:nonzero;stroke:none"
               id="path51190-3-5" /></g></g></g><path
         d="m 15.532364,-51.14503 v 44.7470836 h 9.40421 q 11.909431,0 17.420915,-5.3958586 5.550026,-5.395858 5.550026,-17.035496 0,-11.562554 -5.550026,-16.91987 -5.511484,-5.395859 -17.420915,-5.395859 z m -7.785453,-6.397946 h 15.994866 q 16.727161,0 24.551156,6.976074 7.823995,6.937532 7.823995,21.737601 0,14.877153 -7.862537,21.8532269 Q 40.391855,0 23.741777,0 H 7.746911 Z m 55.655658,14.376109 h 7.0917 V 0 h -7.0917 z m 0,-16.804245 h 7.0917 v 8.98025 h -7.0917 z m 65.183821,6.860448 v 8.209413 q -3.93127,-3.661475 -8.40212,-5.472942 -4.43232,-1.811466 -9.44276,-1.811466 -9.86671,0 -15.108399,6.051069 -5.241691,6.012528 -5.241691,17.420915 0,11.369844 5.241691,17.420914 5.241689,6.0125281 15.108399,6.0125281 5.01044,0 9.44276,-1.8114668 4.47085,-1.8114667 8.40212,-5.4729423 v 8.1323297 q -4.08544,2.7750129 -8.67192,4.16251938 -4.54793,1.38750642 -9.63546,1.38750642 -13.065683,0 -20.581343,-7.9781621 -7.51566,-8.0167044 -7.51566,-21.8532264 0,-13.875065 7.51566,-21.853227 7.51566,-8.016704 20.581343,-8.016704 5.16461,0 9.71255,1.387507 4.58648,1.348964 8.59483,4.085435 z m 25.10954,14.915695 q -5.70419,0 -9.01879,4.470854 -3.3146,4.432312 -3.3146,12.179223 0,7.746911 3.27606,12.2177653 3.3146,4.4323123 9.05733,4.4323123 5.66566,0 8.98025,-4.4708542 3.3146,-4.4708544 3.3146,-12.1792234 0,-7.669827 -3.3146,-12.140681 -3.31459,-4.509396 -8.98025,-4.509396 z m 0,-6.012528 q 9.25005,0 14.53028,6.012528 5.28023,6.012528 5.28023,16.650077 0,10.599008 -5.28023,16.6500776 -5.28023,6.0125279 -14.53028,6.0125279 -9.28858,0 -14.56881,-6.0125279 -5.24169,-6.0510696 -5.24169,-16.6500776 0,-10.637549 5.24169,-16.650077 5.28023,-6.012528 14.56881,-6.012528 z m 27.62619,-13.335479 h 11.6011 l 14.68444,39.158515 14.76153,-39.158515 h 11.60109 V 0 h -7.59274 v -50.52836 l -14.83861,39.46685 h -7.824 L 188.87632,-50.52836 V 0 h -7.5542 z m 73.09261,0 h 7.78545 v 23.58761 h 28.28972 v -23.58761 h 7.78545 V 0 H 290.4899 V -27.403252 H 262.20018 V 0 h -7.78545 z"
         id="text51194-4-2"
         style="font-weight:500;font-size:78.9337px;font-family:'Acherus Grotesque';-inkscape-font-specification:'Acherus Grotesque Medium';fill:#ffffff"
         transform="matrix(1,0,0,-1,151.4805,288.5918)"
         aria-label="DiCoMH" /><g
         id="g51196-2-3"><g
           id="g51198-5-1"
           clip-path="url(#clipPath51202-5-7)"><g
             id="g51204-3-2"
             transform="translate(139.2601,265.9121)"><path
               d="M 0,0 H 330.935"
               style="fill:none;stroke:#00340d;stroke-width:1;stroke-linecap:butt;stroke-linejoin:miter;stroke-miterlimit:10;stroke-dasharray:none;stroke-opacity:1"
               id="path51206-2-4" /></g><g
             id="g51208-0-8"
             transform="translate(139.2601,198.5361)"><path
               d="M 0,0 H 330.935"
               style="fill:none;stroke:#00340d;stroke-width:1;stroke-linecap:butt;stroke-linejoin:miter;stroke-miterlimit:10;stroke-dasharray:none;stroke-opacity:1"
               id="path51210-0-7" /></g></g></g><path
         d="m 1.5733647,-11.686734 h 6.7161539 v 1.330706 H 3.1545571 v 3.444182 h 4.6339897 v 1.3307064 H 3.1545571 V 0 H 1.5733647 Z M 15.03354,-4.4069868 q -1.745574,0 -2.418755,0.399212 -0.673181,0.3992119 -0.673181,1.3620172 0,0.7671131 0.500972,1.2211189 0.508799,0.44617805 1.377672,0.44617805 1.197636,0 1.917783,-0.84539005 0.727975,-0.8532176 0.727975,-2.262201 V -4.4069868 Z M 17.9063,-5.0018909 V 0 h -1.440294 v -1.3307065 q -0.493144,0.79842391 -1.228947,1.18198048 -0.735802,0.37572889 -1.800367,0.37572889 -1.346362,0 -2.144786,-0.75145778 -0.790596,-0.75928549 -0.790596,-2.02737049 0,-1.4794325 0.986288,-2.2308903 0.994116,-0.7514577 2.958865,-0.7514577 h 2.019543 v -0.1408984 q 0,-0.994116 -0.657526,-1.5342263 -0.649697,-0.5479379 -1.831678,-0.5479379 -0.751458,0 -1.463777,0.1800367 -0.712319,0.1800368 -1.369845,0.5401103 v -1.3307065 q 0.790596,-0.3052797 1.534226,-0.4540057 0.74363,-0.1565537 1.448122,-0.1565537 1.902128,0 2.84145,0.9862883 0.939322,0.9862883 0.939322,2.9901757 z m 8.573758,-3.4285261 v 1.3463619 q -0.61056,-0.3365905 -1.228947,-0.5009719 -0.610559,-0.172209 -1.236774,-0.172209 -1.401156,0 -2.176097,0.8923561 -0.774941,0.8845284 -0.774941,2.4892039 0,1.6046754 0.774941,2.4970315 0.774941,0.88452848 2.176097,0.88452848 0.626215,0 1.236774,-0.16438138 0.618387,-0.1722091 1.228947,-0.5087996 v 1.33070654 q -0.602732,0.28179666 -1.25243,0.422695 -0.64187,0.14089833 -1.369845,0.14089833 -1.980404,0 -3.146729,-1.24460197 -1.166325,-1.2446019 -1.166325,-3.3580769 0,-2.1447858 1.174152,-3.3737324 1.181981,-1.2289465 3.232834,-1.2289465 0.665354,0 1.299396,0.1408983 0.634043,0.1330706 1.228947,0.4070396 z m 2.166892,4.9705801 v -5.3071705 h 1.440294 v 5.2523767 q 0,1.244602 0.485317,1.8708168 0.485316,0.6183871 1.455949,0.6183871 1.166325,0 1.839506,-0.7436301 0.681009,-0.7436301 0.681009,-2.0273704 v -4.9705801 h 1.440294 V 0 h -1.440294 v -1.3463619 q -0.524455,0.79842393 -1.221119,1.1898082 -0.688836,0.38355657 -1.604675,0.38355657 -1.510744,0 -2.293512,-0.93932222 Q 28.64695,-1.6516416 28.64695,-3.4598369 Z m 3.624219,-5.518518 z m 6.20729,-3.2015231 h 1.440295 V 0 h -1.440295 z m 5.911745,0.923667 v 2.4892036 h 2.966693 v 1.1193589 h -2.966693 v 4.7592327 q 0,1.0723928 0.289625,1.3776726 0.297452,0.3052797 1.197636,0.3052797 h 1.479432 V 0 H 45.877465 Q 44.210168,0 43.576125,-0.61838713 42.942083,-1.2446019 42.942083,-2.8884158 v -4.7592327 h -1.056738 v -1.1193589 h 1.056738 v -2.4892036 z m 9.518752,6.8492242 q -1.745573,0 -2.418754,0.399212 -0.673181,0.3992119 -0.673181,1.3620172 0,0.7671131 0.500972,1.2211189 0.508799,0.44617805 1.377672,0.44617805 1.197636,0 1.917783,-0.84539005 0.727975,-0.8532176 0.727975,-2.262201 v -0.3209351 z m 2.872761,-0.5949041 V 0 h -1.440294 v -1.3307065 q -0.493144,0.79842391 -1.228947,1.18198048 -0.735802,0.37572889 -1.800367,0.37572889 -1.346362,0 -2.144786,-0.75145778 -0.790596,-0.75928549 -0.790596,-2.02737049 0,-1.4794325 0.986288,-2.2308903 0.994116,-0.7514577 2.958865,-0.7514577 h 2.019543 v -0.1408984 q 0,-0.994116 -0.657526,-1.5342263 -0.649698,-0.5479379 -1.831678,-0.5479379 -0.751458,0 -1.463777,0.1800367 -0.71232,0.1800368 -1.369845,0.5401103 v -1.3307065 q 0.790596,-0.3052797 1.534226,-0.4540057 0.74363,-0.1565537 1.448122,-0.1565537 1.902127,0 2.84145,0.9862883 0.939322,0.9862883 0.939322,2.9901757 z m 8.033648,-2.4344101 v -4.743577 h 1.440294 V 0 h -1.440294 v -1.3150511 q -0.454006,0.78276851 -1.15067,1.16632508 -0.688836,0.37572889 -1.659469,0.37572889 -1.58902,0 -2.590964,-1.26808497 -0.994116,-1.268085 -0.994116,-3.3345939 0,-2.0665089 0.994116,-3.3345939 1.001944,-1.268085 2.590964,-1.268085 0.970633,0 1.659469,0.3835565 0.696664,0.3757289 1.15067,1.1584974 z m -4.907959,3.060625 q 0,1.5890201 0.649698,2.4970315 0.657526,0.90018385 1.800368,0.90018385 1.142842,0 1.800368,-0.90018385 0.657525,-0.9080114 0.657525,-2.4970315 0,-1.5890201 -0.657525,-2.4892039 -0.657526,-0.9080115 -1.800368,-0.9080115 -1.142842,0 -1.800368,0.9080115 -0.649698,0.9001838 -0.649698,2.4892039 z M 79.03495,-7.436301 v -4.743577 h 1.440295 V 0 H 79.03495 v -1.3150511 q -0.454005,0.78276851 -1.150669,1.16632508 -0.688837,0.37572889 -1.659469,0.37572889 -1.589021,0 -2.590964,-1.26808497 -0.994116,-1.268085 -0.994116,-3.3345939 0,-2.0665089 0.994116,-3.3345939 1.001943,-1.268085 2.590964,-1.268085 0.970632,0 1.659469,0.3835565 0.696664,0.3757289 1.150669,1.1584974 z m -4.907958,3.060625 q 0,1.5890201 0.649698,2.4970315 0.657525,0.90018385 1.800367,0.90018385 1.142842,0 1.800368,-0.90018385 0.657525,-0.9080114 0.657525,-2.4970315 0,-1.5890201 -0.657525,-2.4892039 -0.657526,-0.9080115 -1.800368,-0.9080115 -1.142842,0 -1.800367,0.9080115 -0.649698,0.9001838 -0.649698,2.4892039 z m 16.801596,-0.3679012 v 0.7044916 h -6.622222 q 0.09393,1.4872602 0.892357,2.2700287 0.806251,0.77494088 2.238718,0.77494088 0.829734,0 1.604675,-0.20351978 0.782768,-0.2035199 1.549882,-0.6105595 v 1.36201724 q -0.774941,0.32876278 -1.58902,0.50097186 -0.81408,0.17220907 -1.651642,0.17220907 -2.09782,0 -3.326766,-1.22111889 -1.221119,-1.22111888 -1.221119,-3.30328318 0,-2.1526134 1.158497,-3.4128707 1.166325,-1.268085 3.138902,-1.268085 1.769057,0 2.794484,1.142842 1.033254,1.1350144 1.033254,3.0919357 z m -1.440294,-0.422695 q -0.01565,-1.1819805 -0.665353,-1.8864722 -0.64187,-0.7044916 -1.706436,-0.7044916 -1.205463,0 -1.933438,0.6810086 -0.720147,0.6810086 -0.829734,1.9177828 z m 9.21162,-5.2210658 v 4.3913311 h 1.988236 q 1.1037,0 1.70643,-0.571421 0.60273,-0.571421 0.60273,-1.6281585 0,-1.0489098 -0.60273,-1.6203309 -0.60273,-0.5714207 -1.70643,-0.5714207 z m -1.581193,-1.299396 h 3.569429 q 1.96474,0 2.96669,0.892356 1.00977,0.8845285 1.00977,2.5987916 0,1.7299184 -1.00977,2.6144468 -1.00195,0.8845285 -2.96669,0.8845285 H 98.699914 V 0 h -1.581193 z m 15.305319,3.1780402 v 1.3620172 q -0.61056,-0.3131074 -1.26808,-0.4696611 -0.65753,-0.1565537 -1.36202,-0.1565537 -1.07239,0 -1.6125,0.3287628 -0.53228,0.3287627 -0.53228,0.9862883 0,0.5009719 0.38355,0.7905962 0.38356,0.2817967 1.54206,0.5401103 l 0.49314,0.1095876 q 1.53423,0.3287628 2.1761,0.9314945 0.64969,0.5949041 0.64969,1.667297 0,1.2211189 -0.97063,1.93343822 -0.9628,0.71231935 -2.65358,0.71231935 -0.7045,0 -1.47161,-0.14089833 -0.75928,-0.13307065 -1.60467,-0.40703963 V -1.8081953 q 0.79842,0.4148673 1.57336,0.6262148 0.77494,0.20351985 1.53423,0.20351985 1.0176,0 1.56553,-0.34441815 0.54794,-0.3522458 0.54794,-0.9862883 0,-0.5870764 -0.39921,-0.9001838 -0.39138,-0.3131074 -1.72992,-0.6027318 l -0.50097,-0.1174153 q -1.33853,-0.2817966 -1.93344,-0.8610454 -0.5949,-0.5870763 -0.5949,-1.6046754 0,-1.2367743 0.8767,-1.9099552 0.8767,-0.6731809 2.4892,-0.6731809 0.79843,0 1.50292,0.1174152 0.70449,0.1174153 1.29939,0.3522459 z m 2.57086,-0.2583136 h 1.44029 V 0 h -1.44029 z m 0,-3.4128706 h 1.44029 v 1.82385 h -1.44029 z m 11.32685,3.749461 v 1.3463619 q -0.61056,-0.3365905 -1.22895,-0.5009719 -0.61056,-0.172209 -1.23677,-0.172209 -1.40116,0 -2.1761,0.8923561 -0.77494,0.8845284 -0.77494,2.4892039 0,1.6046754 0.77494,2.4970315 0.77494,0.88452848 2.1761,0.88452848 0.62621,0 1.23677,-0.16438138 0.61839,-0.1722091 1.22895,-0.5087996 v 1.33070654 q -0.60273,0.28179666 -1.25243,0.422695 -0.64187,0.14089833 -1.36984,0.14089833 -1.98041,0 -3.14673,-1.24460197 -1.16633,-1.2446019 -1.16633,-3.3580769 0,-2.1447858 1.17415,-3.3737324 1.18198,-1.2289465 3.23284,-1.2289465 0.66535,0 1.29939,0.1408983 0.63405,0.1330706 1.22895,0.4070396 z m 5.71284,0.673181 q -1.1585,0 -1.83168,0.9080114 -0.67318,0.9001838 -0.67318,2.4735486 0,1.5733647 0.66536,2.4813762 0.67318,0.90018378 1.8395,0.90018378 1.15067,0 1.82385,-0.90801148 0.67318,-0.9080115 0.67318,-2.4735485 0,-1.5577094 -0.67318,-2.4657209 -0.67318,-0.9158391 -1.82385,-0.9158391 z m 0,-1.2211189 q 1.87865,0 2.95104,1.2211189 1.07239,1.2211188 1.07239,3.38156 0,2.1526134 -1.07239,3.38155998 -1.07239,1.22111889 -2.95104,1.22111889 -1.88647,0 -2.95886,-1.22111889 -1.06457,-1.22894658 -1.06457,-3.38155998 0,-2.1604412 1.06457,-3.38156 1.07239,-1.2211189 2.95886,-1.2211189 z m 6.54206,-3.2015231 h 1.44029 V 0 h -1.44029 z m 7.96607,4.422642 q -1.15849,0 -1.83167,0.9080114 -0.67319,0.9001838 -0.67319,2.4735486 0,1.5733647 0.66536,2.4813762 0.67318,0.90018378 1.8395,0.90018378 1.15067,0 1.82385,-0.90801148 0.67319,-0.9080115 0.67319,-2.4735485 0,-1.5577094 -0.67319,-2.4657209 -0.67318,-0.9158391 -1.82385,-0.9158391 z m 0,-1.2211189 q 1.87865,0 2.95104,1.2211189 1.07239,1.2211188 1.07239,3.38156 0,2.1526134 -1.07239,3.38155998 -1.07239,1.22111889 -2.95104,1.22111889 -1.88647,0 -2.95886,-1.22111889 -1.06457,-1.22894658 -1.06457,-3.38155998 0,-2.1604412 1.06457,-3.38156 1.07239,-1.2211189 2.95886,-1.2211189 z m 12.31108,4.4930913 q 0,-1.5655371 -0.6497,-2.4265824 -0.64187,-0.8610454 -1.8082,-0.8610454 -1.15849,0 -1.80819,0.8610454 -0.64187,0.8610453 -0.64187,2.4265824 0,1.5577093 0.64187,2.4187547 0.6497,0.8610454 1.80819,0.8610454 1.16633,0 1.8082,-0.8610454 0.6497,-0.8610454 0.6497,-2.4187547 z m 1.44029,3.3972154 q 0,2.2387179 -0.99411,3.3267662 -0.99412,1.0958759 -3.04497,1.0958759 -0.75929,0 -1.43247,-0.1174153 -0.67318,-0.1095876 -1.30722,-0.3444181 V 1.4716048 q 0.63404,0.3444182 1.25243,0.5087996 0.61838,0.1643813 1.26025,0.1643813 1.41681,0 2.12131,-0.74363 0.70449,-0.73580246 0.70449,-2.23089033 V -1.542054 q -0.44618,0.77494085 -1.14284,1.15849742 Q 157.01429,0 156.04366,0 q -1.6125,0 -2.59879,-1.2289466 -0.98629,-1.2289466 -0.98629,-3.256317 0,-2.0351982 0.98629,-3.2641448 0.98629,-1.2289465 2.59879,-1.2289465 0.97063,0 1.6673,0.3835565 0.69666,0.3835566 1.14284,1.1584974 v -1.3307064 h 1.44029 z m 4.76261,-11.7336998 h 1.55771 l -2.55183,2.9432093 h -1.19763 z m -1.80819,4.0547406 h 1.44029 V 0 h -1.44029 z m 0.72014,-0.2113475 z m 7.94524,4.5713681 q -1.74558,0 -2.41876,0.399212 -0.67318,0.3992119 -0.67318,1.3620172 0,0.7671131 0.50097,1.2211189 0.5088,0.44617805 1.37768,0.44617805 1.19763,0 1.91778,-0.84539005 0.72798,-0.8532176 0.72798,-2.262201 v -0.3209351 z m 2.87276,-0.5949041 V 0 h -1.44029 v -1.3307065 q -0.49315,0.79842391 -1.22895,1.18198048 -0.7358,0.37572889 -1.80037,0.37572889 -1.34636,0 -2.14478,-0.75145778 -0.7906,-0.75928549 -0.7906,-2.02737049 0,-1.4794325 0.98629,-2.2308903 0.99411,-0.7514577 2.95886,-0.7514577 h 2.01955 v -0.1408984 q 0,-0.994116 -0.65753,-1.5342263 -0.6497,-0.5479379 -1.83168,-0.5479379 -0.75146,0 -1.46378,0.1800367 -0.71232,0.1800368 -1.36984,0.5401103 v -1.3307065 q 0.7906,-0.3052797 1.53423,-0.4540057 0.74363,-0.1565537 1.44812,-0.1565537 1.90212,0 2.84145,0.9862883 0.93932,0.9862883 0.93932,2.9901757 z"
         id="text51214-0-5"
         style="font-weight:500;font-size:16.0311px;font-family:'Acherus Grotesque';-inkscape-font-specification:AcherusGrotesque-Medium;fill:#ffffff"
         transform="matrix(1,0,0,-1,216.9541,170.1963)"
         aria-label="Facultad de Psicología" /><g
         id="g51216-8-9"><g
           id="g51218-0-5"
           clip-path="url(#clipPath51222-8-0)"><g
             id="g51224-9-5"
             transform="translate(307.041,226.4563)"><path
               d="m 0,0 v 8.321 h 2.316 c 0.626,0 1.175,-0.07 1.625,-0.166 C 4.397,8.044 4.803,7.883 5.122,7.659 5.659,7.301 6.076,6.798 6.381,6.186 6.693,5.572 6.834,4.894 6.834,4.153 6.834,3.425 6.693,2.75 6.381,2.116 6.076,1.502 5.659,1.017 5.122,0.644 4.803,0.42 4.397,0.259 3.941,0.145 3.491,0.049 2.942,0 2.316,0 Z m 4.364,-0.464 c 0.54,0.143 1.002,0.367 1.403,0.677 0.605,0.452 1.067,1.014 1.404,1.709 0.342,0.694 0.504,1.457 0.504,2.246 0,0.792 -0.162,1.537 -0.504,2.246 C 6.834,7.107 6.372,7.673 5.767,8.124 5.366,8.432 4.904,8.658 4.38,8.801 3.861,8.929 3.249,9.012 2.506,9.012 h -3.309 v -9.703 h 3.309 c 0.728,0 1.344,0.081 1.858,0.227 m -13.876,3.633 1.767,4.196 1.743,-4.196 z m 1.603,5.474 -3.99,-9.334 h 0.775 l 1.359,3.228 h 4.015 l 1.364,-3.228 h 0.775 l -3.99,9.334 z M -21.021,0 v 8.321 h 2.309 c 0.627,0 1.174,-0.07 1.625,-0.166 0.46,-0.111 0.86,-0.272 1.183,-0.496 0.535,-0.358 0.952,-0.861 1.265,-1.473 0.301,-0.614 0.446,-1.292 0.446,-2.033 0,-0.728 -0.145,-1.403 -0.446,-2.037 -0.313,-0.614 -0.73,-1.099 -1.265,-1.472 C -16.227,0.42 -16.627,0.259 -17.087,0.145 -17.538,0.049 -18.085,0 -18.712,0 Z m 4.358,-0.464 c 0.533,0.143 0.985,0.367 1.408,0.677 0.599,0.452 1.062,1.014 1.404,1.709 0.337,0.694 0.496,1.457 0.496,2.246 0,0.792 -0.159,1.537 -0.496,2.246 -0.342,0.693 -0.805,1.259 -1.404,1.71 -0.423,0.308 -0.875,0.534 -1.396,0.677 -0.512,0.128 -1.125,0.211 -1.867,0.211 h -3.326 v -9.703 h 3.326 c 0.725,0 1.338,0.081 1.855,0.227 m -8.771,9.476 h -0.817 v -9.704 h 0.817 z m -3.909,-7.183 c 0,0.32 -0.059,0.625 -0.154,0.921 -0.117,0.288 -0.273,0.548 -0.472,0.771 -0.307,0.34 -0.907,0.693 -1.777,1.05 -0.096,0.048 -0.159,0.068 -0.206,0.101 -0.795,0.337 -1.308,0.625 -1.537,0.9 -0.242,0.256 -0.357,0.614 -0.357,1.034 0,0.52 0.174,0.955 0.548,1.309 0.371,0.336 0.84,0.517 1.418,0.517 0.356,0 0.716,-0.064 1.07,-0.192 0.376,-0.129 0.744,-0.344 1.147,-0.615 v 0.869 c -0.371,0.212 -0.726,0.373 -1.081,0.486 -0.357,0.092 -0.725,0.163 -1.098,0.163 -0.827,0 -1.488,-0.243 -2.004,-0.727 -0.519,-0.485 -0.775,-1.101 -0.775,-1.838 0,-0.615 0.161,-1.119 0.503,-1.508 0.338,-0.386 0.965,-0.774 1.888,-1.156 0.889,-0.377 1.454,-0.698 1.699,-0.972 0.255,-0.292 0.365,-0.649 0.365,-1.086 0,-0.597 -0.172,-1.061 -0.547,-1.415 -0.352,-0.341 -0.856,-0.52 -1.484,-0.52 -0.372,0 -0.779,0.098 -1.166,0.261 -0.417,0.172 -0.838,0.433 -1.289,0.79 V 0.037 c 0.42,-0.296 0.822,-0.501 1.229,-0.647 0.415,-0.142 0.822,-0.21 1.242,-0.21 0.828,0 1.5,0.236 2.035,0.741 0.532,0.499 0.803,1.131 0.803,1.908 m -13.752,6.519 h 1.611 c 0.725,0 1.275,-0.142 1.68,-0.465 0.386,-0.309 0.578,-0.743 0.578,-1.305 0,-0.408 -0.077,-0.759 -0.254,-1.04 -0.179,-0.292 -0.44,-0.499 -0.795,-0.654 -0.191,-0.085 -0.419,-0.15 -0.707,-0.2 -0.299,-0.027 -0.798,-0.045 -1.516,-0.045 h -0.597 z m 0,-4.373 h 0.779 c 0.556,0 0.967,-0.048 1.236,-0.114 0.276,-0.06 0.5,-0.196 0.682,-0.37 0.123,-0.131 0.287,-0.341 0.511,-0.648 0.212,-0.291 0.485,-0.677 0.776,-1.15 l 1.534,-2.384 h 0.87 l -2.647,4.082 c -0.113,0.178 -0.245,0.342 -0.369,0.47 -0.146,0.13 -0.31,0.243 -0.486,0.353 0.61,0.196 1.07,0.49 1.374,0.892 0.307,0.39 0.451,0.889 0.451,1.472 0,0.787 -0.26,1.386 -0.805,1.805 -0.555,0.418 -1.326,0.629 -2.341,0.629 h -2.329 v -9.703 h 0.764 z m -4.187,-4.003 h -4.538 v 3.942 h 4.278 v 0.622 h -4.278 v 3.847 h 4.427 v 0.629 h -5.202 v -9.703 h 5.313 z m -11.69,-0.825 4.072,9.865 h -0.825 l -3.313,-8.141 -3.273,8.141 h -0.861 l 4.084,-9.865 z m -7.801,0.162 h 0.825 v 9.703 h -0.825 z m -11.336,8.717 7.103,-8.573 h 0.712 v 9.69 h -0.763 V 0.7 l -7.022,8.443 h -0.805 v -9.69 h 0.775 z m -8.773,-9.576 c 1.389,0 2.491,0.441 3.304,1.308 0.799,0.872 1.221,2.053 1.221,3.523 v 6.412 h -0.924 V 3.231 c 0,-1.177 -0.324,-2.114 -0.961,-2.811 -0.666,-0.692 -1.539,-1.05 -2.64,-1.05 -1.096,0 -1.97,0.358 -2.615,1.05 -0.662,0.697 -0.988,1.634 -0.988,2.811 v 6.462 h -0.882 V 3.281 c 0,-1.485 0.399,-2.666 1.208,-3.523 0.808,-0.867 1.907,-1.308 3.277,-1.308 M 68.244,4.944 C 67.971,4.31 67.601,3.745 67.097,3.257 66.582,2.759 65.998,2.367 65.37,2.13 64.708,1.876 64.03,1.742 63.285,1.742 c -0.725,0 -1.404,0.134 -2.069,0.388 -0.658,0.274 -1.224,0.648 -1.72,1.127 -0.504,0.488 -0.893,1.053 -1.15,1.687 -0.275,0.624 -0.403,1.274 -0.403,1.982 0,0.693 0.128,1.358 0.403,2.005 0.276,0.628 0.646,1.176 1.15,1.662 0.526,0.487 1.114,0.871 1.768,1.145 0.647,0.262 1.326,0.39 2.021,0.39 0.729,0 1.406,-0.128 2.05,-0.39 0.65,-0.256 1.228,-0.644 1.733,-1.145 0.533,-0.517 0.919,-1.081 1.191,-1.711 0.257,-0.613 0.387,-1.263 0.387,-1.956 0,-0.708 -0.13,-1.358 -0.402,-1.982 m 1.002,7.622 c -0.791,0.753 -1.696,1.319 -2.71,1.724 -1.037,0.388 -2.114,0.596 -3.251,0.596 -1.113,0 -2.174,-0.208 -3.195,-0.596 C 59.072,13.903 58.15,13.319 57.363,12.566 56.571,11.837 55.958,10.98 55.52,10.008 55.1,9.042 54.876,8.025 54.876,6.992 c 0,-1.083 0.208,-2.132 0.628,-3.102 0.418,-0.968 1.035,-1.841 1.859,-2.615 0.771,-0.727 1.678,-1.311 2.712,-1.711 1.016,-0.388 2.097,-0.595 3.21,-0.595 1.137,0 2.214,0.192 3.232,0.58 1.02,0.398 1.92,0.965 2.746,1.726 0.794,0.743 1.391,1.603 1.825,2.55 0.423,0.968 0.629,1.988 0.629,3.041 0,1.11 -0.206,2.144 -0.614,3.094 -0.424,0.973 -1.046,1.846 -1.857,2.606 M 119.549,1.837 V 5.67 h 7.364 v 2.677 h -7.364 v 3.681 h 7.593 v 2.664 H 116.436 V -0.824 h 10.951 v 2.661 z m -7.833,3.329 c -0.014,-0.999 -0.332,-1.743 -1.048,-2.336 -0.691,-0.585 -1.63,-0.913 -2.857,-0.913 -0.727,0 -1.353,0.132 -1.889,0.357 -0.551,0.228 -1.017,0.584 -1.424,1.051 -0.202,0.242 -0.354,0.531 -0.43,0.873 -0.095,0.337 -0.149,0.985 -0.149,1.922 v 8.641 h -2.891 V 6.036 c 0,-1.193 0.081,-2.081 0.262,-2.711 0.176,-0.618 0.462,-1.181 0.883,-1.678 0.666,-0.826 1.472,-1.438 2.44,-1.872 0.956,-0.42 2.034,-0.633 3.198,-0.633 1.964,0 3.616,0.548 4.878,1.646 1.278,1.088 1.923,2.568 1.9,4.314 v 9.659 h -2.873 z M 96.299,4.954 C 96.022,4.31 95.651,3.729 95.15,3.244 L 95.133,3.229 C 94.617,2.693 94.034,2.311 93.406,2.034 92.758,1.775 92.083,1.635 91.373,1.635 c -0.712,0 -1.379,0.14 -2.038,0.414 -0.661,0.289 -1.226,0.677 -1.732,1.18 v 0.015 c -0.496,0.485 -0.879,1.066 -1.138,1.71 -0.28,0.649 -0.405,1.323 -0.405,2.038 0,0.724 0.125,1.404 0.405,2.062 0.259,0.648 0.642,1.214 1.129,1.704 0.532,0.515 1.108,0.9 1.761,1.174 0.663,0.278 1.323,0.403 2.018,0.403 0.71,0 1.385,-0.125 2.033,-0.403 0.643,-0.257 1.211,-0.646 1.718,-1.16 0.527,-0.535 0.912,-1.112 1.175,-1.762 0.273,-0.629 0.402,-1.294 0.402,-2.018 0,-0.715 -0.129,-1.389 -0.402,-2.038 m 1.71,-3.227 c 1.166,1.39 1.747,3.032 1.747,4.888 0,1.135 -0.215,2.204 -0.617,3.189 -0.416,0.968 -1.032,1.854 -1.842,2.644 -0.774,0.76 -1.681,1.36 -2.696,1.762 -1.035,0.404 -2.095,0.611 -3.228,0.611 -1.115,0 -2.182,-0.207 -3.196,-0.611 -1.007,-0.402 -1.91,-0.985 -2.72,-1.762 -0.772,-0.756 -1.386,-1.629 -1.8,-2.613 -0.443,-1.004 -0.654,-2.016 -0.654,-3.072 0,-1.92 0.585,-3.629 1.734,-5.073 1.129,-1.432 2.64,-2.385 4.485,-2.851 1.376,-0.974 2.666,-1.717 3.891,-2.228 1.266,-0.534 2.415,-0.792 3.459,-0.792 h 0.305 c 0.099,0 0.179,0.009 0.255,0.025 l 0.124,0.017 2.301,2.022 -0.175,0.486 -0.127,0.305 -0.303,-0.066 c -0.3,-0.064 -0.552,-0.097 -0.798,-0.123 -0.228,-0.041 -0.433,-0.041 -0.634,-0.041 -0.595,0 -1.221,0.088 -1.883,0.246 -0.406,0.116 -0.874,0.279 -1.369,0.471 1.513,0.562 2.788,1.404 3.741,2.566 M 78.465,8.298 v 0 L 78.132,8.48 c -0.89,0.516 -1.539,0.985 -1.958,1.388 -0.213,0.208 -0.354,0.385 -0.434,0.543 -0.102,0.16 -0.128,0.279 -0.128,0.373 0.013,0.391 0.139,0.652 0.496,0.908 0.359,0.258 0.824,0.402 1.455,0.402 0.535,0 1.053,-0.094 1.58,-0.305 0.537,-0.227 1.132,-0.568 1.779,-1.07 l 0.627,-0.466 v 3.345 l -0.188,0.114 c -0.613,0.335 -1.229,0.594 -1.845,0.771 -0.613,0.163 -1.225,0.262 -1.86,0.262 -1.397,0 -2.597,-0.391 -3.531,-1.166 -0.922,-0.774 -1.406,-1.823 -1.406,-3.032 0,-0.877 0.244,-1.65 0.742,-2.295 0.277,-0.342 0.682,-0.694 1.23,-1.098 0.564,-0.425 1.287,-0.89 2.162,-1.428 0.552,-0.314 0.994,-0.609 1.339,-0.853 0.343,-0.243 0.585,-0.451 0.7,-0.579 0.236,-0.29 0.329,-0.58 0.353,-0.969 C 79.221,2.858 79.079,2.566 78.726,2.293 78.387,2.034 77.87,1.876 77.162,1.876 c -0.662,0 -1.277,0.142 -1.86,0.447 -0.575,0.294 -1.209,0.811 -1.889,1.515 L 72.736,4.573 V 0.692 l 0.166,-0.11 c 0.64,-0.5 1.315,-0.873 2.032,-1.098 0.723,-0.251 1.515,-0.361 2.366,-0.361 1.406,0 2.605,0.392 3.527,1.164 0.932,0.777 1.417,1.812 1.417,3.007 0,1.016 -0.24,1.908 -0.755,2.632 -0.518,0.742 -1.518,1.503 -3.024,2.372 M 50.174,2.515 C 49.773,2.208 49.029,1.998 47.948,2.018 h -2.69 v 4.2 h 2.312 c 1.215,0 2.054,-0.208 2.517,-0.548 0.459,-0.348 0.701,-0.81 0.701,-1.602 0,-0.774 -0.206,-1.238 -0.614,-1.553 m -4.916,10.593 h 1.816 c 0.952,0 1.577,-0.172 1.919,-0.45 0.167,-0.147 0.29,-0.303 0.388,-0.547 0.081,-0.228 0.131,-0.52 0.131,-0.873 0,-0.777 -0.229,-1.26 -0.697,-1.615 -0.449,-0.336 -1.245,-0.55 -2.386,-0.55 h -1.171 z m 5.737,-4.984 c 0.42,0.272 0.794,0.582 1.066,0.969 0.458,0.624 0.66,1.402 0.66,2.289 0,1.423 -0.482,2.591 -1.451,3.391 -0.968,0.809 -2.291,1.176 -3.956,1.176 H 42.19 V -0.858 h 6.001 c 1.726,0 3.141,0.422 4.214,1.277 1.064,0.856 1.634,2.047 1.614,3.489 0,1.115 -0.362,2.102 -1.049,2.888 -0.521,0.581 -1.181,1.023 -1.975,1.328 M 28.922,14.773 H 25.807 V -0.858 H 36.751 V 1.807 H 28.922 Z M 16.373,6.197 h 7.317 v 2.845 h -7.317 v 4.087 h 7.526 v 2.806 H 13.27 V -0.858 h 10.872 v 2.843 h -7.769 z"
               style="fill:#ffffff;fill-opacity:1;fill-rule:nonzero;stroke:none"
               id="path51226-6-0" /></g><g
             id="g51228-7-2"
             transform="translate(191.0152,210.0449)"><path
               d="m 0,0 c -3.569,8.665 -4.825,17.637 -4.825,26.892 0,3.989 0.254,7.987 0.92,11.922 H -0.5 c -0.823,-3.743 -1.079,-7.581 -1.079,-11.403 0,-8.033 0.997,-16.573 3.321,-24.311 2.324,7.738 3.321,16.278 3.321,24.311 0,3.822 -0.255,7.66 -1.078,11.403 H 7.389 C 8.055,34.879 8.31,30.881 8.31,26.892 8.31,17.637 7.053,8.665 3.484,0 Z"
               style="fill:#ffffff;fill-opacity:1;fill-rule:nonzero;stroke:none"
               id="path51230-2-4" /></g><g
             id="g51232-1-5"
             transform="translate(204.4877,237.4011)"><path
               d="M 0,0 C 0.309,0.28 0.786,0.257 1.067,-0.051 1.349,-0.36 1.326,-0.837 1.018,-1.119 0.709,-1.4 0.232,-1.377 -0.05,-1.068 -0.33,-0.76 -0.308,-0.282 0,0"
               style="fill:#ffffff;fill-opacity:1;fill-rule:nonzero;stroke:none"
               id="path51234-4-8" /></g><g
             id="g51236-4-2"
             transform="translate(206.9441,234.713)"><path
               d="M 0,0 C 0.309,0.28 0.786,0.258 1.067,-0.051 1.349,-0.36 1.326,-0.837 1.018,-1.118 0.709,-1.399 0.232,-1.377 -0.05,-1.068 -0.33,-0.759 -0.308,-0.282 0,0"
               style="fill:#ffffff;fill-opacity:1;fill-rule:nonzero;stroke:none"
               id="path51238-8-1" /></g><g
             id="g51240-4-7"
             transform="translate(203.8588,227.2473)"><path
               d="M 0,0 C 0.323,0.265 0.798,0.218 1.064,-0.105 1.329,-0.428 1.282,-0.903 0.96,-1.169 0.637,-1.434 0.162,-1.387 -0.104,-1.064 -0.368,-0.742 -0.322,-0.266 0,0"
               style="fill:#ffffff;fill-opacity:1;fill-rule:nonzero;stroke:none"
               id="path51242-9-2" /></g><g
             id="g51244-8-5"
             transform="translate(206.2423,224.282)"><path
               d="M 0,0 C 0.326,0.26 0.801,0.206 1.062,-0.121 1.322,-0.448 1.268,-0.922 0.942,-1.183 0.615,-1.443 0.141,-1.389 -0.12,-1.062 -0.379,-0.736 -0.326,-0.261 0,0"
               style="fill:#ffffff;fill-opacity:1;fill-rule:nonzero;stroke:none"
               id="path51246-4-1" /></g><g
             id="g51248-4-6"
             transform="translate(205.8854,230.318)"><path
               d="M 0,0 C 0.309,0.28 0.786,0.258 1.067,-0.051 1.349,-0.36 1.326,-0.837 1.018,-1.119 0.709,-1.4 0.232,-1.377 -0.05,-1.068 -0.33,-0.76 -0.308,-0.282 0,0"
               style="fill:#ffffff;fill-opacity:1;fill-rule:nonzero;stroke:none"
               id="path51250-1-9" /></g><g
             id="g51252-9-3"
             transform="translate(202.6129,216.3174)"><path
               d="M 0,0 C 0.347,0.232 0.816,0.138 1.048,-0.209 1.28,-0.556 1.188,-1.025 0.841,-1.257 0.493,-1.489 0.025,-1.396 -0.207,-1.049 -0.439,-0.702 -0.346,-0.232 0,0"
               style="fill:#ffffff;fill-opacity:1;fill-rule:nonzero;stroke:none"
               id="path51254-6-2" /></g><g
             id="g51256-8-6"
             transform="translate(203.8978,219.5212)"><path
               d="M 0,0 C 0.34,0.241 0.811,0.161 1.053,-0.179 1.295,-0.52 1.215,-0.991 0.875,-1.233 0.534,-1.475 0.063,-1.395 -0.179,-1.054 -0.419,-0.714 -0.34,-0.242 0,0"
               style="fill:#ffffff;fill-opacity:1;fill-rule:nonzero;stroke:none"
               id="path51258-0-2" /></g><g
             id="g51260-9-9"
             transform="translate(207.9622,242.1767)"><path
               d="M 0,0 C 0.183,0.375 0.634,0.531 1.01,0.349 1.386,0.166 1.543,-0.286 1.36,-0.661 1.178,-1.037 0.726,-1.193 0.35,-1.01 -0.024,-0.828 -0.182,-0.376 0,0"
               style="fill:#ffffff;fill-opacity:1;fill-rule:nonzero;stroke:none"
               id="path51262-3-8" /></g><g
             id="g51264-6-1"
             transform="translate(208.9751,245.4077)"><path
               d="M 0,0 C 0.021,0.416 0.375,0.737 0.793,0.717 1.209,0.696 1.531,0.343 1.511,-0.074 1.49,-0.492 1.136,-0.812 0.718,-0.792 0.302,-0.771 -0.02,-0.417 0,0"
               style="fill:#ffffff;fill-opacity:1;fill-rule:nonzero;stroke:none"
               id="path51266-3-4" /></g><g
             id="g51268-8-1"
             transform="translate(208.6048,248.9472)"><path
               d="M 0,0 C -0.077,0.41 0.192,0.804 0.603,0.883 1.013,0.96 1.408,0.691 1.486,0.281 1.564,-0.13 1.294,-0.524 0.884,-0.602 0.473,-0.679 0.078,-0.41 0,0"
               style="fill:#ffffff;fill-opacity:1;fill-rule:nonzero;stroke:none"
               id="path51270-9-5" /></g><g
             id="g51272-5-0"
             transform="translate(206.4285,252.4615)"><path
               d="M 0,0 C -0.21,0.36 -0.089,0.822 0.271,1.034 0.632,1.245 1.094,1.124 1.305,0.764 1.517,0.403 1.395,-0.058 1.035,-0.27 0.674,-0.48 0.212,-0.36 0,0"
               style="fill:#ffffff;fill-opacity:1;fill-rule:nonzero;stroke:none"
               id="path51274-0-9" /></g><g
             id="g51276-1-4"
             transform="translate(205.6847,240.0181)"><path
               d="M 0,0 C 0.309,0.281 0.786,0.258 1.067,-0.051 1.349,-0.36 1.326,-0.837 1.018,-1.118 0.709,-1.4 0.232,-1.377 -0.05,-1.068 -0.33,-0.759 -0.308,-0.282 0,0"
               style="fill:#ffffff;fill-opacity:1;fill-rule:nonzero;stroke:none"
               id="path51278-7-6" /></g><g
             id="g51280-1-2"
             transform="translate(203.7464,251.628)"><path
               d="M 0,0 C -0.263,-0.24 -0.67,-0.221 -0.909,0.042 -1.149,0.305 -1.13,0.712 -0.867,0.951 -0.605,1.19 -0.198,1.172 0.042,0.909 0.282,0.647 0.262,0.24 0,0 M -2.114,2.985 C -3.097,3.091 -3.634,2.801 -3.907,2.553 -4.452,2.056 -4.484,1.308 -3.994,0.666 l 4.982,-6.651 c 0.534,-0.7 0.55,-1.668 -0.105,-2.265 l -4.785,-4.371 c -0.655,-0.597 -0.701,-1.611 -0.104,-2.265 l 3.295,-3.612 c 0.298,-0.326 0.274,-0.831 -0.052,-1.128 l -3.614,-3.292 c -0.655,-0.597 -0.701,-1.61 -0.105,-2.265 l 2.886,-3.377 c 0.276,-0.345 0.22,-0.847 -0.125,-1.123 l -4.315,-3.043 c -0.697,-0.546 -0.819,-1.553 -0.272,-2.25 l 3.259,-4.566 c 0.516,-0.72 1.517,-0.885 2.236,-0.37 0.72,0.517 0.886,1.518 0.37,2.237 l -1.862,2.784 c -0.273,0.348 -0.212,0.849 0.136,1.122 l 4.323,3.083 c 0.691,0.554 0.803,1.563 0.25,2.254 l -2.9,3.634 c -0.297,0.325 -0.274,0.831 0.052,1.128 l 3.613,3.294 c 0.654,0.597 0.701,1.61 0.104,2.265 L -0.02,-14.5 c -0.298,0.326 -0.274,0.831 0.052,1.129 l 3.603,3.29 c 0.469,0.427 1.322,1.287 1.583,3.679 0.519,4.763 -2.635,8.881 -7.332,9.387"
               style="fill:#ffffff;fill-opacity:1;fill-rule:nonzero;stroke:none"
               id="path51282-9-3" /></g><g
             id="g51284-8-3"
             transform="translate(181.0264,237.4011)"><path
               d="M 0,0 C -0.309,0.28 -0.786,0.257 -1.067,-0.051 -1.349,-0.36 -1.326,-0.837 -1.018,-1.119 -0.709,-1.4 -0.232,-1.377 0.05,-1.068 0.33,-0.76 0.308,-0.282 0,0"
               style="fill:#ffffff;fill-opacity:1;fill-rule:nonzero;stroke:none"
               id="path51286-2-7" /></g><g
             id="g51288-6-3"
             transform="translate(178.5699,234.713)"><path
               d="m 0,0 c -0.309,0.28 -0.786,0.258 -1.067,-0.051 -0.282,-0.309 -0.259,-0.786 0.049,-1.067 0.309,-0.281 0.786,-0.259 1.068,0.05 C 0.33,-0.759 0.308,-0.282 0,0"
               style="fill:#ffffff;fill-opacity:1;fill-rule:nonzero;stroke:none"
               id="path51290-7-8" /></g><g
             id="g51292-5-3"
             transform="translate(181.6553,227.2473)"><path
               d="m 0,0 c -0.323,0.265 -0.798,0.218 -1.063,-0.105 -0.266,-0.323 -0.219,-0.798 0.103,-1.064 0.323,-0.265 0.798,-0.218 1.064,0.105 C 0.368,-0.742 0.322,-0.266 0,0"
               style="fill:#ffffff;fill-opacity:1;fill-rule:nonzero;stroke:none"
               id="path51294-9-1" /></g><g
             id="g51296-3-6"
             transform="translate(179.2717,224.282)"><path
               d="m 0,0 c -0.326,0.26 -0.801,0.206 -1.062,-0.121 -0.26,-0.327 -0.206,-0.801 0.12,-1.062 0.327,-0.26 0.801,-0.206 1.062,0.121 C 0.379,-0.736 0.326,-0.261 0,0"
               style="fill:#ffffff;fill-opacity:1;fill-rule:nonzero;stroke:none"
               id="path51298-9-6" /></g><g
             id="g51300-9-2"
             transform="translate(179.6286,230.318)"><path
               d="M 0,0 C -0.309,0.28 -0.786,0.258 -1.067,-0.051 -1.349,-0.36 -1.326,-0.837 -1.018,-1.119 -0.709,-1.4 -0.232,-1.377 0.05,-1.068 0.33,-0.76 0.308,-0.282 0,0"
               style="fill:#ffffff;fill-opacity:1;fill-rule:nonzero;stroke:none"
               id="path51302-7-4" /></g><g
             id="g51304-9-0"
             transform="translate(182.9011,216.3174)"><path
               d="m 0,0 c -0.347,0.232 -0.816,0.138 -1.048,-0.209 -0.232,-0.347 -0.14,-0.816 0.207,-1.048 0.348,-0.232 0.816,-0.139 1.048,0.208 C 0.439,-0.702 0.346,-0.232 0,0"
               style="fill:#ffffff;fill-opacity:1;fill-rule:nonzero;stroke:none"
               id="path51306-7-0" /></g><g
             id="g51308-3-7"
             transform="translate(181.6163,219.5212)"><path
               d="m 0,0 c -0.34,0.241 -0.811,0.161 -1.053,-0.179 -0.242,-0.341 -0.162,-0.812 0.178,-1.054 0.341,-0.242 0.812,-0.162 1.054,0.179 C 0.419,-0.714 0.34,-0.242 0,0"
               style="fill:#ffffff;fill-opacity:1;fill-rule:nonzero;stroke:none"
               id="path51310-5-6" /></g><g
             id="g51312-0-9"
             transform="translate(177.5518,242.1767)"><path
               d="M 0,0 C -0.183,0.375 -0.634,0.531 -1.01,0.349 -1.386,0.166 -1.543,-0.286 -1.36,-0.661 -1.178,-1.037 -0.726,-1.193 -0.35,-1.01 0.024,-0.828 0.182,-0.376 0,0"
               style="fill:#ffffff;fill-opacity:1;fill-rule:nonzero;stroke:none"
               id="path51314-4-0" /></g><g
             id="g51316-1-0"
             transform="translate(176.5389,245.4077)"><path
               d="M 0,0 C -0.021,0.416 -0.375,0.737 -0.793,0.717 -1.209,0.696 -1.531,0.343 -1.511,-0.074 -1.49,-0.492 -1.136,-0.812 -0.718,-0.792 -0.302,-0.771 0.02,-0.417 0,0"
               style="fill:#ffffff;fill-opacity:1;fill-rule:nonzero;stroke:none"
               id="path51318-9-7" /></g><g
             id="g51320-4-4"
             transform="translate(176.9093,248.9472)"><path
               d="M 0,0 C 0.077,0.41 -0.192,0.804 -0.603,0.883 -1.013,0.96 -1.408,0.691 -1.486,0.281 -1.564,-0.13 -1.294,-0.524 -0.884,-0.602 -0.473,-0.679 -0.078,-0.41 0,0"
               style="fill:#ffffff;fill-opacity:1;fill-rule:nonzero;stroke:none"
               id="path51322-1-1" /></g><g
             id="g51324-4-8"
             transform="translate(179.0855,252.4615)"><path
               d="m 0,0 c 0.21,0.36 0.089,0.822 -0.272,1.034 -0.36,0.211 -0.822,0.09 -1.033,-0.27 -0.212,-0.361 -0.09,-0.822 0.27,-1.034 C -0.674,-0.48 -0.212,-0.36 0,0"
               style="fill:#ffffff;fill-opacity:1;fill-rule:nonzero;stroke:none"
               id="path51326-3-8" /></g><g
             id="g51328-6-6"
             transform="translate(179.8293,240.0181)"><path
               d="M 0,0 C -0.309,0.281 -0.786,0.258 -1.067,-0.051 -1.349,-0.36 -1.326,-0.837 -1.018,-1.118 -0.709,-1.4 -0.232,-1.377 0.05,-1.068 0.33,-0.759 0.308,-0.282 0,0"
               style="fill:#ffffff;fill-opacity:1;fill-rule:nonzero;stroke:none"
               id="path51330-4-9" /></g><g
             id="g51332-2-3"
             transform="translate(181.7257,252.5375)"><path
               d="M 0,0 C 0.24,0.262 0.647,0.28 0.909,0.042 1.172,-0.198 1.191,-0.605 0.951,-0.867 0.712,-1.13 0.305,-1.149 0.042,-0.909 -0.22,-0.669 -0.24,-0.263 0,0 m -5.176,-7.311 c 0.261,-2.393 1.114,-3.252 1.583,-3.679 l 3.603,-3.291 c 0.326,-0.297 0.35,-0.802 0.052,-1.128 l -3.293,-3.612 c -0.597,-0.654 -0.55,-1.668 0.104,-2.264 l 3.613,-3.294 c 0.326,-0.298 0.349,-0.803 0.052,-1.128 l -2.9,-3.635 c -0.553,-0.691 -0.441,-1.7 0.25,-2.253 l 4.323,-3.084 c 0.348,-0.273 0.409,-0.774 0.136,-1.121 l -1.862,-2.785 c -0.516,-0.719 -0.35,-1.72 0.37,-2.236 0.719,-0.515 1.72,-0.35 2.236,0.37 l 3.259,4.565 c 0.547,0.697 0.425,1.704 -0.272,2.251 l -4.315,3.042 c -0.345,0.276 -0.401,0.778 -0.125,1.123 l 2.886,3.378 c 0.596,0.654 0.55,1.668 -0.105,2.265 l -3.614,3.291 c -0.326,0.297 -0.35,0.803 -0.052,1.129 l 3.295,3.611 c 0.597,0.655 0.551,1.668 -0.104,2.265 l -4.785,4.372 c -0.655,0.596 -0.639,1.564 -0.105,2.264 l 4.982,6.651 C 4.526,0.398 4.494,1.146 3.949,1.643 3.676,1.892 3.139,2.181 2.156,2.076 -2.542,1.57 -5.695,-2.549 -5.176,-7.311"
               style="fill:#ffffff;fill-opacity:1;fill-rule:nonzero;stroke:none"
               id="path51334-2-6" /></g></g></g><path
         d="m 13.180664,-15.533203 v 3.394531 q -1.321289,-0.59082 -2.578125,-0.891601 -1.2568359,-0.300782 -2.3740234,-0.300782 -1.4824219,0 -2.1914062,0.408203 -0.7089844,0.408204 -0.7089844,1.267579 0,0.644531 0.4726562,1.009765 0.4833985,0.354492 1.7402344,0.612305 l 1.7617188,0.3544921 q 2.6748046,0.5371093 3.8027346,1.6328125 1.127929,1.0957031 1.127929,3.1152343 0,2.6533203 -1.579101,3.95312504 -1.568359,1.2890625 -4.8017579,1.2890625 -1.5253907,0 -3.0615235,-0.29003906 Q 3.2548828,-0.26855469 1.71875,-0.83789063 V -4.3291016 q 1.5361328,0.8164063 2.9648437,1.2353516 1.4394532,0.4082031 2.7714844,0.4082031 1.3535157,0 2.0732422,-0.4511719 0.7197267,-0.4511718 0.7197267,-1.2890624 0,-0.7519532 -0.4941407,-1.1601563 -0.4833985,-0.4082031 -1.944336,-0.7304687 L 6.2089844,-6.6708984 q -2.40625,-0.515625 -3.5234375,-1.6435547 -1.1064453,-1.1279297 -1.1064453,-3.0400389 0,-2.395508 1.546875,-3.684571 1.546875,-1.289062 4.4472656,-1.289062 1.3212891,0 2.7177738,0.204102 1.396484,0.193359 2.889648,0.59082 z m 14.668758,9.4853514 v 1.0957032 h -8.991211 q 0.139648,1.3535156 0.977539,2.0302734 0.83789,0.6767578 2.341797,0.6767578 1.213867,0 2.481445,-0.3544922 1.27832,-0.3652344 2.621094,-1.0957031 v 2.96484375 q -1.364258,0.515625 -2.728516,0.7734375 -1.364258,0.26855469 -2.728516,0.26855469 -3.265625,0 -5.081054,-1.65429684 -1.804688,-1.6650391 -1.804688,-4.6621094 0,-2.9433594 1.772461,-4.6298832 1.783203,-1.686523 4.898438,-1.686523 2.835937,0 4.533203,1.708008 1.708008,1.7080076 1.708008,4.5654294 z m -3.953125,-1.2783203 q 0,-1.0957031 -0.644532,-1.7617187 -0.633789,-0.6767578 -1.665039,-0.6767578 -1.117187,0 -1.815429,0.633789 -0.698243,0.6230469 -0.870118,1.8046875 z m 15.963749,-2.7070311 q 0.730469,-1.117188 1.729493,-1.697266 1.009765,-0.59082 2.21289,-0.59082 2.073242,0 3.158203,1.27832 1.084961,1.2783206 1.084961,3.7167971 V 0 h -3.867187 v -6.2734375 q 0.01074,-0.1396484 0.01074,-0.2900391 0.01074,-0.1503906 0.01074,-0.4296875 0,-1.2783203 -0.375976,-1.8476562 -0.375977,-0.5800781 -1.213868,-0.5800781 -1.095703,0 -1.697265,0.9023437 -0.590821,0.9023438 -0.612305,2.6103516 V 0 h -3.867187 v -6.2734375 q 0,-1.9980469 -0.34375,-2.5673828 -0.34375,-0.5800781 -1.22461,-0.5800781 -1.106445,0 -1.708008,0.9130859 -0.601562,0.9023438 -0.601562,2.5888672 V 0 h -3.867188 v -12.03125 h 3.867188 v 1.761719 q 0.708984,-1.020508 1.62207,-1.536133 0.923828,-0.515625 2.030274,-0.515625 1.246093,0 2.202148,0.601562 0.956055,0.601563 1.450195,1.686524 z m 8.86961,-1.998047 h 3.845703 V 0 h -3.845703 z m 0,-4.683594 h 3.845703 v 3.136719 h -3.845703 z m 7.172001,0 H 59.74736 V 0 h -3.845703 z m 6.666,0 h 3.845704 V 0 h -3.845704 z m 18.675766,10.6669924 v 1.0957032 h -8.99121 q 0.139648,1.3535156 0.977539,2.0302734 0.83789,0.6767578 2.341796,0.6767578 1.213868,0 2.481446,-0.3544922 1.27832,-0.3652344 2.621094,-1.0957031 v 2.96484375 q -1.364258,0.515625 -2.728516,0.7734375 -1.364258,0.26855469 -2.728516,0.26855469 -3.265625,0 -5.081054,-1.65429684 -1.804688,-1.6650391 -1.804688,-4.6621094 0,-2.9433594 1.772461,-4.6298832 1.783203,-1.686523 4.898438,-1.686523 2.835937,0 4.533203,1.708008 1.708007,1.7080076 1.708007,4.5654294 z m -3.953125,-1.2783203 q 0,-1.0957031 -0.644531,-1.7617187 -0.633789,-0.6767578 -1.665039,-0.6767578 -1.117187,0 -1.81543,0.633789 -0.698242,0.6230469 -0.870117,1.8046875 z m 13.750855,-1.4287109 q -0.504883,-0.2363281 -1.009766,-0.34375 -0.49414,-0.1181641 -0.999023,-0.1181641 -1.482422,0 -2.288086,0.9560547 -0.794922,0.9453125 -0.794922,2.7177735 V 0 h -3.845703 v -12.03125 h 3.845703 v 1.976562 q 0.741211,-1.18164 1.697266,-1.71875 0.966797,-0.547851 2.30957,-0.547851 0.193359,0 0.418945,0.02148 0.225586,0.01074 0.655274,0.06445 z m 6.028091,-0.8164063 q -1.27832,0 -1.955078,0.9238282 -0.666015,0.9130859 -0.666015,2.6425781 0,1.7294922 0.666015,2.6533203 0.676758,0.9130859 1.955078,0.9130859 1.256836,0 1.922852,-0.9130859 0.666016,-0.9238281 0.666016,-2.6533203 0,-1.7294922 -0.666016,-2.6425781 -0.666016,-0.9238282 -1.922852,-0.9238282 z m 0,-2.7499999 q 3.104496,0 4.844726,1.675781 1.75098,1.6757814 1.75098,4.6406252 0,2.9648437 -1.75098,4.640625 -1.74023,1.67578124 -4.844726,1.67578124 -3.115234,0 -4.876953,-1.67578124 -1.750976,-1.6757813 -1.750976,-4.640625 0,-2.9648438 1.750976,-4.6406252 1.761719,-1.675781 4.876953,-1.675781 z m 21.401966,2.051758 v -6.445313 h 3.86718 V 0 h -3.86718 v -1.7402344 q -0.79493,1.06347659 -1.75098,1.55761721 -0.95605,0.49414063 -2.21289,0.49414063 -2.22363,0 -3.65234,-1.76171874 -1.42872,-1.772461 -1.42872,-4.5546875 0,-2.7822266 1.42872,-4.5439452 1.42871,-1.772461 3.65234,-1.772461 1.24609,0 2.20215,0.504883 0.96679,0.49414 1.76172,1.546875 z m -2.53516,7.7880857 q 1.23535,0 1.87988,-0.9023438 0.65528,-0.9023437 0.65528,-2.6210937 0,-1.71875 -0.65528,-2.6210938 -0.64453,-0.9023437 -1.87988,-0.9023437 -1.22461,0 -1.87988,0.9023437 -0.64453,0.9023438 -0.64453,2.6210938 0,1.71875 0.64453,2.6210937 0.65527,0.9023438 1.87988,0.9023438 z m 20.43937,-3.5664063 v 1.0957032 h -8.99121 q 0.13965,1.3535156 0.97754,2.0302734 0.83789,0.6767578 2.34179,0.6767578 1.21387,0 2.48145,-0.3544922 1.27832,-0.3652344 2.62109,-1.0957031 v 2.96484375 q -1.36425,0.515625 -2.72851,0.7734375 -1.36426,0.26855469 -2.72852,0.26855469 -3.26562,0 -5.08105,-1.65429684 -1.80469,-1.6650391 -1.80469,-4.6621094 0,-2.9433594 1.77246,-4.6298832 1.7832,-1.686523 4.89844,-1.686523 2.83594,0 4.5332,1.708008 1.70801,1.7080076 1.70801,4.5654294 z m -3.95313,-1.2783203 q 0,-1.0957031 -0.64453,-1.7617187 -0.63379,-0.6767578 -1.66504,-0.6767578 -1.11718,0 -1.81543,0.633789 -0.69824,0.6230469 -0.87011,1.8046875 z m 10.55124,-8.7119141 h 4.13574 V 0 h -4.13574 z m 18.80983,8.7119141 V 0 h -3.86719 v -1.1923828 -4.4150391 q 0,-1.5576172 -0.0752,-2.1484375 -0.0644,-0.5908203 -0.23633,-0.8701172 -0.22558,-0.3759765 -0.6123,-0.5800781 -0.38672,-0.2148437 -0.88086,-0.2148437 -1.20312,0 -1.89062,0.9345703 -0.6875,0.9238281 -0.6875,2.5673828 V 0 h -3.84571 v -12.03125 h 3.84571 v 1.761719 q 0.87011,-1.052735 1.84765,-1.546875 0.97754,-0.504883 2.15918,-0.504883 2.08399,0 3.1582,1.27832 1.08497,1.2783206 1.08497,3.7167971 z m -0.65235,-4.7050781 h 3.84571 l 2.99707,8.3144531 2.98632,-8.3144531 h 3.85645 L 170.07925,0 h -4.22168 z m 25.22841,5.9833984 v 1.0957032 h -8.99121 q 0.13965,1.3535156 0.97754,2.0302734 0.83789,0.6767578 2.3418,0.6767578 1.21386,0 2.48144,-0.3544922 1.27832,-0.3652344 2.62109,-1.0957031 v 2.96484375 q -1.36425,0.515625 -2.72851,0.7734375 -1.36426,0.26855469 -2.72852,0.26855469 -3.26562,0 -5.08105,-1.65429684 -1.80469,-1.6650391 -1.80469,-4.6621094 0,-2.9433594 1.77246,-4.6298832 1.78321,-1.686523 4.89844,-1.686523 2.83594,0 4.5332,1.708008 1.70801,1.7080076 1.70801,4.5654294 z m -3.95312,-1.2783203 q 0,-1.0957031 -0.64454,-1.7617187 -0.63378,-0.6767578 -1.66503,-0.6767578 -1.11719,0 -1.81543,0.633789 -0.69825,0.6230469 -0.87012,1.8046875 z m 14.21276,-4.3291011 v 2.9218746 q -1.23535,-0.515625 -2.38476,-0.7734375 -1.14942,-0.2578125 -2.16992,-0.2578125 -1.09571,0 -1.63282,0.2792968 -0.52636,0.2685547 -0.52636,0.8378907 0,0.461914 0.39746,0.7089843 0.4082,0.2470704 1.45019,0.3652344 l 0.67676,0.09668 q 2.9541,0.3759766 3.97461,1.2353516 1.02051,0.859375 1.02051,2.696289 0,1.9228516 -1.41797,2.88964846 -1.41797,0.96679688 -4.23242,0.96679688 -1.19239,0 -2.47071,-0.19335938 -1.26757,-0.18261718 -2.61035,-0.55859375 V -3.3623047 q 1.14942,0.5585938 2.35254,0.8378906 1.21387,0.2792969 2.45996,0.2792969 1.12793,0 1.69727,-0.3115234 0.56933,-0.3115235 0.56933,-0.9238282 0,-0.515625 -0.39746,-0.7626953 -0.38672,-0.2578125 -1.55761,-0.3974609 l -0.67676,-0.085937 q -2.56738,-0.3222656 -3.59863,-1.1923828 -1.03125,-0.8701172 -1.03125,-2.6425781 0,-1.9121101 1.31054,-2.8359371 1.31055,-0.923829 4.01758,-0.923829 1.06348,0 2.23438,0.161133 1.17089,0.161133 2.54589,0.504883 z m 6.0868,-3.791993 v 3.416016 h 3.96386 v 2.75 h -3.96386 v 5.1025391 q 0,0.8378906 0.333,1.1386718 Q 203.37187,-2.75 204.36015,-2.75 h 1.97657 V 0 h -3.29786 q -2.27734,0 -3.23339,-0.9453125 -0.94532,-0.9560547 -0.94532,-3.2333984 V -9.28125 h -1.91211 v -2.75 h 1.91211 v -3.416016 z m 5.6118,3.416016 h 3.8457 V 0 h -3.8457 z m 0,-4.683594 h 3.8457 v 3.136719 h -3.8457 z m 15.35754,14.6738284 q -0.79492,1.05273435 -1.75098,1.54687497 Q 220.96817,0 219.71133,0 q -2.20214,0 -3.6416,-1.7294922 -1.43945,-1.7402344 -1.43945,-4.4257812 0,-2.6962891 1.43945,-4.4150396 1.43946,-1.729492 3.6416,-1.729492 1.25684,0 2.21289,0.494141 0.95606,0.494141 1.75098,1.557617 v -1.783203 h 3.86719 v 10.8173828 q 0,2.9003906 -1.83692,4.4257813 -1.82617,1.5361328 -5.30664,1.5361328 -1.12793,0 -2.18066,-0.171875 -1.05273,-0.171875 -2.11621,-0.5263672 V 1.0527344 q 1.00976,0.5800781 1.97656,0.859375 0.9668,0.290039 1.94434,0.290039 1.89062,0 2.77148,-0.8271484 0.88086,-0.82714844 0.88086,-2.5888672 z m -2.53515,-7.4873047 q -1.19239,0 -1.8584,0.8808594 -0.66602,0.8808593 -0.66602,2.4921875 0,1.6542968 0.64453,2.5136718 0.64453,0.8486328 1.87989,0.8486328 1.20312,0 1.86914,-0.8808593 0.66601,-0.8808594 0.66601,-2.4814453 0,-1.6113282 -0.66601,-2.4921875 -0.66602,-0.8808594 -1.86914,-0.8808594 z m 13.82218,4.1142578 q -1.20312,0 -1.81543,0.4082031 -0.60156,0.4082032 -0.60156,1.203125 0,0.7304688 0.4834,1.1494141 0.49414,0.4082031 1.36426,0.4082031 1.08496,0 1.82617,-0.7734375 0.74121,-0.7841797 0.74121,-1.9550781 v -0.4404297 z m 5.87598,-1.4501953 V 0 h -3.87793 v -1.7832031 q -0.77344,1.0957031 -1.74023,1.60058591 -0.9668,0.49414063 -2.35254,0.49414063 -1.86914,0 -3.04004,-1.08496094 -1.16016,-1.0957031 -1.16016,-2.8359375 0,-2.1162109 1.4502,-3.1044922 1.46094,-0.9882812 4.57617,-0.9882812 h 2.2666 v -0.3007813 q 0,-0.9130859 -0.71973,-1.3320312 -0.71972,-0.4296875 -2.24511,-0.4296875 -1.23535,0 -2.29883,0.2470703 -1.06348,0.2470703 -1.97656,0.7412109 v -2.9326168 q 1.23535,-0.300782 2.48144,-0.451172 1.2461,-0.161133 2.49219,-0.161133 3.25488,0 4.69434,1.289062 1.45019,1.2783207 1.45019,4.1679692 z m 11.23512,-4.7910152 v 3.1367183 q -0.78418,-0.5371094 -1.5791,-0.7949219 -0.78418,-0.2578125 -1.63281,-0.2578125 -1.61133,0 -2.51367,0.9453125 -0.8916,0.9345704 -0.8916,2.6210938 0,1.6865234 0.8916,2.6318359 0.90234,0.9345703 2.51367,0.9345703 0.90234,0 1.70801,-0.2685547 0.8164,-0.2685546 1.5039,-0.7949218 v 3.14746091 q -0.90234,0.33300781 -1.83691,0.49414063 -0.92383,0.171875 -1.8584,0.171875 -3.25488,0 -5.0918,-1.66503904 -1.83691,-1.6757813 -1.83691,-4.6513672 0,-2.975586 1.83691,-4.6406252 1.83692,-1.675781 5.0918,-1.675781 0.94531,0 1.8584,0.171875 0.92383,0.161133 1.83691,0.494141 z m 1.82833,-0.375977 h 3.8457 V 0 h -3.8457 z m 0,-4.683594 h 3.8457 v 3.136719 h -3.8457 z m 12.8976,7.1435549 q -1.27832,0 -1.95508,0.9238282 -0.66602,0.9130859 -0.66602,2.6425781 0,1.7294922 0.66602,2.6533203 0.67676,0.9130859 1.95508,0.9130859 1.25683,0 1.92285,-0.9130859 0.66601,-0.9238281 0.66601,-2.6533203 0,-1.7294922 -0.66601,-2.6425781 -0.66602,-0.9238282 -1.92285,-0.9238282 z m 0,-2.7499999 q 3.10449,0 4.84472,1.675781 1.75098,1.6757814 1.75098,4.6406252 0,2.9648437 -1.75098,4.640625 -1.74023,1.67578124 -4.84472,1.67578124 -3.11524,0 -4.87696,-1.67578124 -1.75097,-1.6757813 -1.75097,-4.640625 0,-2.9648438 1.75097,-4.6406252 1.76172,-1.675781 4.87696,-1.675781 z m 1.68652,-5.274414 h 3.04004 l -3.96387,4.039062 h -2.10547 z m 18.05957,10.2695311 V 0 h -3.86719 v -1.1923828 -4.4150391 q 0,-1.5576172 -0.0752,-2.1484375 -0.0645,-0.5908203 -0.23633,-0.8701172 -0.22559,-0.3759765 -0.61231,-0.5800781 -0.38672,-0.2148437 -0.88086,-0.2148437 -1.20312,0 -1.89062,0.9345703 -0.6875,0.9238281 -0.6875,2.5673828 V 0 h -3.8457 v -12.03125 h 3.8457 v 1.761719 q 0.87012,-1.052735 1.84766,-1.546875 0.97753,-0.504883 2.15918,-0.504883 2.08398,0 3.1582,1.27832 1.08496,1.2783206 1.08496,3.7167971 z"
         id="text51338-7-1"
         style="font-weight:900;font-size:22px;font-family:'Acherus Grotesque';-inkscape-font-specification:AcherusGrotesque-Black;fill:#ffffff"
         transform="matrix(1,0,0,-1,161.8354,379.5596)"
         aria-label="Semillero de Investigación" /><g
         id="g51340-1-4"
         style="fill:#ffffff"><g
           id="g51342-8-3"
           clip-path="url(#clipPath51346-1-9)"
           style="fill:#ffffff"><g
             id="g51348-5-3"
             transform="translate(224.8181,433.3745)"
             style="fill:#ffffff"><path
               d="m 0,0 c 0,-2.047 -1.659,-3.706 -3.706,-3.706 -2.047,0 -3.706,1.659 -3.706,3.706 0,2.047 1.659,3.706 3.706,3.706 C -1.659,3.706 0,2.047 0,0"
               style="fill:#ffffff;fill-opacity:1;fill-rule:nonzero;stroke:none"
               id="path51350-1-8" /></g><g
             id="g51352-1-2"
             transform="translate(203.4967,433.3745)"
             style="fill:#ffffff"><path
               d="m 0,0 c 0,-2.047 -1.659,-3.706 -3.706,-3.706 -2.047,0 -3.706,1.659 -3.706,3.706 0,2.047 1.659,3.706 3.706,3.706 C -1.659,3.706 0,2.047 0,0"
               style="fill:#ffffff;fill-opacity:1;fill-rule:nonzero;stroke:none"
               id="path51354-3-9" /></g><g
             id="g51356-0-6"
             transform="translate(182.1753,433.3745)"
             style="fill:#ffffff"><path
               d="m 0,0 c 0,-2.047 -1.659,-3.706 -3.706,-3.706 -2.047,0 -3.706,1.659 -3.706,3.706 0,2.047 1.659,3.706 3.706,3.706 C -1.659,3.706 0,2.047 0,0"
               style="fill:#ffffff;fill-opacity:1;fill-rule:nonzero;stroke:none"
               id="path51358-6-6" /></g></g></g></g></g></svg>
