<?xml version="1.0" encoding="UTF-8" standalone="no"?>
<!-- Created with Inkscape (http://www.inkscape.org/) -->

<svg
   width="50.000004mm"
   height="77.642426mm"
   viewBox="0 0 50.000004 77.642424"
   version="1.1"
   id="svg1"
   xml:space="preserve"
   sodipodi:docname="MetaCiencia_claro.svg"
   inkscape:version="1.4.4 (dcaf3e7d9e, 2026-05-05)"
   xmlns:inkscape="http://www.inkscape.org/namespaces/inkscape"
   xmlns:sodipodi="http://sodipodi.sourceforge.net/DTD/sodipodi-0.dtd"
   xmlns="http://www.w3.org/2000/svg"
   xmlns:svg="http://www.w3.org/2000/svg"><sodipodi:namedview
     id="namedview1"
     pagecolor="#ffffff"
     bordercolor="#000000"
     borderopacity="0.25"
     inkscape:showpageshadow="2"
     inkscape:pageopacity="0.0"
     inkscape:pagecheckerboard="0"
     inkscape:deskcolor="#d1d1d1"
     inkscape:document-units="mm"
     inkscape:zoom="1.9758878"
     inkscape:cx="81.735409"
     inkscape:cy="133.10472"
     inkscape:window-width="1906"
     inkscape:window-height="1028"
     inkscape:window-x="0"
     inkscape:window-y="0"
     inkscape:window-maximized="1"
     inkscape:current-layer="layer1" /><defs
     id="defs1" /><g
     id="layer1"
     transform="translate(522.79384,-387.01425)"><g
       id="g179-41"
       transform="translate(-587.91289,336.62103)"><path
         d="M 109.22251,128.03565 H 71.015584 c -3.256604,0 -5.896538,-2.17961 -5.896538,-4.86812 V 97.955898 c 0,-2.688513 2.640084,-4.868171 5.896538,-4.868171 h 38.206926 c 3.25665,0 5.89654,2.179658 5.89654,4.868171 v 25.211632 c 0,2.68871 -2.64004,4.86812 -5.89654,4.86812"
         fill="#d400aa"
         id="path1-6"
         style="stroke-width:0.05003" /><path
         d="m 93.886349,51.915757 19.122391,20.185065 c 1.69762,1.792072 1.6217,4.60169 -0.17042,6.299458 L 92.653159,97.522567 c -1.792028,1.69777 -4.601451,1.621859 -6.299218,-0.170266 L 67.231603,77.167189 c -1.697768,-1.792125 -1.621804,-4.601693 0.170274,-6.29951 L 87.587036,51.745391 c 1.792078,-1.697818 4.601646,-1.621854 6.299269,0.170219 z"
         fill="#f9f9f9"
         stroke="#1a1a1a"
         stroke-linecap="round"
         stroke-linejoin="round"
         stroke-width="0.255987"
         id="path2-1" /><path
         d="m 85.609841,125.6292 h -0.06699 l -0.258555,-0.5925 h 0.0766 l 0.215379,0.49695 0.21573,-0.49695 h 0.0766 z"
         id="path3-70"
         style="fill:#ffffff;stroke-width:0.05003" /><path
         d="m 85.969057,125.6292 v -0.43541 h 0.06839 v 0.43541 z m 0.0805,-0.56769 c 0,0.0256 -0.02011,0.0453 -0.04688,0.0453 -0.02642,0 -0.04573,-0.0197 -0.04573,-0.0453 0,-0.0237 0.01931,-0.0444 0.04573,-0.0444 0.02677,0 0.04688,0.0207 0.04688,0.0444"
         id="path4-53"
         style="fill:#ffffff;stroke-width:0.05003" /><path
         d="m 86.551907,125.41407 c 0,-0.10376 -0.0809,-0.17005 -0.162948,-0.17005 -0.0903,0 -0.162798,0.0663 -0.162798,0.17005 0,0.10397 0.07249,0.16886 0.162798,0.16886 0.08205,0 0.162948,-0.0649 0.162948,-0.16886 m 0.06724,0.23665 c 0,0.12292 -0.102011,0.20227 -0.229238,0.20227 -0.109065,0 -0.180758,-0.0426 -0.214979,-0.11277 l 0.05823,-0.0442 c 0.03032,0.0588 0.07409,0.0915 0.156744,0.0915 0.08835,0 0.161047,-0.0565 0.161998,-0.14579 v -0.0829 c -0.03827,0.0536 -0.09946,0.0847 -0.173505,0.0847 -0.116469,0 -0.21773,-0.0915 -0.21773,-0.22944 0,-0.13838 0.101261,-0.22883 0.21773,-0.22883 0.07405,0 0.135232,0.0309 0.173505,0.0833 v -0.0726 h 0.06724 z"
         id="path5-03"
         style="fill:#ffffff;stroke-width:0.05003" /><path
         d="m 86.781044,125.6292 v -0.43541 h 0.06844 v 0.43541 z m 0.08075,-0.56769 c 0,0.0256 -0.02051,0.0453 -0.04693,0.0453 -0.02657,0 -0.04593,-0.0197 -0.04593,-0.0453 0,-0.0237 0.01936,-0.0444 0.04593,-0.0444 0.02642,0 0.04693,0.0207 0.04693,0.0444"
         id="path6-84"
         style="fill:#ffffff;stroke-width:0.05003" /><path
         d="m 87.069717,125.51914 c 0,0.0354 0.02461,0.058 0.06154,0.058 0.01721,0 0.03522,-0.005 0.05258,-0.0135 l 0.01391,0.0563 c -0.02111,0.0121 -0.04343,0.0225 -0.077,0.0225 -0.07154,0 -0.118671,-0.0483 -0.118671,-0.11982 v -0.57339 h 0.06764 z"
         id="path7-3"
         style="fill:#ffffff;stroke-width:0.05003" /><path
         d="m 87.569017,125.4491 v -0.0223 h -0.147339 c -0.07209,0 -0.110216,0.0342 -0.110216,0.0827 0,0.0457 0.04102,0.0784 0.103562,0.0784 0.08485,0 0.153993,-0.0592 0.153993,-0.13878 m 0.06589,-0.10027 v 0.28277 h -0.06589 v -0.0656 c -0.03322,0.0451 -0.0879,0.0776 -0.163748,0.0776 -0.09496,0 -0.158095,-0.0551 -0.158095,-0.13328 0,-0.0805 0.06119,-0.13683 0.175105,-0.13683 h 0.146738 v -0.0199 c 0,-0.0682 -0.04413,-0.10967 -0.110967,-0.10967 -0.06644,0 -0.112767,0.0338 -0.122373,0.0885 l -0.06449,-0.0144 c 0.01391,-0.079 0.08755,-0.13248 0.18296,-0.13248 0.108615,0 0.180758,0.0578 0.180758,0.16334"
         id="path8-94"
         style="fill:#ffffff;stroke-width:0.05003" /><path
         d="m 88.120848,125.41407 c 0,-0.10376 -0.08055,-0.17005 -0.162798,-0.17005 -0.0905,0 -0.162797,0.0663 -0.162797,0.17005 0,0.10397 0.07229,0.16886 0.162797,0.16886 0.08225,0 0.162798,-0.0649 0.162798,-0.16886 m 0.06724,0.21768 h -0.06724 v -0.0729 c -0.03812,0.0536 -0.09946,0.0847 -0.173954,0.0847 -0.11587,0 -0.217281,-0.0915 -0.217281,-0.22944 0,-0.13838 0.101411,-0.22883 0.217281,-0.22883 0.07449,0 0.135831,0.0309 0.173954,0.0833 v -0.31819 h 0.06724 z"
         id="path9-96"
         style="fill:#ffffff;stroke-width:0.05003" /><path
         d="m 88.625151,125.4491 v -0.0223 h -0.147539 c -0.07214,0 -0.109866,0.0342 -0.109866,0.0827 0,0.0457 0.04068,0.0784 0.103612,0.0784 0.0844,0 0.153793,-0.0592 0.153793,-0.13878 m 0.06544,-0.10027 v 0.28277 h -0.06544 v -0.0656 c -0.03342,0.0451 -0.08835,0.0776 -0.163599,0.0776 -0.09556,0 -0.158695,-0.0551 -0.158695,-0.13328 0,-0.0805 0.06099,-0.13683 0.175506,-0.13683 h 0.146788 v -0.0199 c 0,-0.0682 -0.04418,-0.10967 -0.111617,-0.10967 -0.06604,0 -0.112368,0.0338 -0.121323,0.0885 l -0.06509,-0.0144 c 0.01406,-0.079 0.08775,-0.13248 0.18311,-0.13248 0.108865,0 0.180358,0.0578 0.180358,0.16334"
         id="path10-99"
         style="fill:#ffffff;stroke-width:0.05003" /><path
         d="m 89.686788,125.6292 h -0.06699 v -0.43461 l -0.229037,0.43461 h -0.04518 l -0.230188,-0.43461 v 0.43461 h -0.06764 v -0.5925 h 0.06174 l 0.258205,0.48854 0.257955,-0.48854 h 0.06114 z"
         id="path11-5"
         style="fill:#ffffff;stroke-width:0.05003" /><path
         d="m 89.850886,125.6292 v -0.43541 h 0.06744 v 0.43541 z m 0.07995,-0.56769 c 0,0.0256 -0.02036,0.0453 -0.04693,0.0453 -0.02697,0 -0.04593,-0.0197 -0.04593,-0.0453 0,-0.0237 0.01896,-0.0444 0.04593,-0.0444 0.02657,0 0.04693,0.0207 0.04693,0.0444"
         id="path12-45"
         style="fill:#ffffff;stroke-width:0.05003" /><path
         d="m 90.488269,125.36905 v 0.2605 h -0.06759 V 125.381 c 0,-0.0803 -0.04808,-0.13603 -0.121173,-0.13603 -0.0913,0 -0.15089,0.0613 -0.15089,0.17531 v 0.20927 h -0.06704 v -0.43561 h 0.06704 v 0.0726 c 0.03457,-0.0534 0.09085,-0.0833 0.164749,-0.0833 0.105163,0 0.174905,0.0748 0.174905,0.18581"
         id="path13-20"
         style="fill:#ffffff;stroke-width:0.05003" /><path
         d="m 90.661372,125.37405 h 0.302732 c -0.01211,-0.0854 -0.07309,-0.13288 -0.146788,-0.13288 -0.06994,0 -0.143236,0.0475 -0.155944,0.13288 m 0.371323,0.051 h -0.374424 c 0.0057,0.0981 0.0801,0.15654 0.155543,0.15654 0.06174,0 0.11767,-0.0236 0.148139,-0.0942 l 0.05999,0.0145 c -0.03362,0.0906 -0.110416,0.13893 -0.208125,0.13893 -0.11572,0 -0.221033,-0.0897 -0.221033,-0.22829 0,-0.14068 0.105313,-0.22998 0.224535,-0.22998 0.118621,0 0.210276,0.0874 0.215379,0.21713 z"
         id="path14-74"
         style="fill:#ffffff;stroke-width:0.05003" /><path
         d="m 91.498875,125.41407 c 0,-0.10376 -0.0799,-0.17005 -0.162397,-0.17005 -0.0901,0 -0.163148,0.0663 -0.163148,0.17005 0,0.10397 0.07304,0.16886 0.163148,0.16886 0.0825,0 0.162397,-0.0649 0.162397,-0.16886 m 0.06784,0.21768 h -0.06784 v -0.0729 c -0.03752,0.0536 -0.09886,0.0847 -0.172554,0.0847 -0.116069,0 -0.21753,-0.0915 -0.21753,-0.22944 0,-0.13838 0.101461,-0.22883 0.21753,-0.22883 0.0737,0 0.135031,0.0309 0.172554,0.0833 v -0.31819 h 0.06784 z"
         id="path15-24"
         style="fill:#ffffff;stroke-width:0.05003" /><path
         d="m 92.120248,125.6292 h -0.06819 v -0.0703 c -0.03457,0.0518 -0.09246,0.0823 -0.163948,0.0823 -0.105564,0 -0.175906,-0.0755 -0.175906,-0.18646 v -0.26051 h 0.06839 v 0.2488 c 0,0.0811 0.04748,0.13423 0.120022,0.13423 0.09145,0 0.151441,-0.0602 0.151441,-0.1737 v -0.20933 h 0.06819 z"
         id="path16-69"
         style="fill:#ffffff;stroke-width:0.05003" /><path
         d="m 92.606039,125.47911 0.06234,0.0164 c -0.02657,0.087 -0.110417,0.14484 -0.206924,0.14484 -0.122924,0 -0.227287,-0.0909 -0.227287,-0.22964 0,-0.13663 0.104363,-0.22869 0.227287,-0.22869 0.09556,0 0.179207,0.0553 0.207124,0.14424 l -0.06469,0.0198 c -0.02031,-0.0666 -0.07875,-0.10221 -0.142435,-0.10221 -0.08895,0 -0.161647,0.0674 -0.161647,0.1669 0,0.10201 0.07269,0.1669 0.161647,0.1669 0.06369,0 0.122123,-0.0348 0.144586,-0.0985"
         id="path17-0"
         style="fill:#ffffff;stroke-width:0.05003" /><path
         d="m 93.066315,125.4491 v -0.0223 h -0.148289 c -0.07214,0 -0.109865,0.0342 -0.109865,0.0827 0,0.0457 0.04007,0.0784 0.103212,0.0784 0.0856,0 0.154942,-0.0592 0.154942,-0.13878 m 0.06449,-0.10027 v 0.28277 h -0.06449 v -0.0656 c -0.03437,0.0451 -0.0895,0.0776 -0.163948,0.0776 -0.09596,0 -0.158095,-0.0551 -0.158095,-0.13328 0,-0.0805 0.05999,-0.13683 0.174705,-0.13683 h 0.147338 v -0.0199 c 0,-0.0682 -0.04573,-0.10967 -0.111366,-0.10967 -0.06704,0 -0.113769,0.0338 -0.122524,0.0885 l -0.06489,-0.0144 c 0.01446,-0.079 0.08755,-0.13248 0.18291,-0.13248 0.109266,0 0.180358,0.0578 0.180358,0.16334"
         id="path18-02"
         style="fill:#ffffff;stroke-width:0.05003" /><path
         d="m 93.597634,125.47911 0.06219,0.0164 c -0.02542,0.087 -0.109266,0.14484 -0.205824,0.14484 -0.123274,0 -0.227837,-0.0909 -0.227837,-0.22964 0,-0.13663 0.104563,-0.22869 0.227837,-0.22869 0.09501,0 0.179208,0.0553 0.207375,0.14424 l -0.06489,0.0198 c -0.02131,-0.0666 -0.07815,-0.10221 -0.142486,-0.10221 -0.0897,0 -0.162197,0.0674 -0.162197,0.1669 0,0.10201 0.07249,0.1669 0.162197,0.1669 0.06434,0 0.121173,-0.0348 0.143636,-0.0985"
         id="path19-64"
         style="fill:#ffffff;stroke-width:0.05003" /><path
         d="m 93.781745,125.6292 v -0.43541 h 0.06859 v 0.43541 z m 0.08035,-0.56769 c 0,0.0256 -0.01896,0.0453 -0.04633,0.0453 -0.02637,0 -0.04573,-0.0197 -0.04573,-0.0453 0,-0.0237 0.01936,-0.0444 0.04573,-0.0444 0.02737,0 0.04633,0.0207 0.04633,0.0444"
         id="path20-26"
         style="fill:#ffffff;stroke-width:0.05003" /><path
         d="m 94.180484,125.1239 0.07114,-0.12427 h 0.07875 l -0.0903,0.12427 z m 0.189364,0.28807 c 0,-0.10026 -0.07485,-0.1677 -0.164349,-0.1677 -0.0901,0 -0.1667,0.0674 -0.1667,0.1677 0,0.10006 0.0766,0.16925 0.1667,0.16925 0.0895,0 0.164349,-0.0692 0.164349,-0.16925 m 0.06549,0 c 0,0.13328 -0.101461,0.22924 -0.229838,0.22924 -0.129978,0 -0.231789,-0.096 -0.231789,-0.22924 0,-0.13483 0.101811,-0.22748 0.231789,-0.22748 0.128377,0 0.229838,0.0927 0.229838,0.22748"
         id="path21-95"
         style="fill:#ffffff;stroke-width:0.05003" /><path
         d="m 94.95745,125.36905 v 0.2605 H 94.89061 V 125.381 c 0,-0.0803 -0.04943,-0.13603 -0.121173,-0.13603 -0.09201,0 -0.151641,0.0613 -0.151641,0.17531 v 0.20927 h -0.06724 v -0.43561 h 0.06724 v 0.0726 c 0.03517,-0.0534 0.0911,-0.0833 0.163999,-0.0833 0.105513,0 0.175655,0.0748 0.175655,0.18581"
         id="path22-6"
         style="fill:#ffffff;stroke-width:0.05003" /><g
         id="g178-4"><path
           d="m 75.57582,114.28239 c 0.04143,-0.0375 0.105314,-0.0346 0.143036,0.007 0.03792,0.0414 0.03477,0.10551 -0.0065,0.14323 -0.04142,0.0377 -0.105513,0.0348 -0.143436,-0.007 -0.03752,-0.0412 -0.03457,-0.10531 0.0069,-0.14324"
           id="path30-3"
           style="fill:#ffffff;stroke-width:0.05003" /><path
           d="m 75.906519,114.64761 c 0.04143,-0.0375 0.105513,-0.0346 0.143236,0.007 0.03792,0.0414 0.03482,0.10556 -0.0067,0.14328 -0.04142,0.0377 -0.105313,0.0348 -0.143236,-0.007 -0.03752,-0.0416 -0.03457,-0.10556 0.0067,-0.14344"
           id="path31-3"
           style="fill:#ffffff;stroke-width:0.05003" /><path
           d="m 75.49227,115.64821 c 0.04338,-0.0356 0.107115,-0.0293 0.142836,0.0141 0.03557,0.0434 0.02932,0.10707 -0.01386,0.14284 -0.04338,0.0356 -0.107115,0.0291 -0.142836,-0.0141 -0.03537,-0.0434 -0.02932,-0.10711 0.01386,-0.14284"
           id="path32-9"
           style="fill:#ffffff;stroke-width:0.05003" /><path
           d="m 75.811962,116.04845 c 0.04358,-0.035 0.107465,-0.0278 0.142436,0.0162 0.03482,0.0438 0.02757,0.10752 -0.01601,0.14249 -0.04398,0.035 -0.107665,0.0277 -0.142686,-0.0162 -0.03477,-0.0438 -0.02752,-0.10751 0.01626,-0.14249"
           id="path33-2"
           style="fill:#ffffff;stroke-width:0.05003" /><path
           d="m 75.762432,115.23797 c 0.04142,-0.0375 0.105364,-0.0346 0.143086,0.007 0.03787,0.0414 0.03477,0.10537 -0.0065,0.14329 -0.04162,0.0377 -0.105563,0.0346 -0.143436,-0.007 -0.03752,-0.0414 -0.03462,-0.10556 0.0068,-0.14343"
           id="path34-9"
           style="fill:#ffffff;stroke-width:0.05003" /><path
           d="m 75.32467,117.11409 c 0.04653,-0.0311 0.109465,-0.0186 0.140734,0.028 0.03107,0.0467 0.01876,0.10962 -0.02797,0.14068 -0.04673,0.0311 -0.109415,0.0188 -0.140484,-0.0279 -0.03132,-0.0465 -0.01881,-0.10967 0.02772,-0.14074"
           id="path35-8"
           style="fill:#ffffff;stroke-width:0.05003" /><path
           d="m 75.495772,116.68384 c 0.04553,-0.0322 0.108866,-0.0215 0.141285,0.0241 0.03247,0.0457 0.02171,0.10907 -0.02381,0.14148 -0.04573,0.0324 -0.109066,0.0217 -0.141485,-0.0241 -0.03227,-0.0455 -0.02171,-0.10902 0.02401,-0.14148"
           id="path36-0"
           style="fill:#ffffff;stroke-width:0.05003" /><path
           d="m 76.040099,113.64201 c 0.02442,-0.0502 0.085,-0.0713 0.135431,-0.0469 0.05043,0.0246 0.07154,0.0852 0.04713,0.13563 -0.02446,0.0504 -0.08525,0.0713 -0.135632,0.0469 -0.05023,-0.0244 -0.07134,-0.0852 -0.04693,-0.13563"
           id="path37-8"
           style="fill:#ffffff;stroke-width:0.05003" /><path
           d="m 76.176681,113.20675 c 0.003,-0.0559 0.05043,-0.0989 0.106514,-0.0962 0.05593,0.003 0.09911,0.05 0.09636,0.10617 -0.0028,0.0561 -0.05023,0.0991 -0.106514,0.0963 -0.05568,-0.003 -0.09886,-0.0504 -0.09636,-0.10631"
           id="path38-87"
           style="fill:#ffffff;stroke-width:0.05003" /><path
           d="m 76.127652,112.73647 c -0.01036,-0.0549 0.02582,-0.10792 0.0809,-0.11847 0.05513,-0.0104 0.108065,0.0258 0.118621,0.0807 0.01036,0.0551 -0.02577,0.10807 -0.0809,0.11843 -0.05508,0.0104 -0.108065,-0.0256 -0.118621,-0.0807"
           id="path39-2"
           style="fill:#ffffff;stroke-width:0.05003" /><path
           d="m 75.834476,112.26618 c -0.02817,-0.0483 -0.01196,-0.11021 0.03652,-0.13873 0.04828,-0.0284 0.110416,-0.0122 0.138783,0.0363 0.02832,0.0483 0.01191,0.11022 -0.03637,0.13879 -0.04848,0.0281 -0.110416,0.0119 -0.138933,-0.0364"
           id="path40-5"
           style="fill:#ffffff;stroke-width:0.05003" /><path
           d="m 75.735416,113.93719 c 0.04143,-0.0377 0.105514,-0.0346 0.143236,0.007 0.03792,0.0414 0.03482,0.10551 -0.0066,0.14324 -0.04148,0.0377 -0.105363,0.0348 -0.143286,-0.007 -0.03752,-0.0414 -0.03457,-0.10531 0.0067,-0.14323"
           id="path41-9"
           style="fill:#ffffff;stroke-width:0.05003" /><path
           d="m 72.42593,114.28239 c -0.04162,-0.0375 -0.105563,-0.0346 -0.143236,0.007 -0.03792,0.0414 -0.03482,0.10551 0.0064,0.14323 0.04163,0.0377 0.105564,0.0348 0.143486,-0.007 0.03752,-0.0412 0.03457,-0.10531 -0.0067,-0.14324"
           id="path43-4"
           style="fill:#ffffff;stroke-width:0.05003" /><path
           d="m 72.098734,114.64761 c -0.04142,-0.0375 -0.105363,-0.0346 -0.143086,0.007 -0.03787,0.0414 -0.03477,0.10556 0.0065,0.14328 0.04162,0.0377 0.105563,0.0348 0.143486,-0.007 0.03752,-0.0416 0.03457,-0.10556 -0.0069,-0.14344"
           id="path44-4"
           style="fill:#ffffff;stroke-width:0.05003" /><path
           d="m 72.509481,115.64821 c -0.04343,-0.0356 -0.107115,-0.0293 -0.142886,0.0141 -0.03557,0.0434 -0.02932,0.10707 0.01406,0.14284 0.04323,0.0356 0.107115,0.0291 0.142686,-0.0141 0.03537,-0.0434 0.02932,-0.10711 -0.01386,-0.14284"
           id="path45-3"
           style="fill:#ffffff;stroke-width:0.05003" /><path
           d="m 72.190289,116.04845 c -0.04378,-0.035 -0.107464,-0.0278 -0.142686,0.0162 -0.03477,0.0438 -0.02752,0.10752 0.01626,0.14249 0.04378,0.035 0.107465,0.0277 0.142436,-0.0162 0.03482,-0.0438 0.02757,-0.10751 -0.01601,-0.14249"
           id="path46-6"
           style="fill:#ffffff;stroke-width:0.05003" /><path
           d="m 72.239318,115.23797 c -0.04162,-0.0375 -0.105513,-0.0346 -0.143236,0.007 -0.03792,0.0414 -0.03477,0.10537 0.0067,0.14329 0.04143,0.0377 0.105314,0.0346 0.143236,-0.007 0.03752,-0.0414 0.03457,-0.10556 -0.0067,-0.14343"
           id="path47-8"
           style="fill:#ffffff;stroke-width:0.05003" /><path
           d="m 72.677081,117.11409 c -0.04648,-0.0311 -0.109416,-0.0186 -0.140484,0.028 -0.03127,0.0467 -0.01896,0.10962 0.02772,0.14068 0.04673,0.0311 0.109466,0.0188 0.140535,-0.0279 0.03127,-0.0465 0.01876,-0.10967 -0.02777,-0.14074"
           id="path48-9"
           style="fill:#ffffff;stroke-width:0.05003" /><path
           d="m 72.505478,116.68384 c -0.04558,-0.0322 -0.108865,-0.0215 -0.141335,0.0241 -0.03242,0.0457 -0.02166,0.10907 0.02387,0.14148 0.04593,0.0324 0.109065,0.0217 0.141485,-0.0241 0.03227,-0.0455 0.02171,-0.10902 -0.02402,-0.14148"
           id="path49-8"
           style="fill:#ffffff;stroke-width:0.05003" /><path
           d="m 71.961652,113.64201 c -0.02461,-0.0502 -0.0852,-0.0713 -0.135632,-0.0469 -0.05038,0.0246 -0.07149,0.0852 -0.04688,0.13563 0.02442,0.0504 0.085,0.0713 0.135432,0.0469 0.05023,-0.0244 0.07154,-0.0852 0.04708,-0.13563"
           id="path50-8"
           style="fill:#ffffff;stroke-width:0.05003" /><path
           d="m 71.82507,113.20675 c -0.0029,-0.0559 -0.05043,-0.0989 -0.106514,-0.0962 -0.05568,0.003 -0.09906,0.05 -0.09636,0.10617 0.003,0.0561 0.05043,0.0991 0.106514,0.0963 0.05573,-0.003 0.09911,-0.0504 0.09636,-0.10631"
           id="path51-2"
           style="fill:#ffffff;stroke-width:0.05003" /><path
           d="m 71.874099,112.73647 c 0.01036,-0.0549 -0.02577,-0.10792 -0.0809,-0.11847 -0.05508,-0.0104 -0.108065,0.0258 -0.118621,0.0807 -0.01036,0.0551 0.02581,0.10807 0.0809,0.11843 0.05513,0.0104 0.108065,-0.0256 0.118621,-0.0807"
           id="path52-0"
           style="fill:#ffffff;stroke-width:0.05003" /><path
           d="m 72.167275,112.26618 c 0.02812,-0.0483 0.01191,-0.11021 -0.03657,-0.13873 -0.04823,-0.0284 -0.110216,-0.0122 -0.138533,0.0363 -0.02852,0.0483 -0.01211,0.11022 0.03617,0.13879 0.04843,0.0281 0.110416,0.0119 0.138933,-0.0364"
           id="path53-5"
           style="fill:#ffffff;stroke-width:0.05003" /><path
           d="m 72.266335,113.93719 c -0.04143,-0.0377 -0.105514,-0.0346 -0.143236,0.007 -0.03772,0.0414 -0.03477,0.10551 0.0067,0.14324 0.04143,0.0377 0.105513,0.0348 0.143236,-0.007 0.03772,-0.0414 0.03462,-0.10531 -0.0067,-0.14323"
           id="path54-84"
           style="fill:#ffffff;stroke-width:0.05003" /><g
           id="g177-3"><g
             fill="none"
             stroke="#0b3312"
             stroke-miterlimit="10"
             stroke-width="2.6826"
             id="g26-9"
             transform="matrix(0.03752345,0,0,0.03752345,65.119046,50.394059)"><path
               transform="scale(1.3333,-1.3333)"
               d="M 116.43,-1200.5 H 839.38"
               id="path25-00"
               style="stroke:#ffffff" /><path
               transform="scale(1.3333,-1.3333)"
               d="M 116.43,-1370 H 839.38"
               id="path26-355"
               style="stroke:#ffffff" /></g><path
             d="m 89.339579,115.75328 v -1.11667 h 0.310937 c 0.08385,0 0.157494,0.009 0.218081,0.0223 0.06119,0.0149 0.115519,0.0364 0.158495,0.0665 0.07194,0.048 0.128027,0.11547 0.168851,0.19777 0.04183,0.0823 0.06079,0.17335 0.06079,0.27281 0,0.0977 -0.01896,0.18822 -0.06079,0.27342 -0.04082,0.0823 -0.09691,0.14754 -0.168851,0.19757 -0.04298,0.0299 -0.09731,0.0516 -0.158495,0.0668 -0.06059,0.0129 -0.134231,0.0195 -0.218081,0.0195 z m 0.585702,0.0624 c 0.07249,-0.0194 0.13448,-0.0493 0.188413,-0.0909 0.0811,-0.0608 0.143036,-0.13623 0.188363,-0.22944 0.04593,-0.0932 0.06764,-0.19562 0.06764,-0.30133 0,-0.10631 -0.02171,-0.20637 -0.06764,-0.30158 -0.04533,-0.093 -0.107265,-0.16885 -0.188363,-0.22944 -0.05393,-0.0414 -0.11592,-0.0717 -0.186262,-0.0909 -0.06959,-0.0172 -0.151841,-0.0283 -0.251501,-0.0283 h -0.444016 v 1.30213 h 0.444016 c 0.09771,0 0.180358,-0.0108 0.24935,-0.0303 m -1.862268,-0.48764 0.237093,-0.56319 0.23389,0.56319 z m 0.215179,-0.73479 -0.535471,1.2527 h 0.103962 l 0.18236,-0.43306 h 0.538773 l 0.18311,0.43306 h 0.104012 l -0.535521,-1.2527 z m -1.759856,1.16005 v -1.11667 h 0.309986 c 0.084,0 0.157495,0.009 0.218081,0.0223 0.06174,0.0149 0.115319,0.0364 0.158696,0.0665 0.07189,0.048 0.127826,0.11547 0.169801,0.19777 0.04048,0.0823 0.05984,0.17335 0.05984,0.27281 0,0.0977 -0.01936,0.18822 -0.05984,0.27342 -0.04197,0.0823 -0.09791,0.14754 -0.169801,0.19757 -0.04338,0.0299 -0.09696,0.0516 -0.158696,0.0668 -0.06059,0.0129 -0.13408,0.0195 -0.218081,0.0195 z m 0.584951,0.0624 c 0.07149,-0.0194 0.13208,-0.0493 0.188964,-0.0909 0.08035,-0.0608 0.142485,-0.13623 0.188413,-0.22944 0.04533,-0.0932 0.06664,-0.19562 0.06664,-0.30133 0,-0.10631 -0.02131,-0.20637 -0.06664,-0.30158 -0.04593,-0.093 -0.108065,-0.16885 -0.188413,-0.22944 -0.05688,-0.0414 -0.117471,-0.0717 -0.187413,-0.0909 -0.06859,-0.0172 -0.15089,-0.0283 -0.25055,-0.0283 H 86.40792 v 1.30213 h 0.446368 c 0.09736,0 0.179408,-0.0108 0.248999,-0.0303 m -1.177106,-1.27186 h -0.109616 v 1.30233 h 0.109616 z m -0.524715,0.96403 c 0,-0.043 -0.0078,-0.0838 -0.02071,-0.12367 -0.01561,-0.0385 -0.03652,-0.0735 -0.06334,-0.10342 -0.04122,-0.0457 -0.121723,-0.093 -0.238393,-0.14088 -0.01291,-0.006 -0.02131,-0.009 -0.02757,-0.0137 -0.106714,-0.0451 -0.175705,-0.0838 -0.206374,-0.12077 -0.03242,-0.0342 -0.04788,-0.0823 -0.04788,-0.13873 0,-0.0698 0.02326,-0.12803 0.07349,-0.17571 0.04983,-0.0449 0.112767,-0.0694 0.190314,-0.0694 0.04773,0 0.09616,0.009 0.143486,0.0258 0.05058,0.0174 0.10006,0.0461 0.153992,0.0826 v -0.11667 c -0.04963,-0.0285 -0.09736,-0.05 -0.145037,-0.0652 -0.04788,-0.0124 -0.09731,-0.0219 -0.147338,-0.0219 -0.111017,0 -0.19972,0.0326 -0.268911,0.0975 -0.06974,0.0651 -0.103963,0.14774 -0.103963,0.24685 0,0.0825 0.02151,0.15009 0.06744,0.20227 0.04533,0.0518 0.129527,0.10396 0.253452,0.15514 0.119221,0.0506 0.195017,0.0937 0.227887,0.13058 0.03417,0.0391 0.04903,0.087 0.04903,0.14559 0,0.0802 -0.02306,0.14248 -0.07349,0.18996 -0.04708,0.0457 -0.114719,0.0697 -0.19912,0.0697 -0.04983,0 -0.104562,-0.013 -0.156343,-0.035 -0.05608,-0.0231 -0.112568,-0.058 -0.173154,-0.10611 v 0.12567 c 0.05648,0.0397 0.110416,0.0672 0.164949,0.0868 0.05568,0.019 0.110416,0.0282 0.1667,0.0282 0.111216,0 0.20127,-0.0317 0.273214,-0.0995 0.07134,-0.067 0.107664,-0.15184 0.107664,-0.256 m -1.845607,-0.87493 h 0.21633 c 0.09711,0 0.171002,0.0192 0.225335,0.0623 0.05178,0.0416 0.07755,0.0999 0.07755,0.17531 0,0.0547 -0.01036,0.10181 -0.03397,0.13953 -0.02406,0.0391 -0.05903,0.0668 -0.106714,0.0877 -0.02562,0.0113 -0.05628,0.0201 -0.09496,0.0268 -0.04007,0.004 -0.107114,0.006 -0.203472,0.006 h -0.0801 z m 0,0.58686 h 0.104513 c 0.07469,0 0.129777,0.006 0.165949,0.0153 0.03712,0.008 0.06704,0.0264 0.09146,0.0498 0.01661,0.0174 0.03847,0.0457 0.06859,0.0869 0.02852,0.0389 0.06509,0.0907 0.104163,0.15419 l 0.205973,0.31994 h 0.11667 l -0.355263,-0.54778 c -0.01506,-0.0239 -0.03287,-0.0459 -0.04948,-0.0631 -0.01951,-0.0174 -0.04163,-0.0324 -0.06524,-0.0473 0.08185,-0.0264 0.143636,-0.0657 0.184261,-0.11982 0.04142,-0.0522 0.06059,-0.11923 0.06059,-0.19737 0,-0.10572 -0.03477,-0.18606 -0.107865,-0.24235 -0.07464,-0.0561 -0.178056,-0.0844 -0.314238,-0.0844 h -0.312488 v 1.30213 h 0.102412 z m -0.561887,0.53727 h -0.609166 v -0.52907 h 0.574195 v -0.0834 h -0.574195 v -0.51631 h 0.594307 v -0.0844 h -0.698269 v 1.30213 h 0.713128 z m -1.568892,0.11082 0.546428,-1.32405 h -0.110616 l -0.444617,1.09261 -0.439314,-1.09261 h -0.115519 l 0.547979,1.32405 z m -1.046928,-0.0219 h 0.110616 v -1.30213 h -0.110616 z m -1.521413,-1.16985 0.953272,1.15069 h 0.09561 v -1.30058 h -0.102412 v 1.13313 l -0.942565,-1.13313 h -0.107865 v 1.30058 h 0.103962 z m -1.177456,1.28517 c 0.186411,0 0.33435,-0.059 0.443416,-0.1755 0.107264,-0.11707 0.163948,-0.27557 0.163948,-0.47274 v -0.86066 h -0.124074 v 0.86727 c 0,0.15794 -0.04338,0.28377 -0.128978,0.37722 -0.08935,0.093 -0.206574,0.14109 -0.354312,0.14109 -0.147189,0 -0.264459,-0.0481 -0.351011,-0.14109 -0.0887,-0.0934 -0.132479,-0.21928 -0.132479,-0.37722 v -0.86727 h -0.118472 v 0.86066 c 0,0.19932 0.05358,0.35782 0.162248,0.47274 0.108465,0.11647 0.255803,0.1755 0.439714,0.1755 m 20.819492,-0.87142 c -0.03652,0.085 -0.0862,0.16085 -0.153792,0.22628 -0.06919,0.0668 -0.147539,0.11943 -0.231789,0.1513 -0.0889,0.0342 -0.180008,0.0522 -0.279868,0.0522 -0.09731,0 -0.188363,-0.018 -0.277667,-0.0522 -0.08835,-0.0368 -0.164398,-0.087 -0.230838,-0.1513 -0.06759,-0.0654 -0.119772,-0.14128 -0.154393,-0.22628 -0.03692,-0.0839 -0.05413,-0.171 -0.05413,-0.26601 0,-0.093 0.01721,-0.18231 0.05413,-0.26911 0.03717,-0.0844 0.0868,-0.1579 0.154393,-0.22319 0.07054,-0.0652 0.149539,-0.11682 0.237242,-0.15359 0.0868,-0.0352 0.178057,-0.0524 0.271263,-0.0524 0.09791,0 0.188613,0.0172 0.275165,0.0524 0.0872,0.0344 0.164749,0.0864 0.23259,0.15359 0.07149,0.0694 0.123324,0.14524 0.159845,0.22964 0.03442,0.0823 0.05178,0.16965 0.05178,0.26266 0,0.095 -0.01736,0.18216 -0.05393,0.26601 m 0.134681,-1.02306 c -0.106314,-0.10107 -0.227687,-0.17691 -0.363918,-0.23144 -0.139134,-0.052 -0.283571,-0.0799 -0.436212,-0.0799 -0.14929,0 -0.291775,0.0279 -0.428757,0.0799 -0.136582,0.052 -0.260307,0.13037 -0.36602,0.23144 -0.106314,0.0979 -0.188613,0.21297 -0.247449,0.34335 -0.05628,0.12958 -0.08635,0.26616 -0.08635,0.40474 0,0.14539 0.02792,0.28608 0.0842,0.41645 0.05608,0.12978 0.138984,0.247 0.2496,0.35081 0.103562,0.0977 0.225135,0.17606 0.363868,0.22959 0.136432,0.0522 0.281619,0.0799 0.430909,0.0799 0.152641,0 0.297078,-0.0258 0.43366,-0.0778 0.137032,-0.0535 0.257805,-0.12952 0.368621,-0.23174 0.106464,-0.0997 0.186612,-0.21517 0.245047,-0.3422 0.05668,-0.12998 0.08425,-0.26676 0.08425,-0.4081 0,-0.14889 -0.02757,-0.28782 -0.0823,-0.41524 -0.05688,-0.13058 -0.140534,-0.2478 -0.249149,-0.34981 m 6.751058,1.43991 v -0.51436 h 0.98849 v -0.35922 h -0.98849 v -0.49404 h 1.01916 v -0.35767 h -1.43681 v 2.0825 h 1.46963 v -0.35721 z m -1.05123,-0.44677 c -0.002,0.13408 -0.0445,0.23394 -0.14069,0.31349 -0.0926,0.0785 -0.21868,0.12252 -0.38343,0.12252 -0.0975,0 -0.18156,-0.0176 -0.2535,-0.0479 -0.0738,-0.0305 -0.13638,-0.0784 -0.19112,-0.14093 -0.027,-0.0326 -0.0475,-0.0713 -0.0576,-0.11722 -0.0127,-0.0452 -0.02,-0.13213 -0.02,-0.25801 v -1.15964 h -0.38813 v 1.171 c 0,0.16005 0.0109,0.27927 0.0352,0.36387 0.0236,0.0829 0.0621,0.15849 0.11862,0.22513 0.0893,0.11082 0.19757,0.19292 0.32734,0.25116 0.12838,0.0565 0.27302,0.085 0.42916,0.085 0.26361,0 0.48544,-0.0735 0.65469,-0.22084 0.17156,-0.14598 0.25816,-0.3447 0.25501,-0.57904 v -1.29628 h -0.38558 z m -2.069,0.0285 c -0.0371,0.0864 -0.087,0.1644 -0.15419,0.22944 l -0.002,0.002 c -0.0692,0.0721 -0.14754,0.12332 -0.23179,0.16044 -0.087,0.0348 -0.17745,0.0536 -0.27281,0.0536 -0.0956,0 -0.18506,-0.0188 -0.27362,-0.0555 -0.0887,-0.0389 -0.16455,-0.0908 -0.23234,-0.15849 v -0.002 c -0.0666,-0.065 -0.11807,-0.14304 -0.15284,-0.22944 -0.0375,-0.0872 -0.0543,-0.17761 -0.0543,-0.27357 0,-0.0971 0.0168,-0.18841 0.0543,-0.27676 0.0348,-0.087 0.0862,-0.1628 0.15164,-0.22864 0.0714,-0.0692 0.14874,-0.12077 0.2363,-0.15749 0.0889,-0.0373 0.17765,-0.0541 0.27086,-0.0541 0.0954,0 0.18586,0.0168 0.27281,0.0541 0.0864,0.0344 0.1626,0.0865 0.23059,0.15554 0.0708,0.0719 0.12237,0.14929 0.15774,0.23649 0.0365,0.0844 0.0537,0.17371 0.0537,0.27086 0,0.096 -0.0172,0.18642 -0.0537,0.27357 m 0.22944,0.43311 c 0.15655,-0.18666 0.23449,-0.4069 0.23449,-0.6561 0,-0.15224 -0.0289,-0.29567 -0.0829,-0.42795 -0.0559,-0.12998 -0.13858,-0.2488 -0.2472,-0.35492 -0.10381,-0.10181 -0.22553,-0.18255 -0.36176,-0.23649 -0.13894,-0.0541 -0.28122,-0.0819 -0.43326,-0.0819 -0.14969,0 -0.29293,0.0277 -0.42896,0.0819 -0.13503,0.0539 -0.2564,0.13233 -0.36507,0.23649 -0.10356,0.10162 -0.18606,0.21869 -0.24154,0.35082 -0.0594,0.13463 -0.0878,0.27046 -0.0878,0.41234 0,0.25756 0.0785,0.48699 0.23274,0.68066 0.15129,0.19232 0.35432,0.32014 0.60191,0.38268 0.18472,0.13073 0.35787,0.23039 0.52222,0.29898 0.1698,0.0717 0.32404,0.10631 0.46413,0.10631 h 0.0411 c 0.0133,0 0.0238,-10e-4 0.0342,-0.003 l 0.0166,-0.002 0.30879,-0.27126 -0.0235,-0.0653 -0.017,-0.0408 -0.0407,0.009 c -0.0403,0.009 -0.074,0.0129 -0.10712,0.0164 -0.0307,0.005 -0.0582,0.005 -0.0852,0.005 -0.0797,0 -0.16375,-0.0117 -0.25265,-0.0328 -0.0545,-0.0156 -0.11727,-0.0375 -0.18371,-0.0633 0.20302,-0.0754 0.37403,-0.18836 0.50205,-0.3443 m -2.622876,-0.88198 -0.04478,-0.0245 c -0.119372,-0.0691 -0.206524,-0.13208 -0.262808,-0.18621 -0.02857,-0.028 -0.04753,-0.0516 -0.05828,-0.0729 -0.01366,-0.0215 -0.01716,-0.0373 -0.01716,-0.05 0.0018,-0.0524 0.01856,-0.0875 0.06664,-0.12177 0.04808,-0.0348 0.110616,-0.0539 0.195217,-0.0539 0.07194,0 0.141285,0.0125 0.212027,0.0408 0.07215,0.0305 0.15204,0.0762 0.23885,0.14368 l 0.084,0.0625 v -0.44892 l -0.0252,-0.0155 c -0.0823,-0.0449 -0.16495,-0.0797 -0.24765,-0.10336 -0.08225,-0.0219 -0.164349,-0.0352 -0.24955,-0.0352 -0.187412,0 -0.348459,0.0526 -0.473934,0.15654 -0.123674,0.10377 -0.188563,0.24465 -0.188563,0.40685 0,0.11767 0.03262,0.22143 0.09946,0.30803 0.03712,0.0459 0.09145,0.0932 0.16515,0.14734 0.07565,0.0571 0.172753,0.11942 0.290224,0.19172 0.07404,0.042 0.13328,0.0817 0.179607,0.11431 0.04608,0.0327 0.07835,0.0606 0.09401,0.0778 0.03162,0.0389 0.04413,0.0778 0.04728,0.13013 -0.0032,0.0625 -0.02226,0.10186 -0.06959,0.13838 -0.04553,0.0348 -0.114919,0.0561 -0.209875,0.0561 -0.0889,0 -0.171403,-0.0192 -0.24975,-0.06 -0.077,-0.0395 -0.162198,-0.10887 -0.253502,-0.20342 l -0.09085,-0.0987 v 0.52101 l 0.02226,0.0147 c 0.086,0.0672 0.176506,0.11727 0.272814,0.14734 0.09696,0.0338 0.203272,0.0485 0.317591,0.0485 0.188613,0 0.349408,-0.0526 0.473338,-0.15615 0.12507,-0.10436 0.19016,-0.24329 0.19016,-0.40359 0,-0.13638 -0.0323,-0.256 -0.10146,-0.35331 -0.0693,-0.0995 -0.20362,-0.20167 -0.405695,-0.31834 m -3.797028,0.77621 c -0.05373,0.0413 -0.153592,0.0694 -0.298779,0.0666 h -0.360967 v -0.56358 h 0.310336 c 0.162998,0 0.275566,0.0279 0.337703,0.0735 0.06174,0.0467 0.09421,0.10862 0.09421,0.21493 0,0.10396 -0.02777,0.16615 -0.0825,0.20852 m -0.659746,-1.42175 h 0.243696 c 0.127827,0 0.211677,0.0231 0.257555,0.0604 0.02251,0.0198 0.03892,0.0407 0.05218,0.0735 0.01076,0.0305 0.01741,0.0698 0.01741,0.11707 0,0.10436 -0.03067,0.16925 -0.09341,0.21673 -0.06039,0.0451 -0.167101,0.0739 -0.320292,0.0739 h -0.157145 z m 0.770012,0.66895 c 0.05628,-0.0365 0.106464,-0.0781 0.143036,-0.13013 0.06154,-0.0836 0.0885,-0.18801 0.0885,-0.30723 0,-0.19091 -0.06464,-0.34766 -0.194617,-0.45492 -0.129978,-0.10867 -0.307634,-0.15795 -0.530968,-0.15795 h -0.687763 v 2.25566 h 0.805383 c 0.231789,0 0.421553,-0.0567 0.56559,-0.17141 0.142835,-0.11487 0.219281,-0.27476 0.21673,-0.46823 0,-0.14969 -0.04868,-0.28202 -0.140935,-0.38753 -0.06994,-0.078 -0.158495,-0.13738 -0.264959,-0.17826 M 93.221946,113.771 h -0.418251 v 2.09771 h 1.468881 v -0.35762 h -1.05063 z m -1.684211,1.15084 h 0.982039 v -0.38183 h -0.982039 v -0.54838 h 1.009956 V 113.615 h -1.426456 v 2.25371 h 1.459076 v -0.38148 h -1.042576 z"
             id="path28-5"
             style="fill:#ffffff;stroke-width:0.05003" /><path
             d="m 73.768736,117.9546 c -0.479037,-1.163 -0.647488,-2.36707 -0.647488,-3.60922 0,-0.53527 0.03402,-1.07194 0.123324,-1.59996 h 0.457124 c -0.110416,0.50225 -0.144837,1.01741 -0.144837,1.53042 0,1.07795 0.13368,2.22419 0.445567,3.26266 0.311938,-1.03847 0.445818,-2.18471 0.445818,-3.26266 0,-0.51301 -0.03422,-1.02817 -0.144637,-1.53042 h 0.456924 c 0.0893,0.52802 0.123524,1.06469 0.123524,1.59996 0,1.24215 -0.168701,2.44622 -0.647688,3.60922 z"
             id="path29-0"
             style="fill:#ffffff;stroke-width:0.05003" /><path
             d="m 75.477261,112.37625 c -0.03537,0.0323 -0.0901,0.0297 -0.122123,-0.006 -0.03227,-0.0354 -0.02952,-0.0899 0.0057,-0.12198 0.03517,-0.032 0.0899,-0.0297 0.121974,0.006 0.03222,0.035 0.02947,0.0897 -0.0055,0.12192 m -0.28377,-0.40064 c -0.131879,-0.0143 -0.204022,0.0246 -0.240744,0.058 -0.07309,0.0666 -0.0774,0.1671 -0.01156,0.2531 l 0.668601,0.89273 c 0.07169,0.094 0.07384,0.22374 -0.01411,0.30389 l -0.642185,0.58665 c -0.0879,0.0802 -0.09396,0.21618 -0.01406,0.30413 l 0.442265,0.48464 c 0.04007,0.0438 0.03672,0.11162 -0.0069,0.15144 l -0.485041,0.44172 c -0.08795,0.0801 -0.09421,0.21613 -0.01406,0.30408 l 0.387333,0.45317 c 0.03692,0.0463 0.02952,0.11377 -0.01681,0.15069 l -0.579248,0.40845 c -0.09341,0.0733 -0.109816,0.20832 -0.03637,0.30193 l 0.437363,0.61287 c 0.06919,0.0966 0.203472,0.11862 0.30003,0.0496 0.09671,-0.0693 0.118971,-0.20382 0.04963,-0.30018 l -0.24975,-0.37362 c -0.03677,-0.0467 -0.02857,-0.11397 0.01816,-0.15069 l 0.580198,-0.41375 c 0.09266,-0.0744 0.107714,-0.20967 0.03342,-0.30248 l -0.389084,-0.48779 c -0.03987,-0.0436 -0.03672,-0.11142 0.0071,-0.15129 l 0.484841,-0.44207 c 0.08775,-0.0801 0.09401,-0.21613 0.01386,-0.30408 l -0.441865,-0.48464 c -0.04002,-0.0436 -0.03672,-0.11142 0.0071,-0.15149 l 0.48349,-0.44147 c 0.06294,-0.0573 0.177457,-0.17275 0.212428,-0.49384 0.06959,-0.63924 -0.353713,-1.19192 -0.983991,-1.25976"
             id="path42-4"
             style="fill:#ffffff;stroke-width:0.05003" /><path
             d="m 72.520987,112.25118 c 0.03227,-0.0352 0.0868,-0.0375 0.121974,-0.006 0.03537,0.0323 0.03792,0.0867 0.0057,0.12198 -0.03207,0.0354 -0.08655,0.0379 -0.121973,0.006 -0.03517,-0.0323 -0.03787,-0.0867 -0.0057,-0.12197 m -0.694566,0.98128 c 0.03502,0.3211 0.149539,0.43637 0.212427,0.49365 l 0.48354,0.44167 c 0.04378,0.0399 0.04688,0.10766 0.007,0.15144 l -0.442066,0.48469 c -0.0801,0.0877 -0.07364,0.22393 0.01406,0.30388 l 0.484891,0.44207 c 0.04378,0.0401 0.04688,0.10786 0.0071,0.15144 l -0.389334,0.48779 c -0.07424,0.0929 -0.05918,0.22809 0.03362,0.30233 l 0.580249,0.41395 c 0.04668,0.0367 0.05473,0.10396 0.01816,0.15049 l -0.249949,0.37382 c -0.06919,0.0964 -0.04693,0.23079 0.04963,0.29998 0.09656,0.0692 0.230989,0.0469 0.30018,-0.0496 l 0.437363,-0.61266 c 0.07349,-0.0936 0.05708,-0.22864 -0.03652,-0.30214 l -0.579048,-0.40824 c -0.04633,-0.0369 -0.05378,-0.10436 -0.01681,-0.15069 l 0.387333,-0.45337 c 0.07995,-0.0878 0.07384,-0.22379 -0.01406,-0.30394 l -0.485091,-0.44166 c -0.04378,-0.0399 -0.04688,-0.10787 -0.007,-0.15164 l 0.442265,-0.48449 c 0.0801,-0.0879 0.07385,-0.22394 -0.01391,-0.30408 l -0.642185,-0.58666 c -0.0879,-0.0801 -0.0858,-0.20992 -0.01406,-0.30388 l 0.668552,-0.89273 c 0.06569,-0.086 0.06139,-0.18647 -0.01171,-0.25311 -0.03657,-0.0334 -0.108665,-0.0723 -0.240594,-0.0582 -0.630628,0.068 -1.053732,0.62067 -0.98399,1.25995"
             id="path55-3"
             style="fill:#ffffff;stroke-width:0.05003" /></g></g><path
         d="M 108.24492,100.01884 H 71.997673 c -1.349409,0 -2.443466,-1.09381 -2.443466,-2.44342 v -0.0774 c 0,-1.34966 1.094057,-2.443666 2.443466,-2.443666 h 36.247247 c 1.34946,0 2.44347,1.094006 2.44347,2.443666 v 0.0774 c 0,1.34961 -1.09401,2.44342 -2.44347,2.44342"
         id="path56-0"
         style="fill:#000000;stroke-width:0.05003" /><path
         d="m 72.713603,96.445692 v 0.455523 c -0.118271,-0.05298 -0.23354,-0.09281 -0.345908,-0.119772 -0.112567,-0.02682 -0.218681,-0.04027 -0.318741,-0.04027 -0.132529,0 -0.230638,0.01816 -0.294126,0.05473 -0.06334,0.03652 -0.09521,0.09321 -0.09521,0.170202 0,0.05764 0.02131,0.102812 0.06354,0.135431 0.04318,0.03167 0.121172,0.05924 0.23354,0.08225 l 0.236442,0.04753 c 0.239443,0.04808 0.409445,0.121173 0.510306,0.219082 0.101011,0.09811 0.151441,0.237442 0.151441,0.418201 0,0.237242 -0.07054,0.414098 -0.211827,0.530418 -0.140334,0.115469 -0.355313,0.173104 -0.644537,0.173104 -0.136432,0 -0.273414,-0.01306 -0.410797,-0.03907 -0.137582,-0.02577 -0.274965,-0.06429 -0.412347,-0.115269 v -0.468481 c 0.137382,0.07309 0.270062,0.128227 0.397889,0.165749 0.128777,0.03652 0.252651,0.05473 0.371873,0.05473 0.121173,0 0.213828,-0.02016 0.278317,-0.06044 0.06429,-0.04042 0.09656,-0.09806 0.09656,-0.173104 0,-0.06724 -0.02211,-0.119021 -0.06629,-0.155593 -0.04338,-0.03652 -0.130328,-0.06919 -0.260906,-0.09811 l -0.214929,-0.04748 c -0.21518,-0.04613 -0.372924,-0.119821 -0.472784,-0.220632 -0.09906,-0.10086 -0.148489,-0.236892 -0.148489,-0.408045 0,-0.214228 0.06914,-0.379177 0.207524,-0.494446 0.138383,-0.11532 0.337303,-0.172954 0.596858,-0.172954 0.118221,0 0.239794,0.009 0.364869,0.02737 0.124875,0.01716 0.254053,0.04378 0.387733,0.07935 z m 1.968731,1.273014 v 0.146938 H 73.47556 c 0.01251,0.121173 0.05628,0.211877 0.131129,0.272463 0.07505,0.06059 0.179808,0.09085 0.314439,0.09085 0.108465,0 0.219481,-0.01581 0.333049,-0.04748 0.114319,-0.03282 0.231589,-0.0819 0.351762,-0.147188 v 0.397939 c -0.122124,0.04608 -0.244297,0.0807 -0.36622,0.103762 -0.122174,0.02401 -0.244097,0.03612 -0.36627,0.03612 -0.292175,0 -0.519462,-0.07404 -0.681859,-0.221983 -0.161397,-0.14914 -0.242296,-0.357615 -0.242296,-0.625776 0,-0.263408 0.07935,-0.470382 0.237993,-0.621273 0.159496,-0.15104 0.378577,-0.226486 0.657445,-0.226486 0.253652,0 0.456524,0.0764 0.608365,0.229238 0.152842,0.152842 0.229237,0.357064 0.229237,0.612868 z m -0.530568,-0.171603 c 0,-0.09811 -0.02892,-0.176856 -0.0866,-0.236442 -0.05663,-0.06059 -0.131129,-0.0909 -0.223384,-0.0909 -0.10006,0 -0.181159,0.02837 -0.243696,0.085 -0.06254,0.05593 -0.101411,0.136632 -0.11667,0.242346 z m 2.142486,-0.363318 c 0.06529,-0.10006 0.142685,-0.175856 0.231989,-0.227837 0.09045,-0.05278 0.189363,-0.07935 0.297028,-0.07935 0.185461,0 0.326746,0.05724 0.423904,0.171603 0.09711,0.114319 0.145588,0.280619 0.145588,0.4989 v 0.98324 h -0.519062 v -0.841956 c 0.001,-0.01251 0.0016,-0.02557 0.0016,-0.03907 0.001,-0.01326 0.0016,-0.03262 0.0016,-0.05764 0,-0.114318 -0.01681,-0.197018 -0.05043,-0.247998 -0.03382,-0.05178 -0.08795,-0.0778 -0.162998,-0.0778 -0.09811,0 -0.173954,0.04047 -0.227887,0.121173 -0.05273,0.0807 -0.0801,0.197368 -0.08205,0.35021 v 0.793076 H 75.834473 V 97.68838 c 0,-0.178807 -0.01546,-0.293726 -0.04613,-0.344706 -0.03072,-0.05178 -0.0856,-0.0778 -0.164349,-0.0778 -0.09891,0 -0.175305,0.04087 -0.229237,0.122523 -0.05378,0.08075 -0.08075,0.196618 -0.08075,0.347509 v 0.794427 h -0.519061 v -1.614669 h 0.519061 v 0.236292 c 0.06354,-0.09126 0.136032,-0.160046 0.217731,-0.206174 0.08265,-0.04613 0.173554,-0.06919 0.272413,-0.06919 0.111617,0 0.210077,0.02697 0.295678,0.0807 0.0854,0.05393 0.15029,0.129377 0.194467,0.226486 z m 1.190364,-0.268111 h 0.51611 v 1.614669 h -0.51611 z m 0,-0.628677 h 0.51611 v 0.420952 h -0.51611 z m 0.962477,0 h 0.51616 v 2.243346 h -0.51616 z m 0.894687,0 h 0.51611 v 2.243346 h -0.51611 z m 2.506404,1.431709 v 0.146938 H 80.64141 c 0.01251,0.121173 0.05628,0.211877 0.131329,0.272463 0.07484,0.06059 0.179558,0.09085 0.314238,0.09085 0.108666,0 0.219632,-0.01581 0.333,-0.04748 0.114319,-0.03282 0.231589,-0.0819 0.351761,-0.147188 v 0.397939 c -0.122123,0.04608 -0.244096,0.0807 -0.366219,0.103762 -0.121924,0.02401 -0.244097,0.03612 -0.36622,0.03612 -0.292176,0 -0.519462,-0.07404 -0.681859,-0.221983 -0.161447,-0.14914 -0.242146,-0.357615 -0.242146,-0.625776 0,-0.263408 0.07915,-0.470382 0.237843,-0.621273 0.159446,-0.15104 0.378727,-0.226486 0.657445,-0.226486 0.253652,0 0.456523,0.0764 0.608365,0.229238 0.152791,0.152842 0.229237,0.357064 0.229237,0.612868 z m -0.530618,-0.171603 c 0,-0.09811 -0.02872,-0.176856 -0.08635,-0.236442 -0.05688,-0.06059 -0.131329,-0.0909 -0.223584,-0.0909 -0.09986,0 -0.181159,0.02837 -0.243696,0.085 -0.06234,0.05593 -0.101261,0.136632 -0.11667,0.242346 z m 1.845457,-0.191715 c -0.04513,-0.02131 -0.0903,-0.03652 -0.135431,-0.04633 -0.04418,-0.01056 -0.0889,-0.01581 -0.134081,-0.01581 -0.132679,0 -0.235091,0.04278 -0.307184,0.128377 -0.07094,0.08465 -0.106514,0.206174 -0.106514,0.364669 v 0.744047 h -0.51616 v -1.614669 h 0.51616 v 0.265209 c 0.06624,-0.105713 0.142085,-0.18271 0.227637,-0.230638 0.0866,-0.04903 0.189764,-0.07364 0.309986,-0.07364 0.01736,0 0.03612,9.51e-4 0.05628,0.0029 0.02011,0.001 0.04943,0.004 0.08795,0.0086 z m 0.809086,-0.109616 c -0.114319,0 -0.201872,0.04122 -0.262458,0.123874 -0.05964,0.0817 -0.0893,0.19992 -0.0893,0.354713 0,0.154793 0.02967,0.273414 0.0893,0.356064 0.06059,0.0817 0.148139,0.122573 0.262458,0.122573 0.112367,0 0.198569,-0.04087 0.257954,-0.122573 0.05964,-0.08265 0.0895,-0.201271 0.0895,-0.356064 0,-0.154793 -0.02987,-0.273014 -0.0895,-0.354713 -0.05939,-0.08265 -0.145587,-0.123874 -0.257954,-0.123874 z m 0,-0.369172 c 0.277716,0 0.494446,0.07505 0.65019,0.224935 0.156744,0.14989 0.234891,0.357615 0.234891,0.622824 0,0.265209 -0.07815,0.472934 -0.234891,0.622824 -0.155744,0.14989 -0.372474,0.224935 -0.65019,0.224935 -0.278668,0 -0.496999,-0.07505 -0.654493,-0.224935 -0.156744,-0.14989 -0.235091,-0.357615 -0.235091,-0.622824 0,-0.265209 0.07835,-0.472934 0.235091,-0.622824 0.157494,-0.14989 0.375825,-0.224935 0.654493,-0.224935 z m 2.872223,0.275366 v -0.864969 h 0.519061 v 2.243346 h -0.519061 v -0.23354 c -0.07114,0.09516 -0.14929,0.164748 -0.234891,0.208875 -0.0856,0.04438 -0.184511,0.06644 -0.297078,0.06644 -0.19892,0 -0.362318,-0.07895 -0.490144,-0.236442 -0.127777,-0.158695 -0.191715,-0.362318 -0.191715,-0.611317 0,-0.248949 0.06394,-0.452221 0.191715,-0.609716 0.127826,-0.158695 0.291224,-0.238043 0.490144,-0.238043 0.111617,0 0.210076,0.02266 0.295677,0.06779 0.0864,0.04418 0.165149,0.113368 0.236292,0.207576 z m -0.340254,1.045327 c 0.110616,0 0.194667,-0.04042 0.252301,-0.121173 0.05864,-0.0807 0.08795,-0.197969 0.08795,-0.351761 0,-0.153792 -0.02932,-0.271063 -0.08795,-0.351761 -0.05763,-0.0807 -0.141685,-0.121173 -0.252301,-0.121173 -0.109416,0 -0.193666,0.04048 -0.252302,0.121173 -0.05763,0.0807 -0.08635,0.197969 -0.08635,0.351761 0,0.153792 0.02872,0.271063 0.08635,0.351761 0.05864,0.08075 0.142886,0.121173 0.252302,0.121173 z m 2.743246,-0.478587 v 0.146938 H 88.04055 c 0.01251,0.121173 0.05628,0.211877 0.131329,0.272463 0.07484,0.06059 0.179607,0.09085 0.314238,0.09085 0.108465,0 0.219482,-0.01581 0.33305,-0.04748 0.114319,-0.03282 0.231589,-0.0819 0.351761,-0.147188 v 0.397939 c -0.122173,0.04608 -0.244096,0.0807 -0.36622,0.103762 -0.122173,0.02401 -0.244096,0.03612 -0.366269,0.03612 -0.292176,0 -0.519462,-0.07404 -0.68186,-0.221983 -0.161396,-0.14914 -0.242095,-0.357615 -0.242095,-0.625776 0,-0.263408 0.07915,-0.470382 0.237793,-0.621273 0.159496,-0.15104 0.378777,-0.226486 0.657444,-0.226486 0.253653,0 0.456524,0.0764 0.608365,0.229238 0.152842,0.152842 0.229238,0.357064 0.229238,0.612868 z m -0.530568,-0.171603 c 0,-0.09811 -0.02872,-0.176856 -0.0866,-0.236442 -0.05668,-0.06059 -0.131129,-0.0909 -0.223384,-0.0909 -0.09986,0 -0.181159,0.02837 -0.243697,0.085 -0.06234,0.05593 -0.101411,0.136632 -0.11667,0.242346 z m 1.416049,-1.169252 h 0.555033 v 2.152492 h -0.555033 z m 2.524415,1.169252 v 0.98324 h -0.519111 v -0.752602 c 0,-0.139384 -0.0033,-0.235491 -0.01,-0.288273 -0.0059,-0.05298 -0.01641,-0.09185 -0.03182,-0.11687 -0.02016,-0.03362 -0.04753,-0.05964 -0.0821,-0.0778 -0.03457,-0.01936 -0.07409,-0.02892 -0.118221,-0.02892 -0.107714,0 -0.192315,0.04183 -0.253702,0.125475 -0.06154,0.08265 -0.09221,0.197569 -0.09221,0.344557 v 0.794427 h -0.51616 v -1.614669 h 0.51616 v 0.236292 c 0.07775,-0.09421 0.160446,-0.163398 0.247798,-0.207575 0.08755,-0.04513 0.184061,-0.06779 0.289824,-0.06779 0.186412,0 0.327697,0.05724 0.423855,0.171603 0.09716,0.114319 0.145637,0.280619 0.145637,0.4989 z m -0.08755,-0.631429 h 0.51611 l 0.402191,1.115719 0.400841,-1.115719 h 0.517661 l -0.635932,1.614669 h -0.56654 z m 3.385782,0.803032 v 0.146938 h -1.206574 c 0.01251,0.121173 0.05628,0.211877 0.131129,0.272463 0.07505,0.06059 0.179808,0.09085 0.314238,0.09085 0.108666,0 0.219682,-0.01581 0.33305,-0.04748 0.114519,-0.03282 0.231789,-0.0819 0.351761,-0.147188 v 0.397939 c -0.121973,0.04608 -0.244096,0.0807 -0.366019,0.103762 -0.122174,0.02401 -0.244297,0.03612 -0.36627,0.03612 -0.292175,0 -0.519462,-0.07404 -0.681859,-0.221983 -0.161597,-0.14914 -0.242296,-0.357615 -0.242296,-0.625776 0,-0.263408 0.0793,-0.470382 0.237793,-0.621273 0.159696,-0.15104 0.378777,-0.226486 0.657444,-0.226486 0.253853,0 0.456524,0.0764 0.608366,0.229238 0.152841,0.152842 0.229237,0.357064 0.229237,0.612868 z m -0.530368,-0.171603 c 0,-0.09811 -0.02892,-0.176856 -0.0866,-0.236442 -0.05668,-0.06059 -0.131129,-0.0909 -0.223384,-0.0909 -0.10006,0 -0.181159,0.02837 -0.243696,0.085 -0.06254,0.05593 -0.101411,0.136632 -0.116871,0.242346 z m 1.907394,-0.580999 v 0.392035 c -0.110616,-0.04613 -0.21733,-0.0807 -0.320142,-0.103762 -0.102761,-0.02306 -0.19992,-0.03462 -0.291174,-0.03462 -0.09811,0 -0.171003,0.01251 -0.219082,0.03752 -0.04708,0.02406 -0.07074,0.06159 -0.07074,0.112367 0,0.04143 0.01776,0.07309 0.05333,0.09521 0.03657,0.02206 0.10146,0.03847 0.194666,0.04903 l 0.09086,0.01291 c 0.264259,0.03382 0.442065,0.0889 0.53337,0.165899 0.09146,0.07685 0.136982,0.197419 0.136982,0.361767 0,0.172153 -0.06334,0.301331 -0.190364,0.387933 -0.126826,0.08635 -0.31619,0.129728 -0.567891,0.129728 -0.106714,0 -0.21733,-0.0088 -0.331649,-0.02597 -0.113368,-0.01641 -0.230238,-0.04143 -0.35021,-0.07505 v -0.392035 c 0.102762,0.04983 0.207925,0.08735 0.315589,0.112367 0.108666,0.02501 0.218682,0.03752 0.330299,0.03752 0.10086,0 0.176656,-0.01386 0.227686,-0.04182 0.05098,-0.02792 0.0764,-0.06919 0.0764,-0.123875 0,-0.04613 -0.01776,-0.08035 -0.05333,-0.102411 -0.03462,-0.02306 -0.104162,-0.04087 -0.209125,-0.05338 l -0.0907,-0.01151 c -0.229788,-0.02892 -0.390634,-0.0823 -0.48309,-0.160046 -0.09225,-0.0778 -0.138333,-0.196018 -0.138333,-0.354713 0,-0.171002 0.05859,-0.297829 0.175856,-0.380528 0.11727,-0.08265 0.297078,-0.124075 0.539173,-0.124075 0.09521,0 0.195267,0.0072 0.30003,0.02166 0.104713,0.01446 0.218481,0.03697 0.341605,0.06784 z m 0.816891,-0.508905 v 0.458475 h 0.531969 v 0.368971 h -0.531969 v 0.684811 c 0,0.07505 0.01486,0.125826 0.04473,0.152792 0.02972,0.02602 0.08895,0.03892 0.177257,0.03892 h 0.265209 v 0.369172 h -0.442466 c -0.203822,0 -0.348409,-0.04243 -0.43401,-0.126876 -0.08465,-0.0856 -0.126876,-0.230189 -0.126876,-0.434011 v -0.684811 h -0.256554 v -0.368971 h 0.256554 v -0.458475 z m 0.753201,0.458475 h 0.51611 v 1.614669 h -0.51611 z m 0,-0.628677 h 0.51611 v 0.420952 h -0.51611 z m 2.06098,1.969331 c -0.0711,0.09421 -0.14934,0.163398 -0.23489,0.207525 -0.0856,0.04438 -0.18451,0.06649 -0.29708,0.06649 -0.19696,0 -0.35996,-0.0774 -0.488785,-0.23219 -0.128778,-0.155743 -0.193066,-0.353712 -0.193066,-0.593906 0,-0.241345 0.06429,-0.438763 0.193066,-0.592556 0.128825,-0.154792 0.291825,-0.232189 0.488785,-0.232189 0.11257,0 0.21148,0.02211 0.29708,0.06629 0.0855,0.04433 0.16375,0.113918 0.23489,0.209075 v -0.239193 h 0.51907 v 1.451671 c 0,0.259506 -0.0823,0.457474 -0.24665,0.593906 -0.16335,0.137583 -0.40064,0.206174 -0.71213,0.206174 -0.10086,0 -0.19837,-0.0076 -0.29258,-0.02306 -0.0942,-0.01526 -0.18896,-0.03887 -0.284163,-0.07054 v -0.402192 c 0.09051,0.05178 0.178853,0.09025 0.265403,0.11527 0.0864,0.02602 0.17356,0.03892 0.26091,0.03892 0.16925,0 0.29313,-0.03697 0.37192,-0.111017 0.0789,-0.07404 0.11822,-0.189763 0.11822,-0.347458 z m -0.34025,-1.004903 c -0.10671,0 -0.18976,0.03947 -0.24935,0.118221 -0.0596,0.07895 -0.0893,0.190364 -0.0893,0.334601 0,0.147939 0.0287,0.260506 0.0863,0.337302 0.0576,0.07585 0.14188,0.113919 0.2523,0.113919 0.10766,0 0.19131,-0.03947 0.25095,-0.118221 0.0596,-0.07875 0.0893,-0.189764 0.0893,-0.333 0,-0.144237 -0.0297,-0.255653 -0.0893,-0.334601 -0.0596,-0.07875 -0.14329,-0.118221 -0.25095,-0.118221 z m 1.85501,0.552282 c -0.10746,0 -0.18876,0.01816 -0.24349,0.05473 -0.0539,0.03652 -0.0807,0.0903 -0.0807,0.161396 0,0.06549 0.0215,0.11687 0.0649,0.154393 0.0441,0.03657 0.10511,0.05473 0.18291,0.05473 0.0971,0 0.1788,-0.03457 0.24524,-0.103762 0.0662,-0.07014 0.0995,-0.157695 0.0995,-0.262458 v -0.05903 z m 0.78878,-0.194667 v 0.921303 h -0.52047 v -0.239444 c -0.0693,0.09811 -0.14713,0.169652 -0.23369,0.214779 -0.0864,0.04438 -0.19171,0.06644 -0.31564,0.06644 -0.1673,0 -0.30333,-0.04863 -0.40804,-0.145588 -0.10376,-0.09811 -0.15579,-0.224935 -0.15579,-0.380678 0,-0.189364 0.0649,-0.328147 0.19466,-0.41665 0.13073,-0.08835 0.33555,-0.13273 0.61422,-0.13273 h 0.30428 v -0.04022 c 0,-0.0817 -0.0322,-0.141285 -0.0967,-0.178807 -0.0643,-0.03852 -0.16475,-0.05768 -0.30138,-0.05768 -0.11042,0 -0.21318,0.01116 -0.30839,0.03322 -0.0952,0.02211 -0.18371,0.05533 -0.26536,0.09951 V 96.95885 c 0.11062,-0.02697 0.22158,-0.04708 0.3332,-0.06059 0.11137,-0.01446 0.22278,-0.02166 0.33435,-0.02166 0.29123,0 0.5013,0.05764 0.63008,0.173154 0.12978,0.114319 0.19467,0.300731 0.19467,0.559286 z m 1.50775,-0.642936 v 0.420953 c -0.0702,-0.04808 -0.14073,-0.08365 -0.21188,-0.106714 -0.0701,-0.02306 -0.14323,-0.03457 -0.21928,-0.03457 -0.14403,0 -0.2566,0.04218 -0.3373,0.126826 -0.0797,0.08365 -0.11957,0.200921 -0.11957,0.351761 0,0.150891 0.0398,0.268711 0.11957,0.353162 0.0807,0.08365 0.19327,0.125475 0.3373,0.125475 0.0809,0 0.15735,-0.01196 0.22924,-0.03597 0.0731,-0.02406 0.14033,-0.05964 0.20192,-0.106714 v 0.422303 c -0.0807,0.02992 -0.1628,0.05198 -0.24645,0.06649 -0.0827,0.01521 -0.16595,0.02301 -0.2496,0.02301 -0.29117,0 -0.51886,-0.07444 -0.68321,-0.223534 -0.16435,-0.14989 -0.24659,-0.358065 -0.24659,-0.624225 0,-0.26616 0.0822,-0.473934 0.24659,-0.622824 0.16435,-0.14989 0.39204,-0.224935 0.68321,-0.224935 0.0846,0 0.1679,0.0078 0.2496,0.02306 0.0827,0.01446 0.16475,0.03652 0.24645,0.06644 z m 0.24545,-0.05043 h 0.51611 v 1.614669 h -0.51611 z m 0,-0.628677 h 0.51611 v 0.420952 h -0.51611 z m 1.73089,0.958775 c -0.11432,0 -0.20187,0.04122 -0.26246,0.123874 -0.0596,0.0817 -0.0893,0.19992 -0.0893,0.354713 0,0.154793 0.0297,0.273414 0.0893,0.356064 0.0606,0.0817 0.14814,0.122573 0.26246,0.122573 0.11241,0 0.19837,-0.04087 0.258,-0.122573 0.0596,-0.08265 0.0895,-0.201271 0.0895,-0.356064 0,-0.154793 -0.0299,-0.273014 -0.0895,-0.354713 -0.0596,-0.08265 -0.14559,-0.123874 -0.258,-0.123874 z m 0,-0.369172 c 0.27771,0 0.49444,0.07505 0.65024,0.224935 0.15669,0.14989 0.23489,0.357615 0.23489,0.622824 0,0.265209 -0.0782,0.472934 -0.23489,0.622824 -0.1558,0.14989 -0.37253,0.224935 -0.65024,0.224935 -0.27867,0 -0.49695,-0.07505 -0.6545,-0.224935 -0.15669,-0.14989 -0.23509,-0.357615 -0.23509,-0.622824 0,-0.265209 0.0784,-0.472934 0.23509,-0.622824 0.15755,-0.14989 0.37583,-0.224935 0.6545,-0.224935 z m 0.22633,-0.707874 h 0.40805 l -0.53197,0.542125 h -0.28257 z m 2.42371,1.378377 v 0.98324 h -0.51906 v -0.752602 c 0,-0.139384 -0.003,-0.235491 -0.01,-0.288273 -0.006,-0.05298 -0.0164,-0.09185 -0.0319,-0.11687 -0.0201,-0.03362 -0.0475,-0.05964 -0.082,-0.0778 -0.0346,-0.01936 -0.0741,-0.02892 -0.11827,-0.02892 -0.10766,0 -0.19227,0.04183 -0.25365,0.125475 -0.0615,0.08265 -0.0923,0.197569 -0.0923,0.344557 v 0.794427 h -0.51611 v -1.614669 h 0.51611 v 0.236292 c 0.0778,-0.09421 0.16045,-0.163398 0.2478,-0.207575 0.0876,-0.04513 0.18411,-0.06779 0.28983,-0.06779 0.18646,0 0.32774,0.05724 0.4239,0.171603 0.0971,0.114319 0.14559,0.280619 0.14559,0.4989 z"
         fill="#ffffff"
         id="path57-4"
         style="stroke-width:0.05003" /><g
         stroke="#ffffff"
         stroke-width="2.6826"
         id="g60-3"
         transform="matrix(0.03752345,0,0,0.03752345,65.119046,50.394059)"><path
           transform="scale(1.3333,-1.3333)"
           d="m 320.75,-821.41 c 0,-5.489 -4.449,-9.942 -9.941,-9.942 -5.492,0 -9.942,4.453 -9.942,9.942 0,5.492 4.45,9.945 9.942,9.945 5.492,0 9.941,-4.453 9.941,-9.945"
           id="path58-8"
           style="fill:#000000;stroke:none" /><path
           transform="scale(1.3333,-1.3333)"
           d="m 263.55,-821.41 c 0,-5.489 -4.453,-9.942 -9.946,-9.942 -5.488,0 -9.941,4.453 -9.941,9.942 0,5.492 4.453,9.945 9.941,9.945 5.493,0 9.946,-4.453 9.946,-9.945"
           id="path59-9"
           style="fill:#000000;stroke:none" /><path
           transform="scale(1.3333,-1.3333)"
           d="m 206.36,-821.41 c 0,-5.489 -4.449,-9.942 -9.941,-9.942 -5.492,0 -9.941,4.453 -9.941,9.942 0,5.492 4.449,9.945 9.941,9.945 5.492,0 9.941,-4.453 9.941,-9.945"
           id="path60-8"
           style="fill:#000000;stroke:none" /></g><g
         stroke="#1a1a1a"
         stroke-linecap="round"
         stroke-linejoin="round"
         stroke-width="3.2978"
         id="g77-73"
         transform="matrix(0.03752345,0,0,0.03752345,65.119046,50.394059)"><path
           transform="scale(1.3333)"
           d="m 766.16,422.88 21.606,-46.508 20.511,-126.24 -18.14,-67.363 -137.4,-31.438 7.313,74.934 -26.215,100.6 -25.656,49.508 z"
           fill="#f9f9f9"
           id="path61-2" /><path
           transform="scale(1.3333)"
           d="m 654.48,169.27 -116.4,-21.515 121.97,78.504 z"
           fill="#333333"
           id="path62-3" /><path
           transform="scale(1.3333)"
           d="m 652.74,151.33 103.98,81.031 51.558,17.77 -18.14,-67.363 z"
           fill="#cccccc"
           id="path63-0" /><path
           transform="scale(1.3333)"
           d="m 808.28,250.13 -51.558,-17.77 34.371,123.06 z"
           fill="#999999"
           id="path64-3" /><path
           transform="scale(1.3333)"
           d="m 787.77,376.37 -117.69,17.77 96.086,28.738 z"
           fill="#cccccc"
           id="path65-4" /><path
           transform="scale(1.3333)"
           d="m 652.74,151.33 -22.953,12.754 24.692,5.191 z"
           fill="#cccccc"
           id="path66-0" /><path
           transform="scale(1.3333)"
           d="M 660.05,226.26 525.48,188.459 497.977,171.893 538.078,147.756 Z"
           fill="#4d4d4d"
           id="path67-16" /><path
           transform="scale(1.3333)"
           d="m 538.08,147.76 -212.77,20.824 -23.235,30.223 195.91,-26.91 z"
           fill="#4d4d4d"
           id="path68-2" /><path
           transform="scale(1.3333)"
           d="m 497.98,171.9 27.503,16.566 -217.5,36.473 -5.907,-26.129 z"
           fill="#666666"
           id="path69-8" /><path
           transform="scale(1.3333)"
           d="m 325.3,168.58 -23.235,30.223 -66.558,61.293 4.676,-37.817 25.781,-22.277 z"
           fill="#333333"
           id="path70-67" /><path
           transform="scale(1.3333)"
           d="m 307.98,224.93 -5.907,-26.129 -87.66,126.38 -4.773,38.191 z"
           fill="#666666"
           id="path71-2" /><path
           transform="scale(1.3333)"
           d="m 302.07,198.8 -66.558,61.293 -2.141,7.804 -13.387,15.45 1.352,32.253 z"
           fill="#4d4d4d"
           id="path72-5" /><path
           transform="scale(1.3333)"
           d="m 307.98,224.93 25.429,65.168 -89.398,85.738 -34.371,-12.465 z"
           fill="#808080"
           id="path73-94" /><path
           transform="scale(1.3333)"
           d="m 209.64,363.38 34.371,12.465 -12.207,70.66 -17.867,0.414 z"
           fill="#808080"
           id="path74-1" /><path
           transform="scale(1.3333)"
           d="m 244.01,375.84 17.187,1.324 -0.238,27.848 -9.07,26.785 -20.086,14.703 z"
           fill="#4d4d4d"
           id="path75-4" /><path
           transform="scale(1.3333)"
           d="m 261.2,377.16 24.582,-11.668 47.629,-75.394 -89.398,85.738 z"
           fill="#4d4d4d"
           id="path76-9" /><path
           transform="scale(1.3333)"
           d="m 261.2,377.16 11.696,-6.102 8.191,17.68 3.039,17.254 -8.605,17.313 4.175,10.742 -16.347,32.488 -3.528,-20.039 -7.929,-14.703 9.07,-26.785 z"
           fill="#333333"
           id="path77-66" /></g><g
         fill="#4d4d4d"
         stroke="#1a1a1a"
         stroke-linecap="round"
         stroke-linejoin="round"
         stroke-width="3.2978"
         id="g80-5"
         transform="matrix(0.03752345,0,0,0.03752345,65.119046,50.394059)"><path
           transform="scale(1.3333)"
           d="m 272.89,371.06 12.886,-5.566 6.446,-10.344 5.968,-4.242 -0.953,17.504 -5.015,13.953 -11.141,6.375 z"
           id="path78-9" /><path
           transform="scale(1.3333)"
           d="m 298.19,350.91 12.891,-13.793 6.324,22.012 -15.316,30.098 -9.867,-6.86 5.015,-13.953 z"
           id="path79-7" /><path
           transform="scale(1.3333)"
           d="m 302.09,389.23 -22.399,44.824 -4.175,-10.742 8.605,-17.313 -3.039,-17.254 11.141,-6.375 z"
           id="path80-9" /></g><g
         stroke="#1a1a1a"
         stroke-linecap="round"
         stroke-linejoin="round"
         stroke-width="3.2978"
         id="g111-5"
         transform="matrix(0.03752345,0,0,0.03752345,65.119046,50.394059)"><path
           transform="scale(1.3333)"
           d="m 263.34,466.54 -9.942,38.098 -8.101,7.875 -8.778,-32.629 -13.839,-7.125 -8.75,-25.844 17.867,-0.414 20.086,-14.703 7.929,14.703 z"
           fill="#808080"
           id="path81-78" /><path
           transform="scale(1.3333)"
           d="m 222.68,472.76 7.765,43.504 14.852,-3.75 -8.778,-32.629 z"
           fill="#f9f9f9"
           id="path82-3" /><path
           transform="scale(1.3333)"
           d="m 376.61,311.86 33.926,17.629 -17.559,48.879 -1.414,-21.613 z"
           fill="#4d4d4d"
           id="path83-6" /><path
           transform="scale(1.3333)"
           d="m 392.98,378.36 -42.695,33.258 -34.906,14.606 35.578,6.398 z"
           fill="#4d4d4d"
           id="path84-2" /><path
           transform="scale(1.3333)"
           d="m 376.61,311.86 -43.207,-21.753 -41.183,65.05 18.859,-18.035 17.934,-16.262 7.703,0.707 26.73,15.422 11.477,13.5 16.64,6.266 z"
           fill="#333333"
           id="path85-8" /><path
           transform="scale(1.3333)"
           d="m 350.96,432.62 26.332,36.758 -49.5,10.949 -11.934,-18.832 -26.734,11.668 -9.004,16.973 -3.168,-10.606 7.637,-26.258 30.793,-27.05 z"
           fill="#4d4d4d"
           id="path86-94" /><path
           transform="scale(1.3333)"
           d="m 327.79,480.33 -11.934,-18.832 -26.734,11.668 -9.004,16.973 6.141,8.754 z"
           fill="#f9f9f9"
           id="path87-1" /><path
           transform="scale(1.3333)"
           d="m 377.29,469.38 72.574,-85.516 4.391,33.004 z"
           fill="#4d4d4d"
           id="path88-6" /><path
           transform="scale(1.3333)"
           d="m 449.86,383.87 34.77,-63.762 74.422,-50.523 -27.246,58.383 -13.582,27.664 -45.071,37.238 -18.902,24.004 z"
           fill="#333333"
           id="path89-62" /><path
           transform="scale(1.3333)"
           d="m 559.06,269.58 84.304,20.809 -9.523,36.468 -66.16,-12.754 -35.867,13.86 z"
           fill="#4d4d4d"
           id="path90-48" /><path
           transform="scale(1.3333)"
           d="m 608.18,376.37 -10.801,-57.762 36.457,8.254 z"
           fill="#cccccc"
           id="path91-3" /><path
           transform="scale(1.3333)"
           d="m 469.95,123.57 -7.426,-12.191 -15.269,-8.578 1.074,29.308 z"
           fill="#f9f9f9"
           id="path92-1" /><path
           transform="scale(1.3333)"
           d="m 660.05,226.26 -134.57,-37.801 -217.5,36.473 25.429,65.168 77.133,39.382 -17.559,48.879 -42.023,54.262 26.332,36.758 72.574,-85.516 34.77,-63.762 74.422,-50.523 84.304,20.809 z"
           fill="#808080"
           id="path93-7" /><path
           transform="scale(1.3333)"
           d="m 469.95,123.57 -163.4,310.34 -21.961,19.359 -7.637,26.258 3.168,10.606 -7.945,11.14 -37.711,42.434 10.023,-31.293 8.594,-8.488 10.266,-37.395 183.91,-363.73 1.074,29.308 z"
           fill="#d400aa"
           id="path94-5" /><path
           d="m 233.24,546.14 -21.605,46.508 -20.512,126.24 18.141,67.363 137.39,31.438 -7.308,-74.934 26.214,-100.6 25.653,-49.507 z"
           fill="#1a1a1a"
           id="path95-6"
           transform="scale(1.3333)" /><path
           transform="scale(1.3333)"
           d="m 344.92,799.74 116.4,21.516 -121.97,-78.504 z"
           fill="#999999"
           id="path96-6" /><path
           transform="scale(1.3333)"
           d="m 346.66,817.68 -103.98,-81.032 -51.555,-17.769 18.141,67.363 z"
           fill="#4d4d4d"
           id="path97-9" /><path
           transform="scale(1.3333)"
           d="m 191.12,718.88 51.555,17.769 -34.371,-123.06 z"
           fill="#333333"
           id="path98-9" /><path
           transform="scale(1.3333)"
           d="M 211.64,592.64 329.33,574.87 233.244,546.132 Z"
           fill="#4d4d4d"
           id="path99-3" /><path
           transform="scale(1.3333)"
           d="m 346.66,817.68 22.957,-12.754 -24.695,-5.192 z"
           fill="#4d4d4d"
           id="path100-8" /><path
           transform="scale(1.3333)"
           d="m 339.35,742.75 134.57,37.801 27.504,16.566 -40.102,24.137 z"
           fill="#cccccc"
           id="path101-59" /><path
           transform="scale(1.3333)"
           d="m 461.32,821.25 212.77,-20.824 23.234,-30.223 -195.91,26.91 z"
           fill="#b3b3b3"
           id="path102-5" /><path
           transform="scale(1.3333)"
           d="m 501.43,797.12 -27.504,-16.566 217.5,-36.473 5.91,26.129 z"
           fill="#cccccc"
           id="path103-78" /><path
           transform="scale(1.3333)"
           d="m 674.1,800.43 23.234,-30.223 66.555,-61.293 -4.676,37.816 -25.777,22.278 z"
           fill="#808080"
           id="path104-4" /><path
           transform="scale(1.3333)"
           d="m 691.42,744.08 5.91,26.129 87.66,-126.38 4.774,-38.191 z"
           fill="#cccccc"
           id="path105-2" /><path
           transform="scale(1.3333)"
           d="m 697.33,770.21 66.555,-61.293 2.14,-7.805 13.391,-15.449 -1.352,-32.254 z"
           fill="#999999"
           id="path106-5" /><path
           transform="scale(1.3333)"
           d="m 691.42,744.08 -25.426,-65.168 89.399,-85.738 34.371,12.465 z"
           fill="#f9f9f9"
           id="path107-3" /><path
           transform="scale(1.3333)"
           d="m 789.77,605.64 -34.371,-12.465 12.207,-70.66 17.867,-0.414 z"
           fill="#ececec"
           id="path108-7" /><path
           transform="scale(1.3333)"
           d="m 755.4,593.17 -17.188,-1.324 0.238,-27.848 9.071,-26.785 20.086,-14.703 z"
           fill="#b3b3b3"
           id="path109-4" /><path
           transform="scale(1.3333)"
           d="m 738.21,591.85 -24.586,11.668 -47.625,75.394 89.399,-85.738 z"
           fill="#999999"
           id="path110-7" /><path
           transform="scale(1.3333)"
           d="m 738.21,591.85 -11.695,6.097 -8.196,-17.675 -3.035,-17.254 8.606,-17.313 -4.18,-10.742 16.352,-32.488 3.523,20.039 7.934,14.703 -9.071,26.785 z"
           fill="#4d4d4d"
           id="path111-55" /></g><g
         fill="#808080"
         stroke="#1a1a1a"
         stroke-linecap="round"
         stroke-linejoin="round"
         stroke-width="3.2978"
         id="g114-38"
         transform="matrix(0.03752345,0,0,0.03752345,65.119046,50.394059)"><path
           transform="scale(1.3333)"
           d="m 726.51,597.94 -12.891,5.571 -6.445,10.343 -5.965,4.243 0.953,-17.504 5.012,-13.953 11.14,-6.375 z"
           id="path112-1" /><path
           transform="scale(1.3333)"
           d="m 701.21,618.1 -12.891,13.793 -6.324,-22.012 15.313,-30.098 9.867,6.86 -5.012,13.953 z"
           id="path113-9" /><path
           transform="scale(1.3333)"
           d="m 697.31,579.78 22.398,-44.824 4.18,10.742 -8.606,17.313 3.035,17.254 -11.14,6.375 z"
           id="path114-3" /></g><g
         stroke="#1a1a1a"
         stroke-linecap="round"
         stroke-linejoin="round"
         stroke-width="3.2978"
         id="g128-6"
         transform="matrix(0.03752345,0,0,0.03752345,65.119046,50.394059)"><path
           transform="scale(1.3333)"
           d="m 736.06,502.47 9.937,-38.098 8.102,-7.875 8.777,32.629 13.84,7.125 8.754,25.844 -17.867,0.414 -20.086,14.703 -7.934,-14.703 z"
           fill="#ececec"
           id="path115-7" /><path
           transform="scale(1.3333)"
           d="m 776.72,496.25 -7.762,-43.504 -14.855,3.75 8.777,32.629 z"
           fill="#f9f9f9"
           id="path116-6" /><path
           transform="scale(1.3333)"
           d="m 622.79,657.16 -33.926,-17.629 17.559,-48.879 1.414,21.614 z"
           fill="#808080"
           id="path117-7" /><path
           transform="scale(1.3333)"
           d="m 606.42,590.65 42.695,-33.257 34.906,-14.606 -35.582,-6.398 z"
           fill="#b3b3b3"
           id="path118-5" /><path
           transform="scale(1.3333)"
           d="m 622.79,657.16 43.207,21.754 41.18,-65.051 -18.856,18.036 -17.937,16.261 -7.703,-0.707 -26.727,-15.422 -11.476,-13.504 -16.641,-6.261 z"
           fill="#4d4d4d"
           id="path119-3" /><path
           transform="scale(1.3333)"
           d="m 648.44,536.39 -26.328,-36.758 49.5,-10.949 11.934,18.832 26.734,-11.672 9,-16.969 3.172,10.606 -7.637,26.257 -30.793,27.051 z"
           fill="#ffffff"
           id="path120-5" /><path
           transform="scale(1.3333)"
           d="m 671.61,488.68 11.934,18.832 26.734,-11.672 9,-16.969 -6.136,-8.754 z"
           fill="#ffffff"
           id="path121-3" /><path
           transform="scale(1.3333)"
           d="m 622.11,499.63 -72.578,85.516 -4.387,-33.004 z"
           fill="#e6e6e6"
           id="path122-2" /><path
           transform="scale(1.3333)"
           d="m 549.54,585.14 -34.769,63.761 -74.418,50.524 27.242,-58.383 13.586,-27.664 45.07,-37.238 18.902,-24.004 z"
           fill="#cccccc"
           id="path123-5" /><path
           transform="scale(1.3333)"
           d="m 440.35,699.43 -84.305,-20.809 9.523,-36.469 66.161,12.754 35.863,-13.859 z"
           fill="#b3b3b3"
           id="path124-62" /><path
           transform="scale(1.3333)"
           d="m 391.22,592.64 10.801,57.761 -36.454,-8.254 z"
           fill="#4d4d4d"
           id="path125-28" /><path
           transform="scale(1.3333)"
           d="m 529.45,845.44 7.43,12.187 15.266,8.582 -1.075,-29.309 z"
           fill="#f9f9f9"
           id="path126-7" /><path
           transform="scale(1.3333)"
           d="m 339.35,742.75 134.57,37.801 217.5,-36.473 -25.426,-65.168 -77.133,-39.383 17.559,-48.879 42.019,-54.261 -26.328,-36.758 -72.578,85.516 -34.769,63.761 -74.418,50.524 -84.305,-20.809 z"
           fill="#f9f9f9"
           id="path127-1" /><path
           transform="scale(1.3333)"
           d="m 529.45,845.44 163.41,-310.34 21.961,-19.36 7.637,-26.257 -3.172,-10.606 7.946,-11.141 37.714,-42.433 -10.027,31.293 -8.59,8.488 -10.265,37.395 -183.91,363.73 -1.075,-29.309 z"
           fill="#d400aa"
           id="path128-8" /></g><g
         id="text174864-4-1"
         style="font-weight:900;font-size:7.63983px;font-family:'Acherus Grotesque';fill:#ffffff;stroke-width:0.0883543"
         aria-label="MetaCiencia"><path
           style="font-weight:normal;font-family:Outfit;-inkscape-font-specification:'Outfit Bold'"
           d="m 68.796251,106.74383 v -5.30204 h 0.504228 l 2.078034,3.415 2.070394,-3.415 h 0.504229 v 5.30204 h -0.718144 v -3.72824 l -1.604364,2.64338 h -0.504229 l -1.612004,-2.64338 v 3.72824 z m 7.968348,0.0764 q -0.550068,0 -0.985538,-0.24448 -0.427831,-0.25211 -0.679945,-0.67994 -0.252114,-0.42783 -0.252114,-0.97026 0,-0.53479 0.244474,-0.96262 0.252114,-0.42783 0.672305,-0.67231 0.427831,-0.25211 0.954979,-0.25211 0.496589,0 0.87858,0.2292 0.389632,0.22919 0.611187,0.6341 0.221555,0.40491 0.221555,0.91678 0,0.14516 -0.0382,0.36671 h -2.842017 q 0.08404,0.45839 0.404911,0.72579 0.320873,0.25975 0.809822,0.25975 0.305593,0 0.557707,-0.10696 0.259755,-0.10695 0.443111,-0.32087 l 0.44311,0.45075 q -0.267394,0.30559 -0.641746,0.46603 -0.374352,0.16044 -0.802182,0.16044 z m -0.06112,-3.14761 q -0.45839,0 -0.763983,0.25211 -0.305593,0.25211 -0.389631,0.68759 h 2.207911 q -0.06112,-0.44311 -0.336153,-0.68759 -0.267394,-0.25211 -0.718144,-0.25211 z m 2.92605,3.07121 v -3.00246 h -0.89386 v -0.62646 h 0.89386 v -1.52033 h 0.687585 v 1.52033 h 0.89386 v 0.62646 h -0.89386 v 3.00246 z m 3.682403,0.0764 q -0.496589,0 -0.9015,-0.24448 -0.404911,-0.25211 -0.641746,-0.67994 -0.229194,-0.42783 -0.229194,-0.96262 0,-0.52715 0.229194,-0.95498 0.236835,-0.43547 0.634106,-0.68759 0.404911,-0.25211 0.90914,-0.25211 0.381992,0 0.695225,0.1528 0.313233,0.15279 0.511868,0.42019 v -0.49659 h 0.695225 v 3.62892 h -0.695225 v -0.48895 q -0.190995,0.25975 -0.504229,0.41255 -0.313233,0.1528 -0.702864,0.1528 z m 0.114598,-0.64939 q 0.511868,0 0.825101,-0.34379 0.313233,-0.34379 0.313233,-0.89386 0,-0.55771 -0.320873,-0.9015 -0.313233,-0.34379 -0.825101,-0.34379 -0.343793,0 -0.611187,0.16043 -0.259754,0.16044 -0.41255,0.44311 -0.145157,0.27504 -0.145157,0.63411 0,0.36671 0.145157,0.64938 0.152796,0.27504 0.42019,0.43547 0.267394,0.16044 0.611187,0.16044 z"
           id="path9" /><path
           style="font-weight:bold;font-family:Outfit;-inkscape-font-specification:'Outfit Bold'"
           d="m 88.789697,106.82787 q -0.611186,0 -1.130694,-0.20628 -0.511869,-0.21391 -0.89386,-0.58827 -0.381992,-0.38199 -0.595907,-0.88622 -0.213915,-0.51187 -0.213915,-1.10777 0,-0.58827 0.213915,-1.0925 0.213915,-0.50423 0.595907,-0.87858 0.381991,-0.38199 0.89386,-0.58827 0.511868,-0.21391 1.123055,-0.21391 0.641745,0 1.138334,0.20628 0.504229,0.20627 0.878581,0.56534 l -0.802182,0.80982 q -0.213916,-0.22919 -0.519509,-0.35907 -0.297953,-0.12987 -0.695224,-0.12987 -0.47367,0 -0.832742,0.21391 -0.359072,0.20628 -0.565347,0.58827 -0.198636,0.37435 -0.198636,0.87858 0,0.51187 0.198636,0.89386 0.206275,0.38199 0.565347,0.5959 0.359072,0.20628 0.832742,0.20628 0.41255,0 0.718144,-0.12988 0.305593,-0.12987 0.527148,-0.35907 l 0.809822,0.80982 q -0.389631,0.35908 -0.89386,0.56535 -0.496589,0.20628 -1.153615,0.20628 z M 91.9755,102.519 q -0.275034,0 -0.45839,-0.18335 -0.175716,-0.191 -0.175716,-0.45839 0,-0.2674 0.175716,-0.45075 0.183356,-0.191 0.45839,-0.191 0.275033,0 0.45075,0.191 0.175716,0.18335 0.175716,0.45075 0,0.26739 -0.175716,0.45839 -0.175717,0.18335 -0.45075,0.18335 z m -0.588267,4.22483 v -3.71296 h 1.168894 v 3.71296 z m 3.827553,0.084 q -0.603547,0 -1.077216,-0.24448 -0.46603,-0.25211 -0.733424,-0.68758 -0.267394,-0.44311 -0.267394,-1.00846 0,-0.55771 0.259754,-0.99318 0.267394,-0.43547 0.718144,-0.68758 0.45075,-0.25976 1.016098,-0.25976 0.542427,0 0.962618,0.24448 0.427831,0.23683 0.664665,0.65702 0.244475,0.41255 0.244475,0.95498 0,0.20628 -0.05348,0.46603 l -2.658661,0.008 q 0.09168,0.31323 0.328513,0.48131 0.236835,0.16808 0.588267,0.16808 0.557707,0 0.88622,-0.382 l 0.641746,0.64175 q -0.275034,0.32087 -0.664665,0.48131 -0.389632,0.16044 -0.855661,0.16044 z m -0.0764,-2.98718 q -0.320872,0 -0.542428,0.16808 -0.221555,0.16807 -0.305593,0.46603 l 1.619644,-0.008 q -0.145157,-0.62647 -0.771623,-0.62647 z m 2.429468,2.90314 v -3.71296 h 1.168894 v 0.29795 q 0.412551,-0.37435 1.039017,-0.37435 0.404915,0 0.725785,0.19864 0.32087,0.19099 0.50423,0.51187 0.18335,0.32087 0.18335,0.70286 v 2.37599 h -1.16889 v -2.11624 q 0,-0.29031 -0.183357,-0.46602 -0.175716,-0.18336 -0.45075,-0.18336 -0.282673,0 -0.466029,0.18336 -0.183356,0.17571 -0.183356,0.46602 v 2.11624 z m 6.165346,0.084 q -0.58062,0 -1.04665,-0.25212 -0.45839,-0.25211 -0.72579,-0.68758 -0.26739,-0.44311 -0.26739,-1.00082 0,-0.55007 0.26739,-0.98554 0.27504,-0.44311 0.73343,-0.69522 0.46603,-0.25976 1.05429,-0.25976 0.87094,0 1.44393,0.59591 l -0.7487,0.7487 q -0.25976,-0.28267 -0.69523,-0.28267 -0.37435,0 -0.61882,0.24447 -0.24448,0.23684 -0.24448,0.62647 0,0.39727 0.24448,0.64175 0.24447,0.24447 0.61882,0.24447 0.45075,0 0.71815,-0.30559 l 0.74106,0.7487 q -0.59591,0.61883 -1.47449,0.61883 z m 2.58227,-4.30887 q -0.27504,0 -0.45839,-0.18335 -0.17572,-0.191 -0.17572,-0.45839 0,-0.2674 0.17572,-0.45075 0.18335,-0.191 0.45839,-0.191 0.27503,0 0.45075,0.191 0.17571,0.18335 0.17571,0.45075 0,0.26739 -0.17571,0.45839 -0.17572,0.18335 -0.45075,0.18335 z m -0.58827,4.22483 v -3.71296 h 1.16889 v 3.71296 z m 3.54488,0.0764 q -0.51187,0 -0.91678,-0.25212 -0.39727,-0.25211 -0.63411,-0.68758 -0.22919,-0.43547 -0.22919,-0.99318 0,-0.55007 0.22919,-0.98554 0.23684,-0.44311 0.63411,-0.69522 0.40491,-0.25212 0.91678,-0.25212 0.30559,0 0.56535,0.10696 0.26739,0.0993 0.45839,0.27503 v -0.30559 h 1.14597 v 3.71296 h -1.14597 v -0.3056 q -0.191,0.18336 -0.45839,0.28268 -0.25976,0.0993 -0.56535,0.0993 z m 0.23683,-1.0543 q 0.37436,0 0.60355,-0.24447 0.2292,-0.24448 0.2292,-0.63411 0,-0.38963 -0.2292,-0.63411 -0.22919,-0.24447 -0.59591,-0.24447 -0.36671,0 -0.60354,0.25211 -0.23684,0.24448 -0.23684,0.62647 0,0.38963 0.2292,0.63411 0.23683,0.24447 0.60354,0.24447 z"
           id="path10" /></g><path
         d="m 78.602986,120.67987 h 0.893044 v 0.17694 h -0.682794 v 0.45797 h 0.61618 v 0.17695 h -0.61618 v 0.74212 h -0.21025 z m 1.789796,0.96798 q -0.232108,0 -0.321621,0.0531 -0.08951,0.0531 -0.08951,0.1811 0,0.10201 0.06661,0.16237 0.06765,0.0593 0.183188,0.0593 0.15925,0 0.255007,-0.11241 0.0968,-0.11345 0.0968,-0.3008 v -0.0427 z m 0.38199,-0.0791 v 0.6651 h -0.191515 v -0.17695 q -0.06557,0.10617 -0.163413,0.15717 -0.09784,0.05 -0.239394,0.05 -0.179025,0 -0.285191,-0.0999 -0.105126,-0.10096 -0.105126,-0.26958 0,-0.19672 0.131147,-0.29664 0.132187,-0.0999 0.393439,-0.0999 h 0.268538 v -0.0187 q 0,-0.13219 -0.08743,-0.20401 -0.08639,-0.0729 -0.243558,-0.0729 -0.09992,0 -0.194638,0.0239 -0.09472,0.0239 -0.182147,0.0718 v -0.17694 q 0.105125,-0.0406 0.204005,-0.0604 0.09888,-0.0208 0.192556,-0.0208 0.252926,0 0.377827,0.13115 0.124901,0.13114 0.1249,0.3976 z m 1.140047,-0.45589 v 0.17902 q -0.08119,-0.0448 -0.163412,-0.0666 -0.08119,-0.0229 -0.164454,-0.0229 -0.186311,0 -0.289355,0.11866 -0.103043,0.11761 -0.103043,0.33099 0,0.21337 0.103043,0.33203 0.103044,0.11761 0.289355,0.11761 0.08327,0 0.164454,-0.0219 0.08223,-0.0229 0.163412,-0.0677 v 0.17694 q -0.08014,0.0375 -0.166535,0.0562 -0.08535,0.0187 -0.182148,0.0187 -0.263334,0 -0.418419,-0.16549 -0.155086,-0.1655 -0.155086,-0.44652 0,-0.2852 0.156126,-0.44861 0.157168,-0.16341 0.429869,-0.16341 0.08847,0 0.172781,0.0187 0.08431,0.0177 0.163412,0.0541 z m 0.288139,0.66094 v -0.7057 h 0.191515 v 0.69841 q 0,0.16549 0.06453,0.24876 0.06453,0.0822 0.193597,0.0822 0.155086,0 0.244599,-0.0989 0.09055,-0.0989 0.09055,-0.26958 v -0.66094 h 0.191516 v 1.16575 h -0.191516 v -0.17903 q -0.06974,0.10617 -0.162371,0.15821 -0.09159,0.051 -0.213373,0.051 -0.200883,0 -0.304968,-0.1249 -0.104084,-0.1249 -0.104084,-0.36533 z m 0.481911,-0.7338 z m 0.825371,-0.42571 h 0.191515 v 1.61956 H 83.51024 Z m 0.786083,0.12282 v 0.33099 h 0.39448 v 0.14884 h -0.39448 v 0.63284 q 0,0.14259 0.03851,0.18319 0.03955,0.0406 0.159249,0.0406 h 0.19672 v 0.16029 h -0.19672 q -0.2217,0 -0.306008,-0.0822 -0.08431,-0.0833 -0.08431,-0.30184 v -0.63284 H 83.96325 v -0.14884 h 0.140514 v -0.33099 z m 1.265695,0.91074 q -0.232109,0 -0.321621,0.0531 -0.08951,0.0531 -0.08951,0.1811 0,0.10201 0.06661,0.16237 0.06765,0.0593 0.183189,0.0593 0.159249,0 0.255007,-0.11241 0.0968,-0.11345 0.0968,-0.3008 v -0.0427 z m 0.38199,-0.0791 v 0.6651 h -0.191516 v -0.17695 q -0.06557,0.10617 -0.163412,0.15717 -0.09784,0.05 -0.239395,0.05 -0.179025,0 -0.285191,-0.0999 -0.105125,-0.10096 -0.105125,-0.26958 0,-0.19672 0.131146,-0.29664 0.132187,-0.0999 0.393439,-0.0999 h 0.268538 v -0.0187 q 0,-0.13219 -0.08743,-0.20401 -0.08639,-0.0729 -0.243557,-0.0729 -0.09992,0 -0.194638,0.0239 -0.09472,0.0239 -0.182148,0.0718 v -0.17694 q 0.105125,-0.0406 0.204005,-0.0604 0.09888,-0.0208 0.192557,-0.0208 0.252925,0 0.377826,0.13115 0.124902,0.13114 0.124902,0.3976 z m 1.068259,-0.3237 v -0.63076 h 0.191515 v 1.61956 h -0.191515 v -0.17486 q -0.06037,0.10408 -0.153005,0.15508 -0.09159,0.05 -0.220659,0.05 -0.211291,0 -0.344519,-0.16861 -0.132188,-0.16862 -0.132188,-0.4434 0,-0.27479 0.132188,-0.4434 0.133228,-0.16862 0.344519,-0.16862 0.129065,0 0.220659,0.051 0.09264,0.05 0.153005,0.15405 z m -0.65261,0.40697 q 0,0.21129 0.08639,0.33203 0.08743,0.11969 0.239394,0.11969 0.151964,0 0.239395,-0.11969 0.08743,-0.12074 0.08743,-0.33203 0,-0.2113 -0.08743,-0.33099 -0.08743,-0.12074 -0.239395,-0.12074 -0.151963,0 -0.239394,0.12074 -0.08639,0.11969 -0.08639,0.33099 z m 2.543349,-0.40697 v -0.63076 h 0.191515 v 1.61956 h -0.191515 v -0.17486 q -0.06037,0.10408 -0.153004,0.15508 -0.09159,0.05 -0.220659,0.05 -0.211292,0 -0.34452,-0.16861 -0.132187,-0.16862 -0.132187,-0.4434 0,-0.27479 0.132187,-0.4434 0.133228,-0.16862 0.34452,-0.16862 0.129065,0 0.220659,0.051 0.09264,0.05 0.153004,0.15405 z m -0.65261,0.40697 q 0,0.21129 0.08639,0.33203 0.08743,0.11969 0.239394,0.11969 0.151963,0 0.239394,-0.11969 0.08743,-0.12074 0.08743,-0.33203 0,-0.2113 -0.08743,-0.33099 -0.08743,-0.12074 -0.239394,-0.12074 -0.151964,0 -0.239394,0.12074 -0.08639,0.11969 -0.08639,0.33099 z m 2.234131,-0.0489 v 0.0937 h -0.880555 q 0.01249,0.19776 0.118656,0.30185 0.107207,0.10304 0.297682,0.10304 0.110329,0 0.213373,-0.0271 0.104084,-0.0271 0.206087,-0.0812 v 0.18111 q -0.103043,0.0437 -0.211291,0.0666 -0.108248,0.0229 -0.219618,0.0229 -0.278947,0 -0.442359,-0.16237 -0.162372,-0.16237 -0.162372,-0.43924 0,-0.28623 0.154045,-0.4538 0.155086,-0.16862 0.417378,-0.16862 0.235231,0 0.371582,0.15196 0.137392,0.15093 0.137392,0.41114 z m -0.191516,-0.0562 q -0.0021,-0.15717 -0.08847,-0.25084 -0.08535,-0.0937 -0.226904,-0.0937 -0.16029,0 -0.257088,0.0905 -0.09576,0.0906 -0.11033,0.25501 z m 1.224853,-0.69424 v 0.58391 h 0.264375 q 0.146759,0 0.226904,-0.076 0.08015,-0.076 0.08015,-0.2165 0,-0.13947 -0.08015,-0.21545 -0.08014,-0.076 -0.226904,-0.076 z m -0.21025,-0.17278 h 0.474625 q 0.261252,0 0.39448,0.11865 0.134269,0.11762 0.134269,0.34556 0,0.23003 -0.134269,0.34765 -0.133228,0.11761 -0.39448,0.11761 h -0.264375 v 0.62451 h -0.21025 z m 2.035152,0.42258 v 0.18111 q -0.08119,-0.0416 -0.168617,-0.0624 -0.08743,-0.0208 -0.181107,-0.0208 -0.142596,0 -0.214414,0.0437 -0.07078,0.0437 -0.07078,0.13114 0,0.0666 0.051,0.10513 0.051,0.0375 0.205046,0.0718 l 0.06557,0.0146 q 0.204005,0.0437 0.289355,0.12386 0.08639,0.0791 0.08639,0.2217 0,0.16237 -0.129065,0.25709 -0.128024,0.0947 -0.352846,0.0947 -0.09368,0 -0.195679,-0.0187 -0.100962,-0.0177 -0.213373,-0.0541 v -0.19776 q 0.106166,0.0552 0.209209,0.0833 0.103044,0.0271 0.204006,0.0271 0.13531,0 0.208169,-0.0458 0.07286,-0.0468 0.07286,-0.13115 0,-0.0781 -0.05308,-0.1197 -0.05204,-0.0416 -0.230027,-0.0801 l -0.06661,-0.0156 q -0.177984,-0.0375 -0.257088,-0.11449 -0.0791,-0.0781 -0.0791,-0.21337 0,-0.16446 0.116575,-0.25397 0.116575,-0.0895 0.330989,-0.0895 0.106166,0 0.199842,0.0156 0.09368,0.0156 0.17278,0.0468 z m 0.341851,-0.0344 h 0.191516 v 1.16575 h -0.191516 z m 0,-0.45381 h 0.191516 v 0.24252 h -0.191516 z m 1.506127,0.49857 v 0.17902 q -0.08119,-0.0448 -0.163413,-0.0666 -0.08119,-0.0229 -0.164453,-0.0229 -0.186311,0 -0.289355,0.11866 -0.103044,0.11761 -0.103044,0.33099 0,0.21337 0.103044,0.33203 0.103044,0.11761 0.289355,0.11761 0.08327,0 0.164453,-0.0219 0.08223,-0.0229 0.163413,-0.0677 v 0.17694 q -0.08015,0.0375 -0.166535,0.0562 -0.08535,0.0187 -0.182148,0.0187 -0.263334,0 -0.41842,-0.16549 -0.155086,-0.1655 -0.155086,-0.44652 0,-0.2852 0.156127,-0.44861 0.157168,-0.16341 0.429869,-0.16341 0.08847,0 0.17278,0.0187 0.08431,0.0177 0.163413,0.0541 z m 0.759626,0.0895 q -0.154045,0 -0.243558,0.12074 -0.08951,0.1197 -0.08951,0.32891 0,0.20921 0.08847,0.32994 0.08951,0.1197 0.244599,0.1197 0.153004,0 0.242516,-0.12074 0.08951,-0.12073 0.08951,-0.3289 0,-0.20713 -0.08951,-0.32787 -0.08951,-0.12178 -0.242517,-0.12178 z m 0,-0.16237 q 0.249802,0 0.392398,0.16237 0.142596,0.16237 0.142596,0.44965 0,0.28623 -0.142596,0.44964 -0.142596,0.16237 -0.392398,0.16237 -0.250844,0 -0.39344,-0.16237 -0.141555,-0.16341 -0.141555,-0.44964 0,-0.28728 0.141555,-0.44965 0.142596,-0.16237 0.39344,-0.16237 z m 0.869898,-0.42571 h 0.191515 v 1.61956 h -0.191515 z m 1.059255,0.58808 q -0.154045,0 -0.243558,0.12074 -0.08951,0.1197 -0.08951,0.32891 0,0.20921 0.08847,0.32994 0.08951,0.1197 0.244598,0.1197 0.153004,0 0.242517,-0.12074 0.08951,-0.12073 0.08951,-0.3289 0,-0.20713 -0.08951,-0.32787 -0.08951,-0.12178 -0.242517,-0.12178 z m 0,-0.16237 q 0.249803,0 0.392399,0.16237 0.142595,0.16237 0.142595,0.44965 0,0.28623 -0.142595,0.44964 -0.142596,0.16237 -0.392399,0.16237 -0.250843,0 -0.393439,-0.16237 -0.141555,-0.16341 -0.141555,-0.44964 0,-0.28728 0.141555,-0.44965 Q 97.62868,121.04 97.879523,121.04 Z m 1.636986,0.59744 q 0,-0.20816 -0.08639,-0.32266 -0.08535,-0.11449 -0.240435,-0.11449 -0.154045,0 -0.240435,0.11449 -0.08535,0.1145 -0.08535,0.32266 0,0.20713 0.08535,0.32163 0.08639,0.11449 0.240435,0.11449 0.155086,0 0.240435,-0.11449 0.08639,-0.1145 0.08639,-0.32163 z m 0.191515,0.45173 q 0,0.29768 -0.132187,0.44236 -0.132188,0.14572 -0.404889,0.14572 -0.100962,0 -0.190474,-0.0156 -0.08951,-0.0146 -0.173822,-0.0458 v -0.18631 q 0.08431,0.0458 0.166536,0.0677 0.08223,0.0219 0.167576,0.0219 0.188392,0 0.282069,-0.0989 0.09368,-0.0978 0.09368,-0.29664 v -0.0947 q -0.05933,0.10305 -0.151964,0.15405 -0.09264,0.051 -0.2217,0.051 -0.214414,0 -0.34556,-0.16341 -0.131147,-0.16342 -0.131147,-0.433 0,-0.27062 0.131147,-0.43403 0.131146,-0.16341 0.34556,-0.16341 0.129065,0 0.2217,0.051 0.09263,0.051 0.151964,0.15405 v -0.17695 h 0.191515 z m 0.633286,-1.56023 h 0.20713 l -0.33932,0.39136 h -0.15924 z m -0.24043,0.53916 h 0.19151 v 1.16575 h -0.19151 z m 0.0957,-0.0281 z m 1.0565,0.60785 q -0.23211,0 -0.32162,0.0531 -0.0895,0.0531 -0.0895,0.1811 0,0.10201 0.0666,0.16237 0.0677,0.0593 0.18319,0.0593 0.15924,0 0.255,-0.11241 0.0968,-0.11345 0.0968,-0.3008 v -0.0427 z m 0.38199,-0.0791 v 0.6651 h -0.19152 v -0.17695 q -0.0656,0.10617 -0.16341,0.15717 -0.0978,0.05 -0.2394,0.05 -0.17902,0 -0.28519,-0.0999 -0.10512,-0.10096 -0.10512,-0.26958 0,-0.19672 0.13114,-0.29664 0.13219,-0.0999 0.39344,-0.0999 h 0.26854 v -0.0187 q 0,-0.13219 -0.0874,-0.20401 -0.0864,-0.0729 -0.24356,-0.0729 -0.0999,0 -0.19464,0.0239 -0.0947,0.0239 -0.18214,0.0718 v -0.17694 q 0.10512,-0.0406 0.204,-0.0604 0.0989,-0.0208 0.19256,-0.0208 0.25292,0 0.37782,0.13115 0.12491,0.13114 0.12491,0.3976 z"
         id="text174876-5-3"
         style="font-weight:500;font-size:2.13165px;font-family:'Acherus Grotesque';fill:#ffffff;stroke-width:0.13297"
         aria-label="Facultad de Psicología" /></g></g></svg>
